<?xml version="1.0" encoding="UTF-8"?>
<svg width="20px" height="20px" viewBox="0 0 20 20" version="1.1" xmlns="http://www.w3.org/2000/svg" xmlns:xlink="http://www.w3.org/1999/xlink">
    <!-- Generator: Sketch 42 (36781) - http://www.bohemiancoding.com/sketch -->
    <title>Shape</title>
    <desc>Created with Sketch.</desc>
    <defs></defs>
    <g id="03-图标" stroke="none" stroke-width="1" fill="none" fill-rule="evenodd">
        <g id="图标" transform="translate(-467.000000, -704.000000)" fill="#03A9F4">
            <path d="M477,724 C471.476562,724 467,719.523438 467,714 C467,708.476562 471.476562,704 477,704 C482.523438,704 487,708.476562 487,714 C487,719.523438 482.523438,724 477,724 L477,724 Z M483.076172,707.923828 C482.287109,707.134766 481.367188,706.513672 480.34375,706.082031 C479.285156,705.632812 478.160156,705.40625 477,705.40625 C475.839844,705.40625 474.714844,705.632812 473.65625,706.080078 C472.632812,706.513672 471.714844,707.132812 470.923828,707.921875 C470.134766,708.710938 469.513672,709.630859 469.082031,710.654297 C468.632812,711.714844 468.40625,712.839844 468.40625,714 C468.40625,715.160156 468.632812,716.285156 469.080078,717.34375 C469.513672,718.367188 470.132812,719.285156 470.921875,720.076172 C471.710938,720.865234 472.630859,721.486328 473.654297,721.917969 C474.714844,722.367188 475.839844,722.59375 477,722.59375 C478.160156,722.59375 479.285156,722.367188 480.34375,721.919922 C481.367188,721.486328 482.285156,720.867188 483.076172,720.078125 C483.865234,719.289062 484.486328,718.369141 484.917969,717.345703 C485.367188,716.285156 485.59375,715.160156 485.59375,714 C485.59375,712.839844 485.367188,711.714844 484.919922,710.65625 C484.486328,709.632812 483.867188,708.712891 483.076172,707.923828 L483.076172,707.923828 Z M481.296875,714.693359 L477.712891,714.693359 L477.712891,718.277344 C477.712891,718.666016 477.398438,718.980469 477.009766,718.980469 L477.009766,718.980469 C476.621094,718.980469 476.306641,718.666016 476.306641,718.277344 L476.306641,714.693359 L472.703125,714.693359 C472.314453,714.693359 472,714.378906 472,713.990234 L472,713.990234 C472,713.601562 472.314453,713.287109 472.703125,713.287109 L476.306641,713.287109 L476.306641,709.722656 C476.306641,709.333984 476.621094,709.019531 477.009766,709.019531 L477.009766,709.019531 C477.398438,709.019531 477.712891,709.333984 477.712891,709.722656 L477.712891,713.287109 L481.296875,713.287109 C481.685547,713.287109 482,713.601562 482,713.990234 L482,713.990234 C482,714.378906 481.685547,714.693359 481.296875,714.693359 L481.296875,714.693359 Z" id="Shape" transform="translate(477.000000, 714.000000) scale(1, -1) translate(-477.000000, -714.000000) "></path>
        </g>
    </g>
</svg>