<?xml version="1.0" encoding="UTF-8"?>
<svg width="20px" height="20px" viewBox="0 0 20 20" version="1.1" xmlns="http://www.w3.org/2000/svg" xmlns:xlink="http://www.w3.org/1999/xlink">
    <!-- Generator: Sketch 42 (36781) - http://www.bohemiancoding.com/sketch -->
    <title>删除2</title>
    <desc>Created with Sketch.</desc>
    <defs></defs>
    <g id="Symbols" stroke="none" stroke-width="1" fill="none" fill-rule="evenodd">
        <g id="删除2">
            <circle id="Oval" fill="#FFFFFF" cx="10.5" cy="10.5" r="7.5"></circle>
            <path d="M10.0043491,19.9867524 C4.49120419,19.9867524 0.0219685619,15.5175167 0.0219685619,10.0043719 C0.0219685619,4.491227 4.49118138,0.0219913712 10.0043491,0.0219913712 C15.5175167,0.0219913712 19.9867295,4.491227 19.9867295,10.0043719 C19.9867295,15.5175167 15.5174939,19.9867524 10.0043491,19.9867524 Z M14.6386598,5.33287068 L14.6385457,5.33287068 C14.1713614,4.86568633 13.413841,4.86568633 12.9466567,5.33287068 L9.98162412,8.29788045 L7.05416983,5.37028925 C6.58874234,4.90486176 5.83418807,4.90486176 5.36876056,5.37028925 L5.36864647,5.37028925 C4.90333304,5.83585365 4.90333304,6.59038511 5.36864647,7.0558126 L8.29610076,9.98326689 L5.33271097,12.9468164 C4.86541255,13.4140007 4.86541255,14.171293 5.33271097,14.6384545 L5.33282506,14.6384545 C5.79987251,15.1057529 6.5574157,15.1057529 7.02471414,14.6384545 L9.98798986,11.6753157 L12.9528855,14.6403254 C13.4184271,15.1052509 14.1729814,15.1052509 14.6382948,14.6403254 L14.6382948,14.6398234 C15.1037223,14.1743959 15.1037223,13.4202295 14.6382948,12.9548021 L11.6733991,9.9897695 L14.6386598,7.02462285 C15.1058442,6.55732444 15.1058442,5.80003222 14.6386598,5.33287068 Z" id="Shape" fill="#F85853" fill-rule="nonzero"></path>
        </g>
    </g>
</svg>