<?xml version="1.0" encoding="UTF-8"?>
<svg width="20px" height="20px" viewBox="0 0 20 20" version="1.1" xmlns="http://www.w3.org/2000/svg" xmlns:xlink="http://www.w3.org/1999/xlink">
    <!-- Generator: Sketch 43.1 (39012) - http://www.bohemiancoding.com/sketch -->
    <title>Shape</title>
    <desc>Created with Sketch.</desc>
    <defs></defs>
    <g id="3.护理人员档案" stroke="none" stroke-width="1" fill="none" fill-rule="evenodd">
        <g id="3.1.1.2档案管理2" transform="translate(-252.000000, -150.000000)" fill="#F85853">
            <g id="Group" transform="translate(44.000000, 144.000000)">
                <path d="M218,26 C212.476562,26 208,21.5234375 208,16 C208,10.4765625 212.476562,6 218,6 C223.523438,6 228,10.4765625 228,16 C228,21.5234375 223.523438,26 218,26 L218,26 Z M224.076172,9.92382812 C223.287109,9.13476562 222.367188,8.51367188 221.34375,8.08203125 C220.285156,7.6328125 219.160156,7.40625 218,7.40625 C216.839844,7.40625 215.714844,7.6328125 214.65625,8.08007812 C213.632812,8.51367188 212.714844,9.1328125 211.923828,9.921875 C211.134766,10.7109375 210.513672,11.6308594 210.082031,12.6542969 C209.632812,13.7148438 209.40625,14.8398438 209.40625,16 C209.40625,17.1601562 209.632812,18.2851562 210.080078,19.34375 C210.513672,20.3671875 211.132812,21.2851562 211.921875,22.0761719 C212.710938,22.8652344 213.630859,23.4863281 214.654297,23.9179688 C215.714844,24.3671875 216.839844,24.59375 218,24.59375 C219.160156,24.59375 220.285156,24.3671875 221.34375,23.9199219 C222.367188,23.4863281 223.285156,22.8671875 224.076172,22.078125 C224.865234,21.2890625 225.486328,20.3691406 225.917969,19.3457031 C226.367188,18.2851562 226.59375,17.1601562 226.59375,16 C226.59375,14.8398438 226.367188,13.7148438 225.919922,12.65625 C225.486328,11.6328125 224.867188,10.7128906 224.076172,9.92382812 L224.076172,9.92382812 Z M223.556641,15.296875 L212.443359,15.296875 C212.054688,15.296875 211.740234,15.6113281 211.740234,16 L211.740234,16 C211.740234,16.3886719 212.054688,16.703125 212.443359,16.703125 L223.556641,16.703125 C223.945312,16.703125 224.259766,16.3886719 224.259766,16 L224.259766,16 C224.259766,15.6113281 223.945312,15.296875 223.556641,15.296875 L223.556641,15.296875 Z" id="Shape" transform="translate(218.000000, 16.000000) scale(1, -1) translate(-218.000000, -16.000000) "></path>
            </g>
        </g>
    </g>
</svg>