<?xml version="1.0" encoding="UTF-8"?>
<svg width="24px" height="24px" viewBox="0 0 24 24" version="1.1" xmlns="http://www.w3.org/2000/svg" xmlns:xlink="http://www.w3.org/1999/xlink">
    <!-- Generator: Sketch 43.1 (39012) - http://www.bohemiancoding.com/sketch -->
    <title>档案详情</title>
    <desc>Created with Sketch.</desc>
    <defs></defs>
    <g id="3.护理人员档案" stroke="none" stroke-width="1" fill="none" fill-rule="evenodd">
        <g id="3.1.5.1查看档案（加了子女信息）" transform="translate(-220.000000, -70.000000)">
            <g id="档案详情" transform="translate(220.000000, 70.000000)">
                <g>
                    <ellipse id="Oval" fill="#03A9F4" cx="12" cy="12" rx="12" ry="12"></ellipse>
                    <g id="档案" transform="translate(7.000000, 6.000000)" fill-rule="nonzero" fill="#FFFFFF">
                        <path d="M9.31548938,10.8358605 L1.65685135,10.8358605 C0.752029216,10.8358605 0.0157146333,10.2290765 0.0157146333,9.4834605 L0.0157146333,1.36904637 C0.0157146333,0.62341598 0.752046734,0.0166464191 1.65685135,0.0166464191 L9.31548938,0.0166464191 C10.2203115,0.0166464191 10.9566261,0.623430415 10.9566261,1.36904637 L10.9566261,9.4834605 C10.9566261,10.2290909 10.2203115,10.8358605 9.31548938,10.8358605 Z M1.65683385,1.09856608 C1.35540737,1.09856608 1.10978827,1.34145272 1.10978827,1.63952592 L1.10978827,11.3768203 C1.10978827,11.6754301 1.35540735,11.9177801 1.65683385,11.9177801 L9.31547187,11.9177801 C9.61744103,11.9177801 9.86251745,11.6754301 9.86251745,11.3768203 L9.86251744,1.63952592 C9.86251744,1.34145273 9.61744102,1.09856608 9.31547186,1.09856608 L1.65683385,1.09856608 Z M7.1391248,4.3485661 L2.76276021,4.3485661 C2.46079105,4.3485661 2.21571463,4.10621609 2.21571463,3.80760626 C2.21571463,3.50899643 2.46079105,3.26664642 2.76276021,3.26664642 L7.1391248,3.26664642 C7.44163662,3.26664642 7.68617038,3.50899643 7.68617038,3.80760626 C7.68617038,4.10621609 7.44163664,4.3485661 7.1391248,4.3485661 Z M7.1391248,6.51523277 L2.76276021,6.51523277 C2.46079105,6.51523277 2.21571463,6.27288276 2.21571463,5.97427293 C2.21571463,5.6756631 2.46079105,5.43331309 2.76276021,5.43331309 L7.1391248,5.43331309 C7.44163662,5.43331309 7.68617038,5.6756631 7.68617038,5.97427293 C7.68617038,6.27288276 7.44163664,6.51523277 7.1391248,6.51523277 Z M8.22139824,8.67060744 L2.75094251,8.67060744 C2.44897335,8.67060744 2.20389693,8.42879407 2.20389693,8.1296476 C2.20389693,7.83050114 2.44897335,7.58868776 2.75094251,7.58868776 L8.22139824,7.58868776 C8.52391005,7.58868776 8.76844381,7.83050113 8.76844381,8.1296476 C8.7684438,8.42879405 8.52391005,8.67060744 8.22139824,8.67060744 Z" id="Shape"></path>
                    </g>
                </g>
            </g>
        </g>
    </g>
</svg>