<?xml version="1.0" encoding="UTF-8"?>
<svg width="16px" height="16px" viewBox="0 0 16 16" version="1.1" xmlns="http://www.w3.org/2000/svg" xmlns:xlink="http://www.w3.org/1999/xlink">
    <!-- Generator: Sketch 42 (36781) - http://www.bohemiancoding.com/sketch -->
    <title>Shape</title>
    <desc>Created with Sketch.</desc>
    <defs></defs>
    <g id="03-图标" stroke="none" stroke-width="1" fill="none" fill-rule="evenodd">
        <g id="图标" transform="translate(-668.000000, -706.000000)" fill-rule="nonzero" fill="#BCBCBC">
            <path d="M675.991081,706 C671.577721,706 668,709.582857 668,714 C668,718.418286 671.577721,722 675.991081,722 C680.405583,722 683.982163,718.418286 683.982163,714 C683.983304,709.582857 680.405583,706 675.991081,706 Z M672.475006,711.986286 C672.475006,711.986286 672.213583,708.414857 675.975099,708.414857 C679.736615,708.414857 679.508299,711.952 679.508299,711.952 C679.508299,711.952 679.539122,713.066286 678.265115,714.048 C676.989967,715.030857 676.727402,714.963429 676.727402,716.438857 L674.993338,716.438857 C674.993338,716.438857 674.456794,714.283429 676.954577,713.034286 C677.479706,712.771429 677.6772,712.476571 677.6772,711.494857 C677.6772,710.513143 677.053895,709.921143 676.138346,709.921143 C675.222796,709.921143 674.27414,710.085714 674.27414,711.952 L672.475006,711.986286 Z M674.961373,717.814857 L676.727402,717.814857 L676.727402,719.584 L674.961373,719.584 L674.961373,717.814857 Z" id="Shape"></path>
        </g>
    </g>
</svg>