<?xml version="1.0" encoding="UTF-8"?>
<svg width="12px" height="13px" viewBox="0 0 12 13" version="1.1" xmlns="http://www.w3.org/2000/svg" xmlns:xlink="http://www.w3.org/1999/xlink">
    <!-- Generator: Sketch 43.1 (39012) - http://www.bohemiancoding.com/sketch -->
    <title>Shape</title>
    <desc>Created with Sketch.</desc>
    <defs></defs>
    <g id="2.1-2.4科室排班" stroke="none" stroke-width="1" fill="none" fill-rule="evenodd">
        <g id="2.2.4编辑排班-显示设置（加左右移）" transform="translate(-677.000000, -465.000000)" fill-rule="nonzero" fill="#03A9F4">
            <path d="M689.499749,476.469491 C689.495331,476.579684 689.446534,476.68401 689.36351,476.760763 L688.718538,477.375921 C688.639547,477.454509 688.530569,477.499266 688.416422,477.5 C688.299013,477.495347 688.191635,477.446472 688.113804,477.37005 L682.999875,472.493102 L677.879836,477.375942 C677.801457,477.45069 677.684732,477.499978 677.580524,477.499978 C677.476315,477.499978 677.358747,477.449886 677.281211,477.375942 L676.630061,476.754958 C676.551683,476.680211 676.5,476.568894 676.5,476.469513 C676.5,476.370132 676.552526,476.25801 676.630061,476.184067 L682.700585,470.394776 C682.778964,470.320028 682.895689,470.27074 682.999897,470.27074 C683.104106,470.27074 683.221674,470.320833 683.299209,470.394776 L689.369733,476.184067 C689.451273,476.261879 689.497973,476.366828 689.5,476.476818 L689.499749,476.469491 Z M689.499749,471.698751 C689.495331,471.808944 689.446534,471.91327 689.36351,471.990023 L688.718538,472.60518 C688.639547,472.683769 688.530569,472.728526 688.416422,472.72926 C688.299013,472.724607 688.191635,472.675732 688.113804,472.59931 L682.999875,467.722362 L677.879836,472.605202 C677.801457,472.67995 677.684732,472.729238 677.580524,472.729238 C677.476315,472.729238 677.358747,472.679145 677.281211,472.605202 L676.630061,471.984218 C676.551683,471.909471 676.5,471.798154 676.5,471.698773 C676.5,471.599392 676.552526,471.48727 676.630061,471.413327 L682.700585,465.624036 C682.778964,465.549288 682.895689,465.5 682.999897,465.5 C683.104106,465.5 683.221674,465.550093 683.299209,465.624036 L689.369733,471.413327 C689.451273,471.491138 689.497973,471.596088 689.5,471.706078 L689.499749,471.698751 Z" id="Shape" transform="translate(683.000000, 471.500000) rotate(270.000000) translate(-683.000000, -471.500000) "></path>
        </g>
    </g>
</svg>