<?xml version="1.0" encoding="UTF-8"?>
<svg width="198px" height="154px" viewBox="0 0 198 154" version="1.1" xmlns="http://www.w3.org/2000/svg" xmlns:xlink="http://www.w3.org/1999/xlink">
    <!-- Generator: Sketch 45.2 (43514) - http://www.bohemiancoding.com/sketch -->
    <title>页面无内容</title>
    <desc>Created with Sketch.</desc>
    <defs>
        <circle id="path-1" cx="74.5" cy="74.5" r="74.5"></circle>
    </defs>
    <g id="09-空状态页面" stroke="none" stroke-width="1" fill="none" fill-rule="evenodd">
        <rect id="页面无内容-copy" x="0" y="0" width="198" height="154"></rect>
        <g id="页面无内容-copy-3" transform="translate(2.000000, 2.000000)">
            <g id="Oval-2" transform="translate(23.000000, 0.000000)">
                <mask id="mask-2" fill="white">
                    <use xlink:href="#path-1"></use>
                </mask>
                <use id="Mask" fill="#F4F6F7" xlink:href="#path-1"></use>
                <rect id="Rectangle-4" fill="#90A4AD" opacity="0.600000024" mask="url(#mask-2)" x="-3.04081633" y="101.360544" width="152.040816" height="47.6394558"></rect>
            </g>
            <g id="Group-12" transform="translate(138.153908, 43.916699) scale(-1, 1) translate(-138.153908, -43.916699) translate(129.153908, 27.416699)" stroke="#90A4AD" stroke-width="7" stroke-linecap="round" stroke-linejoin="round">
                <path d="M9.5,0.408650946 L9.5,32.5662441" id="Path-5"></path>
                <polyline id="Path-6" points="0.117141546 5.72345756 0.117141546 12.8764026 6.71326319 17.7674073"></polyline>
                <polyline id="Path-7" points="17.8503306 3.0085609 17.8503306 8.69919973 12.4404253 11.7578389"></polyline>
            </g>
            <g id="Group-6" transform="translate(0.418508, 34.169421)">
                <rect id="Rectangle-3" fill="#90A4AD" opacity="0.5" x="46.518518" y="72.7272727" width="102.90297" height="7.9338843" rx="3.96694215"></rect>
                <g id="Group-5">
                    <g id="Group-8-Copy-2">
                        <path d="M150.73335,29.4143403 C146.377027,31.6852031 145.445859,39.89144 155.595101,33.9039454" id="Path-6-Copy-4" stroke="#B8C5CA" stroke-width="3.7866266" fill="#FFFFFF" stroke-linecap="round" stroke-linejoin="round" transform="translate(151.608686, 32.731960) scale(-1, 1) rotate(-251.000000) translate(-151.608686, -32.731960) "></path>
                        <path d="M69.0714658,9.60157979 C60.5493041,6.00963134 31.4949764,0.611050073 11.048192,22.1222381 C-3.46196728,38.0186804 -2.56866515,57.2277499 7.29642449,65.2964431 C17.1615141,73.3651363 28.8392142,68.5272781 32.6828494,65.625317 C53.3528147,53.4124707 36.6593244,14.9013211 69.0714658,9.60157979 Z" id="Path-25" stroke="#B8C5CA" stroke-width="3.7866266" fill="#F4F6F7" stroke-linecap="round" stroke-linejoin="round"></path>
                        <path d="M155.395576,56.0451479 C157.962409,27.9965162 134.793486,17.6958528 121.009398,20.1779662 C94.4090059,-16.7427571 49.2673406,2.34915929 46.2780817,37.0942757 C43.0552161,65.1402502 59.8563253,75.987715 93.0299527,74.2245118 C109.740951,74.2245118 150.907631,79.7732941 155.395576,56.0451479 Z" id="Path-22" stroke="#B8C5CA" stroke-width="3.7866266" fill="#F4F6F7" stroke-linecap="round" stroke-linejoin="round"></path>
                        <path d="M96.290412,55.7752066 C89.3315952,59.4026971 87.8441408,72.5113915 104.056604,62.94693" id="Path-6" stroke="#B8C5CA" stroke-width="3.7866266" stroke-linecap="round" stroke-linejoin="round"></path>
                        <path d="M137.579725,28.9228461 C133.223402,31.1937088 132.292234,39.3999458 142.441476,33.4124512" id="Path-6-Copy-3" stroke="#B8C5CA" stroke-width="3.7866266" fill="#FFFFFF" stroke-linecap="round" stroke-linejoin="round" transform="translate(138.455061, 32.240466) rotate(-240.000000) translate(-138.455061, -32.240466) "></path>
                        <path d="M60.9696573,51.5702479 C54.0108405,55.1977384 52.5233861,68.3064328 68.7358491,58.7419713" id="Path-6-Copy-2" stroke="#B8C5CA" stroke-width="3.7866266" stroke-linecap="round" stroke-linejoin="round"></path>
                        <path d="M155.805301,58.6315132 C157.759138,58.6315132 159.343036,57.3324137 159.343036,55.7298932 C159.343036,54.1273728 157.981873,53.6852322 156.028036,53.6852322 C154.074198,53.6852322 152.267565,54.1273728 152.267565,55.7298932 C152.267565,57.3324137 153.851463,58.6315132 155.805301,58.6315132 Z" id="Oval-3" fill="#B8C5CA" transform="translate(155.805301, 56.158373) rotate(-17.000000) translate(-155.805301, -56.158373) "></path>
                    </g>
                    <ellipse id="Oval" fill="#B8C5CA" transform="translate(144.490177, 44.597135) rotate(5.000000) translate(-144.490177, -44.597135) " cx="144.490177" cy="44.5971346" rx="4.76899628" ry="1.13412782"></ellipse>
                </g>
            </g>
        </g>
    </g>
</svg>