<?xml version="1.0" encoding="UTF-8"?>
<svg width="16px" height="16px" viewBox="0 0 16 16" version="1.1" xmlns="http://www.w3.org/2000/svg" xmlns:xlink="http://www.w3.org/1999/xlink">
    <!-- Generator: Sketch 42 (36781) - http://www.bohemiancoding.com/sketch -->
    <title>普通提示</title>
    <desc>Created with Sketch.</desc>
    <defs></defs>
    <g id="Symbols" stroke="none" stroke-width="1" fill="none" fill-rule="evenodd">
        <g id="普通提示" fill="#03A9F4" fill-rule="nonzero">
            <path d="M7.97959821,0 C3.57258786,0 0,3.57691425 0,7.9899748 C0,12.402354 3.57260912,15.9799496 7.97959821,15.9799496 C12.3865873,15.9799496 15.9591964,12.402354 15.9591964,7.9899748 C15.9591964,3.57691425 12.3866086,0 7.97959821,0 Z M7.97959821,12.2680494 C7.46563803,12.2680494 7.04921353,11.8514028 7.04921353,11.3382859 C7.04921353,10.8250839 7.46563803,10.4091824 7.97959821,10.4091824 C8.4935584,10.4091824 8.91032312,10.8250839 8.91032312,11.3382859 C8.91032312,11.8514028 8.4935584,12.2680494 7.97959821,12.2680494 Z M8.91032312,8.24044396 C8.91032312,8.75360341 8.49353714,9.16984551 7.97959821,9.16984551 C7.46565928,9.16984551 7.04921353,8.75358213 7.04921353,8.24044396 L7.04921353,3.90279669 C7.04921353,3.38963724 7.46563803,2.9737145 7.97959821,2.9737145 C8.4935584,2.9737145 8.91032312,3.38963724 8.91032312,3.90279669 L8.91032312,8.24044396 Z"></path>
        </g>
    </g>
</svg>