<?xml version="1.0" encoding="UTF-8"?>
<svg width="15px" height="16px" viewBox="0 0 15 16" version="1.1" xmlns="http://www.w3.org/2000/svg" xmlns:xlink="http://www.w3.org/1999/xlink">
    <!-- Generator: Sketch 42 (36781) - http://www.bohemiancoding.com/sketch -->
    <title>Group</title>
    <desc>Created with Sketch.</desc>
    <defs></defs>
    <g id="Symbols" stroke="none" stroke-width="1" fill="none" fill-rule="evenodd">
        <g id="打印" fill-rule="nonzero" fill="#03A9F4">
            <g id="Group">
                <path d="M12.1526259,3.56715814 L11.7708386,3.56715814 L11.7708386,1.52580964 C11.7708386,0.782592181 11.1662304,0.177784206 10.4233296,0.177784206 L4.00934412,0.177784206 C3.26641138,0.177784206 2.66205825,0.782592181 2.66205825,1.52580964 L2.66205825,3.56715814 L1.92529417,3.56715814 C0.885197897,3.56715814 0.0390875803,4.41359272 0.0390875803,5.45431083 L0.0390875803,9.70121761 C0.0390875803,10.7417125 0.868987238,11.5881471 1.88949364,11.5881471 L2.66185104,11.5881471 L2.66185104,13.8299661 C2.66185104,14.5731835 3.26601289,15.1777842 4.00915285,15.1777842 L10.4231064,15.1777842 C11.1660392,15.1777842 11.7706155,14.5731835 11.7706155,13.8299661 L11.7706155,11.5881471 L12.3658351,11.5881471 C13.2884719,11.5881471 14.0390876,10.7417125 14.0390876,9.70121761 L14.0390876,5.45432678 C14.0392629,4.41381596 13.1929454,3.56715814 12.1526259,3.56715814 Z M3.73988376,1.52580964 C3.73988376,1.37971428 3.86332067,1.25624601 4.00934412,1.25624601 L10.4233296,1.25624601 C10.5693371,1.25624601 10.6929972,1.37973023 10.6929972,1.52580964 L10.6929972,3.56715814 L3.73988376,3.56715814 L3.73988376,1.52580964 Z M10.6929812,13.8299661 C10.6929812,13.9760614 10.5693212,14.0995297 10.4233136,14.0995297 L4.00934412,14.0995297 C3.86332067,14.0995297 3.73988376,13.9760614 3.73988376,13.8299661 L3.73988376,8.82386415 C3.73988376,8.67778474 3.86332067,8.55430052 4.00934412,8.55430052 L10.4233296,8.55430052 C10.5693371,8.55430052 10.6929972,8.67778474 10.6929972,8.82386415 L10.6929972,13.8299661 L10.6929812,13.8299661 Z M12.9612142,9.70101032 C12.9612142,10.1392645 12.6885819,10.5099244 12.3658033,10.5099244 L11.7708227,10.5099244 L11.7708227,8.82386415 C11.7708227,8.08043939 11.1662145,7.47583871 10.4233136,7.47583871 L4.00934412,7.47583871 C3.26641138,7.47583871 2.66205825,8.08043939 2.66205825,8.82386415 L2.66205825,10.5099085 L1.88949364,10.5099085 C1.4635534,10.5099085 1.11713624,10.1469344 1.11713624,9.70099437 L1.11713624,5.45431083 C1.11713624,5.00816349 1.4795409,4.64561995 1.92551733,4.64561995 L12.1526259,4.64561995 C12.5986024,4.64561995 12.9612302,5.00816349 12.9612302,5.45431083 L12.9612302,9.70101032 L12.9612142,9.70101032 L12.9612142,9.70101032 Z" id="Shape"></path>
                <path d="M9.41732315,10.8601783 L4.8021527,10.8601783 C4.55554315,10.8601783 4.35554757,10.6645796 4.35554757,10.4230796 C4.35554757,10.1821815 4.55554315,9.9866051 4.8021527,9.9866051 L9.41732315,9.9866051 C9.6639555,9.9866051 9.86395108,10.1821815 9.86395108,10.4230796 C9.86395108,10.6645573 9.6639555,10.8601783 9.41732315,10.8601783 Z M9.41732315,12.9538025 L4.8021527,12.9538025 C4.55554315,12.9538025 4.35554757,12.7582038 4.35554757,12.5167038 C4.35554757,12.2757834 4.55554315,12.0802293 4.8021527,12.0802293 L9.41732315,12.0802293 C9.6639555,12.0802293 9.86395108,12.2757834 9.86395108,12.5167038 C9.86395108,12.7581815 9.6639555,12.9538025 9.41732315,12.9538025 Z" id="Shape"></path>
            </g>
        </g>
    </g>
</svg>