<?xml version="1.0" encoding="UTF-8"?>
<svg width="16px" height="16px" viewBox="0 0 16 16" version="1.1" xmlns="http://www.w3.org/2000/svg" xmlns:xlink="http://www.w3.org/1999/xlink">
    <!-- Generator: Sketch 45.2 (43514) - http://www.bohemiancoding.com/sketch -->
    <title>Group 11</title>
    <desc>Created with Sketch.</desc>
    <defs></defs>
    <g id="__wesketch_export" stroke="none" stroke-width="1" fill="none" fill-rule="evenodd">
        <g id="Group-11" fill-rule="nonzero" fill="#03A9F4">
            <g transform="translate(0.500000, 1.500000)" id="Shape">
                <path d="M1.40709066,12.1333333 C1.21946075,12.1333333 1.03186426,11.9975306 0.938049305,11.8164173 C0.844234352,11.6353363 0.891141829,11.4089769 1.03186426,11.2731097 C1.36018318,10.9562259 1.68850212,10.4581966 1.92300609,10.0507561 C0.703545338,8.91892703 -8.8817842e-16,7.5154602 -8.8817842e-16,5.97612614 C0.0469074768,2.71640925 3.18937431,0 7.08226055,0 C10.9752136,0 14.117647,2.67113092 14.1176471,5.97612614 C14.1176471,9.28112135 10.9751802,11.9522523 7.08226055,11.9522523 C6.28493367,11.9522523 5.4876068,11.8164173 4.69024653,11.5900579 C3.84601218,11.8164173 2.39204744,12.1333333 1.40709066,12.1333333 L1.40709066,12.1333333 Z M7.08226055,0.996058654 C3.7521972,0.996058654 1.07873832,3.21447082 1.07873832,5.97615839 C1.07873832,7.33437913 1.73537618,8.60204324 2.95483693,9.55275906 C3.14246684,9.68859404 3.18937431,9.96019949 3.09555936,10.1865911 C2.95483693,10.4129827 2.76724044,10.7298988 2.57964393,11.0015365 C3.3769708,10.8657015 4.22123857,10.6846204 4.59646497,10.5940638 C4.69027992,10.5487855 4.78406146,10.5940638 4.87787643,10.5940638 C5.58142177,10.8204232 6.33187457,10.9562259 7.08229397,10.9562259 C10.4123907,10.9562259 13.0858162,8.73781373 13.0858162,5.97612614 C13.0858162,3.21443855 10.4123573,0.996058635 7.08226055,0.996058654 L7.08226055,0.996058654 Z"></path>
                <path d="M3.84330162,6.6276274 C3.61935764,6.62853968 3.40431278,6.5430922 3.24595907,6.39027499 C3.08760536,6.23745777 2.99906215,6.02993149 3.00000749,5.81381724 C3.00000749,5.36169691 3.37480116,5.00000708 3.84330162,5.0000071 C4.31180207,5.00000711 4.68659574,5.36169691 4.68659572,5.81381724 C4.68656234,6.26593756 4.35862205,6.6276274 3.84330162,6.6276274 Z M7.1226712,6.6276274 C6.898733,6.62853107 6.68369675,6.54307979 6.52535028,6.39026351 C6.36700381,6.23744723 6.27846517,6.02992589 6.27941045,5.81381724 C6.27847417,5.59771122 6.36701569,5.39019493 6.5253602,5.23738054 C6.68370472,5.08456616 6.89873573,4.99911209 7.1226712,5.0000071 C7.34661244,4.99910348 7.56165206,5.08455374 7.72000382,5.23736907 C7.87835558,5.39018439 7.96690167,5.59770562 7.96596532,5.81381724 C7.96691066,6.02993149 7.87836746,6.23745777 7.72001375,6.39027499 C7.56166003,6.5430922 7.34661517,6.62853968 7.1226712,6.6276274 L7.1226712,6.6276274 Z M10.4020742,6.6276274 C10.178136,6.62853107 9.96309973,6.54307979 9.80475326,6.39026351 C9.64640678,6.23744723 9.55786815,6.02992589 9.55881343,5.81381724 C9.55786816,5.59770859 9.64640679,5.39018725 9.80475326,5.23737097 C9.96309973,5.0845547 10.178136,4.99910342 10.4020742,5.0000071 C10.6260154,4.99910349 10.841055,5.08455375 10.9994068,5.23736908 C11.1577585,5.3901844 11.2463046,5.59770562 11.2453683,5.81381724 C11.2463046,6.02992885 11.1577585,6.23745008 10.9994068,6.39026541 C10.841055,6.54308074 10.6260154,6.62853101 10.4020742,6.6276274 L10.4020742,6.6276274 Z"></path>
            </g>
        </g>
    </g>
</svg>