<?xml version="1.0" encoding="UTF-8"?>
<svg width="32px" height="32px" viewBox="0 0 32 32" version="1.1" xmlns="http://www.w3.org/2000/svg" xmlns:xlink="http://www.w3.org/1999/xlink">
    <!-- Generator: Sketch 43.1 (39012) - http://www.bohemiancoding.com/sketch -->
    <title>Shape</title>
    <desc>Created with Sketch.</desc>
    <defs></defs>
    <g id="__wesketch_export" stroke="none" stroke-width="1" fill="none" fill-rule="evenodd">
        <g id="Shape" fill="#FFFFFF" fill-rule="nonzero">
            <path d="M23.5,17.9047676 C23.5,14.3295189 20.8639775,11.6276134 17.3649156,11.6276134 L11.0515947,11.6276134 L13.5375235,9.24411421 C13.8283302,8.96209713 13.8377111,8.49813356 13.5469043,8.21611648 C13.2560976,7.93409941 12.7776735,7.92500208 12.4868668,8.20701916 L8.72514071,11.8095599 C8.5750469,11.9551171 8.5,12.1370636 8.5,12.3281074 C8.5,12.5100539 8.5750469,12.7010977 8.71575985,12.8375576 L12.4399625,16.4582929 C12.7307692,16.74031 13.2091932,16.74031 13.5,16.4582929 C13.7908068,16.1762759 13.7908068,15.7123123 13.5,15.4302952 L11.0797373,13.074088 L17.3461538,13.074088 C19.9915572,13.074088 21.9803002,15.1482781 21.9803002,17.8956703 L21.9803002,18.0412275 C21.9803002,20.6885491 20.075985,22.5444034 17.3461538,22.5444034 L11.4924953,22.5444034 C11.0797373,22.5444034 10.7420263,22.8719071 10.7420263,23.2721894 C10.7420263,23.6724717 11.0797373,23.9999754 11.4924953,23.9999754 L17.3649156,23.9999754 C20.9202627,24.0090727 23.5,21.498211 23.5,18.0503248 L23.5,17.9047676 Z"></path>
        </g>
    </g>
</svg>