<?xml version="1.0" encoding="UTF-8"?>
<svg width="16px" height="16px" viewBox="0 0 16 16" version="1.1" xmlns="http://www.w3.org/2000/svg" xmlns:xlink="http://www.w3.org/1999/xlink">
    <!-- Generator: Sketch 42 (36781) - http://www.bohemiancoding.com/sketch -->
    <title>共享</title>
    <desc>Created with Sketch.</desc>
    <defs>
        <rect id="path-1" x="0" y="0" width="16" height="16" rx="4"></rect>
        <mask id="mask-2" maskContentUnits="userSpaceOnUse" maskUnits="objectBoundingBox" x="0" y="0" width="16" height="16" fill="white">
            <use xlink:href="#path-1"></use>
        </mask>
    </defs>
    <g id="Symbols" stroke="none" stroke-width="1" fill="none" fill-rule="evenodd">
        <g id="共享">
            <use id="Rectangle-3" stroke="#999999" mask="url(#mask-2)" stroke-width="2" fill="#FFFFFF" xlink:href="#path-1"></use>
            <path d="M10.5192061,10.0232349 C10.1116906,10.0232349 9.74273791,10.1895019 9.47592468,10.4581688 L6.75547196,8.56430104 C6.86574087,8.35715925 6.92827522,8.12106445 6.92827522,7.86964158 C6.92827522,7.6748474 6.89054616,7.48899459 6.82217527,7.31868274 L9.43986321,5.49613306 C9.69750473,5.77885073 10.0674996,5.95512349 10.4946093,5.95512349 C11.3223556,5.95512349 11.9935577,5.28026279 11.9935577,4.44807651 C11.9935577,3.61546445 11.3352794,3 10.5240004,3 C9.71272142,3 9.05444316,3.66144865 9.05444316,4.4774553 C9.05444316,4.56346279 9.06153038,4.64776715 9.0746626,4.72994262 L6.24727613,6.62551351 C6.02069333,6.48117422 5.75221252,6.39750852 5.46392916,6.39750852 C4.65536,6.39750852 4,7.05661538 4,7.86964158 C4,8.68288067 4.65536,9.34198753 5.46392916,9.34198753 C5.68884438,9.34198753 5.90187807,9.29089397 6.09239939,9.19999002 L9.07591328,11.2003027 C9.05527695,11.2988707 9.04485455,11.4010578 9.04485455,11.5060125 C9.04485455,12.3247867 9.70480041,12.98879 10.5189977,12.98879 C11.3331949,12.98879 11.9933492,12.3249996 11.9933492,11.5060125 C11.9935577,10.6870254 11.3334034,10.0232349 10.5192061,10.0232349 L10.5192061,10.0232349 Z" id="Shape" fill="#999999" fill-rule="nonzero"></path>
        </g>
    </g>
</svg>