<?xml version="1.0" encoding="UTF-8"?>
<svg width="10px" height="11px" viewBox="0 0 10 11" version="1.1" xmlns="http://www.w3.org/2000/svg" xmlns:xlink="http://www.w3.org/1999/xlink">
    <!-- Generator: Sketch 43.1 (39012) - http://www.bohemiancoding.com/sketch -->
    <title>※</title>
    <desc>Created with Sketch.</desc>
    <defs></defs>
    <g id="2.1-2.4科室排班" stroke="none" stroke-width="1" fill="none" fill-rule="evenodd">
        <g id="2.2.3编辑排班-班次备注" transform="translate(-733.000000, -379.000000)" fill="#F85853">
            <path d="M742.654297,380.28125 L738.464844,384.464844 L742.654297,388.648438 L742.132812,389.169922 L737.949219,384.980469 L733.765625,389.158203 L733.244141,388.636719 L737.433594,384.464844 L733.244141,380.292969 L733.765625,379.771484 L737.949219,383.949219 L742.132812,379.759766 L742.654297,380.28125 Z M737.949219,380.568359 C738.152345,380.568359 738.330077,380.64453 738.482422,380.796875 C738.634766,380.94922 738.710938,381.126952 738.710938,381.330078 C738.710938,381.533204 738.634766,381.710937 738.482422,381.863281 C738.330077,382.015626 738.152345,382.091797 737.949219,382.091797 C737.746093,382.091797 737.56836,382.015626 737.416016,381.863281 C737.263671,381.710937 737.1875,381.533204 737.1875,381.330078 C737.1875,381.126952 737.263671,380.94922 737.416016,380.796875 C737.56836,380.64453 737.746093,380.568359 737.949219,380.568359 Z M741.845703,384.464844 C741.845703,384.66797 741.769532,384.845702 741.617188,384.998047 C741.464843,385.150391 741.28711,385.226562 741.083984,385.226562 C740.880858,385.226562 740.703126,385.150391 740.550781,384.998047 C740.398437,384.845702 740.322266,384.66797 740.322266,384.464844 C740.322266,384.261718 740.398437,384.083985 740.550781,383.931641 C740.703126,383.779296 740.880858,383.703125 741.083984,383.703125 C741.28711,383.703125 741.464843,383.779296 741.617188,383.931641 C741.769532,384.083985 741.845703,384.261718 741.845703,384.464844 Z M735.582031,384.464844 C735.582031,384.66797 735.50586,384.845702 735.353516,384.998047 C735.201171,385.150391 735.023439,385.226562 734.820312,385.226562 C734.617186,385.226562 734.439454,385.150391 734.287109,384.998047 C734.134765,384.845702 734.058594,384.66797 734.058594,384.464844 C734.058594,384.261718 734.134765,384.083985 734.287109,383.931641 C734.439454,383.779296 734.617186,383.703125 734.820312,383.703125 C735.023439,383.703125 735.201171,383.779296 735.353516,383.931641 C735.50586,384.083985 735.582031,384.261718 735.582031,384.464844 Z M737.949219,386.832031 C738.152345,386.832031 738.330077,386.908202 738.482422,387.060547 C738.634766,387.212891 738.710938,387.390624 738.710938,387.59375 C738.710938,387.796876 738.634766,387.974609 738.482422,388.126953 C738.330077,388.279298 738.152345,388.355469 737.949219,388.355469 C737.746093,388.355469 737.56836,388.279298 737.416016,388.126953 C737.263671,387.974609 737.1875,387.796876 737.1875,387.59375 C737.1875,387.390624 737.263671,387.212891 737.416016,387.060547 C737.56836,386.908202 737.746093,386.832031 737.949219,386.832031 Z" id="※"></path>
        </g>
    </g>
</svg>