<?xml version="1.0" encoding="UTF-8"?>
<svg width="6px" height="9px" viewBox="0 0 6 9" version="1.1" xmlns="http://www.w3.org/2000/svg" xmlns:xlink="http://www.w3.org/1999/xlink">
    <!-- Generator: Sketch 43.1 (39012) - http://www.bohemiancoding.com/sketch -->
    <title>Shape</title>
    <desc>Created with Sketch.</desc>
    <defs></defs>
    <g id="2.1-2.4科室排班" stroke="none" stroke-width="1" fill="none" fill-rule="evenodd" fill-opacity="0.25">
        <g id="2.2.11编辑排班-设置床位" transform="translate(-838.000000, -520.000000)" fill="#000000">
            <path d="M845.5,526.986854 C845.5,526.874183 845.462467,526.760338 845.387401,526.665272 L841.388948,521.691306 C841.291597,521.57042 841.144983,521.5 840.988986,521.5 C840.834161,521.5 840.686375,521.57042 840.590196,521.691306 L836.612856,526.644146 C836.435746,526.864794 836.470934,527.18755 836.691441,527.364773 C836.911948,527.541995 837.234499,527.506785 837.411608,527.286137 L840.990159,522.830929 L844.588648,527.308437 C844.765758,527.529085 845.088308,527.564295 845.308816,527.387072 C845.434317,527.284964 845.5,527.137083 845.5,526.986854 L845.5,526.986854 Z" id="Shape" transform="translate(841.000000, 524.500000) scale(1, -1) rotate(90.000000) translate(-841.000000, -524.500000) "></path>
        </g>
    </g>
</svg>