<?xml version="1.0" encoding="UTF-8"?>
<!--切图中 add按钮 width:16px;height:16px, fontSize:14px-->
<!--取 svg line-height:1;-->
<!--则 height = line-height = (16/14) em-->


<svg height="1.143em"
     viewBox="0 0 16 16"
     version="1.1"
     xmlns="http://www.w3.org/2000/svg"
     xmlns:xlink="http://www.w3.org/1999/xlink">

    <path fill-rule="nonzero" fill="currentColor"
          d="M8,16 C3.58146173,16 0,12.4174058 0,8 C0,3.5803658 3.58147999,0 8,0 C12.41852,0 16,3.5803658 16,8 C16.0000183,12.4174241 12.4185383,16 8,16 Z M11.962054,7.65402029 C11.962054,7.31362974 11.6863771,7.03795283 11.3459866,7.03795283 L8.88504102,7.03795283 L8.88504102,4.57591138 C8.88504102,4.23661674 8.60936413,3.96095811 8.26897356,3.96095811 L7.65400203,3.96095811 C7.31361148,3.96095811 7.03904875,4.23661674 7.03904875,4.57591138 L7.03904875,7.03795285 L4.57702555,7.03795283 C4.23773091,7.03795283 3.96093983,7.31362972 3.96093983,7.65402029 L3.96093983,8.26785938 C3.96093983,8.60936411 4.23773091,8.88390856 4.57702555,8.88390856 L7.03906701,8.88390856 L7.03906701,11.3459683 C7.03906701,11.6852629 7.31362974,11.9598074 7.65402029,11.9598074 L8.26899182,11.9598074 C8.60938237,11.9598074 8.88505928,11.6852629 8.88505928,11.3459683 L8.88505928,8.88392684 L11.3459866,8.88392684 C11.6863954,8.88392684 11.962054,8.60938239 11.962054,8.26787766 L11.962054,7.65402029 Z">
    </path>
</svg>