<?xml version="1.0" encoding="UTF-8"?>
<svg height="0.929em"
     viewBox="0 0 12 12"
     version="1.1"
     xmlns="http://www.w3.org/2000/svg" xmlns:xlink="http://www.w3.org/1999/xlink">
    <!-- Generator: Sketch 45.2 (43514) - http://www.bohemiancoding.com/sketch -->
    <title>多选 copy</title>
    <desc>Created with Sketch.</desc>
    <defs></defs>
    <g id="3.护理人员档案" stroke="none" stroke-width="1" fill="none" fill-rule="evenodd">
        <g id="3.13.2-人员档案信息设置-基本-弹窗1" transform="translate(-769.000000, -131.000000)" fill-rule="nonzero" fill="currentColor">
            <g id="多选-copy" transform="translate(769.000000, 131.000000)">
                <polygon id="Shape" points="4.45958905 5.61993818 3.69230769 6.33296733 6.04910856 8.69012049 11.2573214 3.48225992 10.5446446 2.76923077 6.04910856 7.2094577"></polygon>
                <path d="M10.1784489,10.1784489 L2.88751459,10.1784489 L2.88751459,2.88786687 L8.09502287,2.88786687 L8.09502287,1.84615385 L2.88751459,1.84615385 C2.33935582,1.84615385 1.84615385,2.33935582 1.84615385,2.88786687 L1.84615385,10.1788012 C1.84615385,10.72696 2.33935582,11.220162 2.88751459,11.220162 L10.1784489,11.220162 C10.7266077,11.220162 11.2198097,10.72696 11.2198097,10.1788012 L11.2198097,6.01230139 L10.1784489,6.01230139 L10.1784489,10.1784489 Z" id="Shape"></path>
                <path d="M5.48158768,0 L1.04136075,0 C0.493201985,0 0,0.493554267 0,1.04171303 L0,5.48193996 L1.04136075,5.48193996 L1.04136075,1.04171303 L5.48158768,1.04171303 L5.48158768,0 Z" id="Shape"></path>
            </g>
        </g>
    </g>
</svg>
