<?xml version="1.0" encoding="UTF-8"?>
<!--切图中 clock 按钮 width:16px;height:16px, fontSize:14px-->
<!--取 svg line-height:1;-->
<!--则 height = line-height = (16/14) em-->


<svg height="1.143em"
     viewBox="0 0 16 16"
     version="1.1"
     fill="#FFF"
     xmlns="http://www.w3.org/2000/svg" xmlns:xlink="http://www.w3.org/1999/xlink">

    <path d="M7.99997233,16 C3.58173627,16 0,12.4182761 0,8 C0,3.58177923 3.58173627,0 7.99997233,0 C12.4183006,0 16,3.58176078 16,8 C16,12.4182761 12.4183006,16 7.99997233,16 Z"
          fill="currentColor">
    </path>
    <path d="M11.6881863,8.99243409 L7.44264842,8.99243409 C7.32064454,8.99243409 7.2117712,8.94056907 7.1334907,8.85887052 C7.05188405,8.78050187 7,8.67148655 7,8.54932592 L7,3.43062108 C7,3.19278535 7.1925685,3 7.43013669,3 L7.85719863,3 C8.09472814,3 8.28729664,3.19278535 8.28729664,3.43062108 L8.28729664,7.70370715 L11.6881863,7.70370715 C11.9257158,7.70370715 12.1182843,7.89649251 12.1182843,8.13432824 L12.1182843,8.56187109 C12.118265,8.79966809 11.9257158,8.99243409 11.6881863,8.99243409 Z">
    </path>
</svg>