<?xml version="1.0" encoding="UTF-8"?>
<svg width="20px" height="20px" viewBox="0 0 20 20" version="1.1" xmlns="http://www.w3.org/2000/svg" xmlns:xlink="http://www.w3.org/1999/xlink">
    <!-- Generator: Sketch 51.1 (57501) - http://www.bohemiancoding.com/sketch -->
    <title>钉钉控制台-数据汇总 copy</title>
    <desc>Created with Sketch.</desc>
    <defs></defs>
    <g id="钉钉控制台" stroke="none" stroke-width="1" fill="none" fill-rule="evenodd">
        <g id="钉钉控制台-数据汇总-copy" transform="translate(-15.000000, -96.000000)" fill-rule="nonzero">
            <g id="Group" transform="translate(15.000000, 96.000000)">
                <g id="数据表" transform="translate(1.000000, 1.000000)">
                    <rect id="Rectangle-path" fill="#000000" opacity="0" x="0" y="0" width="18" height="18"></rect>
                    <path d="M7,8 L8,8 L8,15 L7,15 L7,8 Z M10,10 L11,10 L11,15 L10,15 L10,10 Z M13,7 L14,7 L14,15 L13,15 L13,7 Z" id="Shape" fill="#777777"></path>
                    <path d="M1,1 L17,1 L17,17 L1,17 L1,1 Z M2,2 L2,16 L16,16 L16,2 L2,2 Z" id="Shape" fill="#777777"></path>
                    <path d="M4.00000001,11 L4.99999999,11 L4.99999999,15 L4.00000001,15 L4.00000001,11 Z M3.4,9.40000001 L2.6,8.59999999 L6.89999999,4.4 L9.9,6.4 L13.6,2.6 L14.4,3.4 L10.1,7.60000001 L7.1,5.6 L3.4,9.40000001 Z" id="Shape" fill="#777777"></path>
                </g>
            </g>
        </g>
    </g>
</svg>