<?xml version="1.0" encoding="UTF-8"?>
<svg width="12px" height="12px" viewBox="0 0 12 12" version="1.1" xmlns="http://www.w3.org/2000/svg" xmlns:xlink="http://www.w3.org/1999/xlink">
    <!-- Generator: Sketch 47.1 (45422) - http://www.bohemiancoding.com/sketch -->
    <title>Shape</title>
    <desc>Created with Sketch.</desc>
    <defs></defs>
    <g id="3.护理人员档案" stroke="none" stroke-width="1" fill="none" fill-rule="evenodd">
        <g id="3.13.2-人员档案信息设置-基本-添加选项(单多选-日期)" transform="translate(-248.000000, -328.000000)" fill-rule="nonzero" fill="currentColor">
            <g id="日期-(3)-copy-2" transform="translate(248.000000, 328.000000)">
                <path d="M8.66706231,4.66646884 L3.33293769,4.66646884 L3.33293769,6 L8.66706231,6 L8.66706231,4.66646884 Z M3.33293769,8.66706231 L8.66706231,8.66706231 L8.66706231,7.33353116 L3.33293769,7.33353116 L3.33293769,8.66706231 Z M9.33293769,0 L7.99940653,0 L7.99940653,2.66706231 L9.33293769,2.66706231 L9.33293769,1.012049e-15 L9.33293769,0 Z M10.6664688,1.33353116 L10.0005935,1.33353116 L10.0005935,2.66706231 L10.6664688,2.66706231 L10.6664688,10.6664688 L1.33353116,10.6664688 L1.33353116,2.66706231 L1.99940653,2.66706231 L1.99940653,1.33353116 L1.33353116,1.33353116 C0.6,1.33353116 0,1.93353116 0,2.66706231 L0,10.6664688 C0,11.4 0.6,12 1.33353116,12 L10.6664688,12 C11.4,12 12,11.4 12,10.6664688 L12,2.66706231 C12,1.93353116 11.4,1.33353116 10.6664688,1.33353116 Z M4.00059347,5.68434189e-14 L2.66706231,5.68434189e-14 L2.66706231,2.66706231 L4.00059347,2.66706231 L4.00059347,5.68434189e-14 L4.00059347,5.68434189e-14 Z M7.33353116,1.33353116 L4.66646884,1.33353116 L4.66646884,2.66706231 L7.33353116,2.66706231 L7.33353116,1.33353116 L7.33353116,1.33353116 Z" id="Shape"></path>
            </g>
        </g>
    </g>
</svg>
