<?xml version="1.0" encoding="UTF-8"?>
<svg width="14px" height="18px" viewBox="0 0 14 18" version="1.1" xmlns="http://www.w3.org/2000/svg" xmlns:xlink="http://www.w3.org/1999/xlink">
    <!-- Generator: Sketch 43.1 (39012) - http://www.bohemiancoding.com/sketch -->
    <title>Shape</title>
    <desc>Created with Sketch.</desc>
    <defs></defs>
    <g id="Symbols" stroke="none" stroke-width="1" fill="currentColor" fill-rule="evenodd">
        <g id="删除" transform="translate(-9.000000, -7.000000)" fill-rule="nonzero" fill="currentColor">
            <path d="M18.0804954,21.1428571 C17.6969853,21.1428571 17.3869969,20.855505 17.3869969,20.5 L17.3869969,13.4285714 C17.3869969,13.0730664 17.6969853,12.7857143 18.0804954,12.7857143 C18.4640054,12.7857143 18.7739938,13.0730664 18.7739938,13.4285714 L18.7739938,20.5 C18.7739938,20.855505 18.4640054,21.1428571 18.0804954,21.1428571 L18.0804954,21.1428571 Z M13.9195047,21.1428571 C13.5359946,21.1428571 13.2260062,20.855505 13.2260062,20.5 L13.2260062,13.4285714 C13.2260062,13.0730664 13.5359946,12.7857143 13.9195047,12.7857143 C14.3030147,12.7857143 14.6130031,13.0730664 14.6130031,13.4285714 L14.6130031,20.5 C14.6130031,20.855505 14.3030147,21.1428571 13.9195047,21.1428571 L13.9195047,21.1428571 Z M22.3065016,10.2142857 L20.7352941,10.2142857 L20.7352941,8.92857145 C20.7352941,7.86529578 19.8094737,7.00000002 18.6707546,7.00000002 L13.3452013,7 C12.1981657,7 11.2647059,7.86529576 11.2647059,8.92857143 L11.2647059,10.2142857 L9.69349846,10.2142857 C9.30998839,10.2142857 9,10.5016378 9,10.8571429 C9,11.2126479 9.30998839,11.5 9.69349846,11.5 L22.3065015,11.5 C22.6900116,11.5 23,11.2126479 23,10.8571429 C23,10.5016378 22.6900116,10.2142857 22.3065016,10.2142857 L22.3065016,10.2142857 Z M12.6517028,8.92857145 C12.6517028,8.57434713 12.9630728,8.2857143 13.3452013,8.2857143 L18.6707546,8.2857143 C19.0507972,8.2857143 19.3482972,8.56791854 19.3482972,8.92857145 L19.3482972,10.2142857 L12.6517028,10.2142857 L12.6517028,8.92857145 L12.6517028,8.92857145 Z M20.8572523,25 L11.1468924,25 C9.99985682,25 9.06639707,24.1347042 9.06639707,23.0714286 L9.06639707,13.4189286 C9.06639707,13.0640765 9.3770898,12.7760714 9.75989553,12.7760714 C10.1427013,12.7760714 10.453394,13.0640765 10.453394,13.4189286 L10.453394,23.0714286 C10.453394,23.4262807 10.7647911,23.7142857 11.1468925,23.7142857 L20.8572523,23.7142857 C21.2400852,23.7142857 21.5507508,23.4262807 21.5507508,23.0714286 L21.5507508,13.4452958 C21.5507508,13.0904185 21.8607663,12.8024386 22.2442492,12.8024386 C22.6277593,12.8024386 22.9377477,13.0904185 22.9377477,13.4452958 L22.9377477,23.0714286 C22.9377477,24.1347042 22.004315,25 20.8572523,25 L20.8572523,25 Z" id="Shape"></path>
        </g>
    </g>
</svg>