<?xml version="1.0" encoding="UTF-8"?>
<svg width="18px" height="15px" viewBox="0 0 22 18" version="1.1" xmlns="http://www.w3.org/2000/svg" xmlns:xlink="http://www.w3.org/1999/xlink">
    <!-- Generator: Sketch 45.2 (43514) - http://www.bohemiancoding.com/sketch -->
    <title>点点</title>
    <desc>Created with Sketch.</desc>
    <defs></defs>
    <g id="2.1-2.4科室排班" stroke="none" stroke-width="1" fill="none" fill-rule="evenodd">
        <g id="选择班次弹窗" transform="translate(-622.000000, -291.000000)" fill-rule="nonzero" fill="currentColor">
            <g id="点点" transform="translate(622.000000, 291.000000)">
                <path d="M7.79572116,2.98035473 L20.7923253,2.98035473 C21.2415205,2.98035473 21.6046131,2.53528842 21.6046131,1.98690315 C21.6046131,1.43851788 21.2415205,0.993451576 20.7923253,0.993451576 L7.79572116,0.993451576 C7.34733831,0.993451576 6.9834334,1.43851788 6.9834334,1.98690315 C6.9834334,2.53528842 7.34733831,2.98035473 7.79572116,2.98035473 Z M20.7923253,7.94761261 L7.79572116,7.94761261 C7.34733831,7.94761261 6.9834334,8.39267892 6.9834334,8.94106419 C6.9834334,9.48944946 7.34733831,9.93451576 7.79572116,9.93451576 L20.7923253,9.93451576 C21.2415205,9.93451576 21.6046131,9.48944946 21.6046131,8.94106419 C21.6046131,8.39267892 21.2415205,7.94761261 20.7923253,7.94761261 Z M20.7923253,14.9017736 L7.79572116,14.9017736 C7.34733831,14.9017736 6.9834334,15.3458465 6.9834334,15.8952252 C6.9834334,16.4446039 7.34733831,16.8886768 7.79572116,16.8886768 L20.7923253,16.8886768 C21.2415205,16.8886768 21.6046131,16.4446039 21.6046131,15.8952252 C21.6046131,15.3458465 21.2415205,14.9017736 20.7923253,14.9017736 Z M0,1.98690315 C0,3.08423946 0.893311323,3.9738063 1.99526669,3.9738063 C3.09722205,3.9738063 3.99053337,3.08423946 3.99053337,1.98690315 C3.99053337,0.889566842 3.09722205,0 1.99526669,0 C0.893311323,0 0,0.889566842 0,1.98690315 Z M0,8.94106419 C0,10.0384005 0.893311323,10.9279673 1.99526669,10.9279673 C3.09722205,10.9279673 3.99053337,10.0384005 3.99053337,8.94106419 C3.99053337,7.84372788 3.09722205,6.95416103 1.99526669,6.95416103 C0.893311323,6.95416103 0,7.84372788 0,8.94106419 Z M0,15.8952252 C0,16.9925615 0.893311323,17.8821284 1.99526669,17.8821284 C3.09722205,17.8821284 3.99053337,16.9925615 3.99053337,15.8952252 C3.99053337,14.7978889 3.09722205,13.9083221 1.99526669,13.9083221 C0.893311323,13.9083221 0,14.7978889 0,15.8952252 Z" id="Shape"></path>
            </g>
        </g>
    </g>
</svg>