<?xml version="1.0" encoding="UTF-8"?>
<svg width="0.929em" height="0.857em" viewBox="0 0 13 12" version="1.1" xmlns="http://www.w3.org/2000/svg" xmlns:xlink="http://www.w3.org/1999/xlink">
    <!-- Generator: Sketch 43.1 (39012) - http://www.bohemiancoding.com/sketch -->
    <title>Shape</title>
    <desc>Created with Sketch.</desc>
    <defs></defs>
    <g id="2.1-2.4科室排班" stroke="none" stroke-width="1" fill="currentColor" fill-rule="evenodd">
        <g id="2.2.4编辑排班-显示设置（加左右移）" transform="translate(-677.000000, -409.000000)" fill-rule="nonzero">
            <path d="M689.999749,419.969491 C689.995331,420.079684 689.946534,420.18401 689.86351,420.260763 L689.218538,420.875921 C689.139547,420.954509 689.030569,420.999266 688.916422,421 C688.799013,420.995347 688.691635,420.946472 688.613804,420.87005 L683.499875,415.993102 L678.379836,420.875942 C678.301457,420.95069 678.184732,420.999978 678.080524,420.999978 C677.976315,420.999978 677.858747,420.949886 677.781211,420.875942 L677.130061,420.254958 C677.051683,420.180211 677,420.068894 677,419.969513 C677,419.870132 677.052526,419.75801 677.130061,419.684067 L683.200585,413.894776 C683.278964,413.820028 683.395689,413.77074 683.499897,413.77074 C683.604106,413.77074 683.721674,413.820833 683.799209,413.894776 L689.869733,419.684067 C689.951273,419.761879 689.997973,419.866828 690,419.976818 L689.999749,419.969491 Z M689.999749,415.198751 C689.995331,415.308944 689.946534,415.41327 689.86351,415.490023 L689.218538,416.10518 C689.139547,416.183769 689.030569,416.228526 688.916422,416.22926 C688.799013,416.224607 688.691635,416.175732 688.613804,416.09931 L683.499875,411.222362 L678.379836,416.105202 C678.301457,416.17995 678.184732,416.229238 678.080524,416.229238 C677.976315,416.229238 677.858747,416.179145 677.781211,416.105202 L677.130061,415.484218 C677.051683,415.409471 677,415.298154 677,415.198773 C677,415.099392 677.052526,414.98727 677.130061,414.913327 L683.200585,409.124036 C683.278964,409.049288 683.395689,409 683.499897,409 C683.604106,409 683.721674,409.050093 683.799209,409.124036 L689.869733,414.913327 C689.951273,414.991138 689.997973,415.096088 690,415.206078 L689.999749,415.198751 Z" id="Shape" transform="translate(683.500000, 415.000000) rotate(180.000000) translate(-683.500000, -415.000000) "></path>
        </g>
    </g>
</svg>