<?xml version="1.0" encoding="UTF-8"?>
<svg width="16px" height="16px" viewBox="0 0 16 16" version="1.1" xmlns="http://www.w3.org/2000/svg"
     xmlns:xlink="http://www.w3.org/1999/xlink">
    <!-- Generator: Sketch 43.1 (39012) - http://www.bohemiancoding.com/sketch -->
    <g id="Symbols" stroke="none" stroke-width="1" fill="currentColor" fill-rule="evenodd">
        <g id="编辑" transform="translate(-8.000000, -8.000000)" fill-rule="nonzero" fill="currentColor">
            <path
                d="M21.8894946,24 L10.4050063,24 C9.81617847,24 9.20313512,23.7477826 8.73923121,23.2953298 C8.2752174,22.8436829 8,22.262319 8,21.6888311 L8,10.0637137 C8,9.47205596 8.28675732,8.92406458 8.79064788,8.54121427 C9.23271757,8.20499762 9.81194717,8.00990918 10.4052079,8.00990918 L16.5796944,8.00990918 C16.8895315,8.00990918 17.1405152,8.2565401 17.1405152,8.55790055 C17.1405152,8.85960902 16.8895315,9.10634983 16.5796944,9.10634983 L10.4050063,9.10634985 C9.79665224,9.10634985 9.12587276,9.48234982 9.12587276,10.0637137 L9.12587276,21.6888128 C9.12587276,22.2873209 9.79013128,22.9030831 10.4050063,22.9030831 L21.8895129,22.9030831 C22.4862172,22.9030831 22.8385688,22.281368 22.8385688,21.6888128 L22.8385688,15.7480939 C22.8385688,15.4462756 23.0918421,15.2019342 23.401551,15.2019342 C23.7112598,15.2019342 23.9645331,15.4462756 23.9645331,15.7480939 L23.9645331,21.6888128 C23.9645331,22.2665134 23.7808656,22.8149627 23.4358226,23.2457105 C23.0424586,23.7366828 22.4974091,24 21.8894946,24 L21.8894946,24 Z M15.7878193,16.6901453 C15.6059835,16.6901453 15.4241476,16.6224843 15.2855223,16.4875105 C15.0081435,16.217233 15.0081435,15.779177 15.2855223,15.5088995 L22.7874819,8.20270808 C23.0648607,7.93243064 23.514587,7.93243064 23.7919659,8.20270808 C24.0693447,8.47298553 24.0693447,9.1253257 23.7919659,9.39514522 L16.5043004,16.4875105 C16.3656568,16.6224843 15.969417,16.6901453 15.7878193,16.6901453 L15.7878193,16.6901453 Z"
                id="Shape"></path>
        </g>
    </g>
</svg>
