<?xml version="1.0" encoding="UTF-8"?>

<!--切图中 按钮 width:16px;height:16px, fontSize:14px-->
<!--取 svg line-height:1;-->
<!--则 height = line-height = (16/14) em-->


<svg height="1.143em"
     viewBox="0 0 16 16"
     version="1.1"
     xmlns="http://www.w3.org/2000/svg"
     xmlns:xlink="http://www.w3.org/1999/xlink">
    <path d="M7.98572659,15.9714532 C3.57507177,15.9714532 0,12.395251 0,7.98572659 C0,3.5739778 3.57509,0 7.98572659,0 C12.3963632,0 15.9714532,3.5739778 15.9714532,7.98572659 C15.9714714,12.3952692 12.3963814,15.9714532 7.98572659,15.9714532 Z"
          fill="currentColor"/>
    <path d="M6.19899818,10.273298 L6.19899818,8.09109933 L3.07877011,10.9372682 L6.19899818,13.7834371 L6.19899818,11.6356027 C6.19899818,11.6356027 9.35376008,11.6356027 10.6733021,11.6356027 C11.991413,11.6356027 11.991413,10.273298 11.991413,10.273298 L11.991413,8.09109933 L10.6733021,9.45340401 L10.6733021,10.273298 L6.19899818,10.273298 Z M5.31882644,6.72670201 L9.79241478,6.72670201 L9.79241478,8.98122119 L12.9092255,6.05869112 L9.79241478,3.13616106 L9.79241478,5.36328125 L5.31882644,5.36328125 C4,5.36328125 4,6.72670201 4,6.72670201 L4,8.90890067 L5.31882644,7.54659599 L5.31882644,6.72670201 Z"
          fill="#FFF"/>
</svg>