<?xml version="1.0" encoding="UTF-8"?>
<!--切图中 export按钮 width:13.5px;height:14.4px, fontSize:14px-->
<!--取 svg line-height:1;-->
<!--则 height = line-height = (14.4/14) em-->
<svg height="1.029em"
     viewBox="0 0 14 15"
     version="1.1"
     xmlns="http://www.w3.org/2000/svg"
     xmlns:xlink="http://www.w3.org/1999/xlink">
    <g stroke="none" stroke-width="1" fill="none" fill-rule="evenodd">
        <g fill-rule="nonzero" fill="currentColor">
            <g>
                <path d="M13.3333361,9.19097748 L13.3333361,12.3451968 C13.3333361,13.8114015 12.1398358,14.9999956 10.6666688,14.9999956 L2.66666721,14.9999956 C1.19390024,14.9999956 0,13.8117998 0,12.3451802 L0,4.38073412 C0,2.91451279 1.19350024,1.72591877 2.66666721,1.72591877 L4.00000082,1.72591877 L4.00000082,3.05332645 L3.11118397,3.05332645 C2.1296171,3.05332645 1.33333361,3.84575564 1.33333361,4.82327525 L1.33333361,11.9026557 C1.33333361,12.8798434 2.12930044,13.6725879 3.11118397,13.6725879 L10.2221688,13.6725879 C11.203719,13.6725879 12.0000025,12.8801587 12.0000025,11.9026391 L12.0000025,9.19097748 L13.3333361,9.19097748 Z M8.90691005,0.776363113 L5.54430318,4.12402507 C5.26355911,4.40359525 5.35869867,4.6322539 5.75583325,4.6322539 L8.27923531,4.6322539 C8.30625904,5.37367703 8.0972221,7.92498578 4.54798676,8.50124931 C6.44718664,9.17875971 10.5474479,8.0766714 10.8691505,4.6322539 L13.0791604,4.63229822 C13.4762801,4.63229822 13.5714197,4.40361002 13.2906608,4.12406939 L9.92797968,0.776348339 C9.64725045,0.496763384 9.18768379,0.496763384 8.90691005,0.776363113 Z">
                </path>
            </g>
        </g>
    </g>
</svg>