<!DOCTYPE svg PUBLIC "-//W3C//DTD SVG 20010904//EN" "http://www.w3.org/TR/2001/REC-SVG-20010904/DTD/svg10.dtd">
<svg version="1.0" xmlns="http://www.w3.org/2000/svg" viewBox="0 0 8800 8800" preserveAspectRatio="xMidYMid meet">
<g id="layer101" fill="#070707" stroke="none">
 <path d="M0 4400 l0 -4400 4400 0 4400 0 0 4400 0 4400 -4400 0 -4400 0 0 -4400z m3505 2720 c3 -5 4 -10 1 -10 -3 0 -8 5 -11 10 -3 6 -4 10 -1 10 3 0 8 -4 11 -10z m1405 6 c0 -3 -5 -8 -12 -12 -7 -4 -8 -3 -4 4 7 12 16 16 16 8z m-2600 -5440 c0 -3 -5 -8 -12 -12 -7 -4 -8 -3 -4 4 7 12 16 16 16 8z m195 -6 c3 -5 4 -10 1 -10 -3 0 -8 5 -11 10 -3 6 -4 10 -1 10 3 0 8 -4 11 -10z m205 6 c0 -3 -5 -8 -12 -12 -7 -4 -8 -3 -4 4 7 12 16 16 16 8z m195 -6 c3 -5 4 -10 1 -10 -3 0 -8 5 -11 10 -3 6 -4 10 -1 10 3 0 8 -4 11 -10z m205 6 c0 -3 -5 -8 -12 -12 -7 -4 -8 -3 -4 4 7 12 16 16 16 8z m195 -6 c3 -5 4 -10 1 -10 -3 0 -8 5 -11 10 -3 6 -4 10 -1 10 3 0 8 -4 11 -10z m205 6 c0 -3 -5 -8 -12 -12 -7 -4 -8 -3 -4 4 7 12 16 16 16 8z m595 -6 c3 -5 4 -10 1 -10 -3 0 -8 5 -11 10 -3 6 -4 10 -1 10 3 0 8 -4 11 -10z m205 6 c0 -3 -5 -8 -12 -12 -7 -4 -8 -3 -4 4 7 12 16 16 16 8z m195 -6 c3 -5 4 -10 1 -10 -3 0 -8 5 -11 10 -3 6 -4 10 -1 10 3 0 8 -4 11 -10z m1200 0 c3 -5 4 -10 1 -10 -3 0 -8 5 -11 10 -3 6 -4 10 -1 10 3 0 8 -4 11 -10z m205 6 c0 -3 -5 -8 -12 -12 -7 -4 -8 -3 -4 4 7 12 16 16 16 8z m595 -6 c3 -5 4 -10 1 -10 -3 0 -8 5 -11 10 -3 6 -4 10 -1 10 3 0 8 -4 11 -10z"/>
 </g>
<g id="layer102" fill="#fbfbfb" stroke="none">
 <path d="M0 4400 l0 -4400 4400 0 4400 0 0 4400 0 4400 -4400 0 -4400 0 0 -4400z m1700 3425 l0 -705 -700 0 -700 0 0 705 0 705 700 0 700 0 0 -705z m1000 605 l0 -100 100 0 100 0 0 100 0 100 100 0 100 0 0 -100 0 -99 -97 -3 -98 -3 -3 -97 -3 -98 201 0 200 0 0 -205 0 -205 -100 0 -100 0 0 100 0 100 -100 0 -99 0 -3 103 -3 102 -195 0 -195 0 -3 -102 -3 -103 -99 0 -100 0 0 105 0 105 100 0 101 0 -3 98 -3 97 -297 3 -298 2 0 100 0 100 400 0 400 0 0 -100z m1000 0 l0 -100 100 0 100 0 0 -100 0 -99 -97 -3 -98 -3 -3 -102 -3 -103 -99 0 -100 0 0 305 0 305 100 0 100 0 0 -100z m2000 0 l0 -100 -297 -2 -298 -3 -3 -97 -3 -98 -297 -2 -297 -3 -3 -97 -3 -98 101 0 100 0 0 -100 0 -100 100 0 100 0 0 100 0 100 100 0 100 0 0 -100 0 -100 100 0 100 0 2 -302 3 -303 95 0 95 0 3 197 2 197 98 3 97 3 3 103 3 102 99 0 100 0 0 95 0 95 -200 0 -200 0 0 105 0 105 200 0 200 0 0 100 0 100 100 0 100 0 0 100 0 100 100 0 100 0 0 -100 0 -100 100 0 100 0 0 100 0 100 100 0 100 0 0 -100 0 -100 100 0 100 0 0 -100 0 -100 100 0 100 0 0 200 0 200 400 0 400 0 0 -200 0 -200 100 0 100 0 0 100 0 100 100 0 100 0 0 -100 0 -99 -97 -3 -98 -3 -3 -97 -3 -98 201 0 200 0 0 -105 0 -105 -100 0 -101 0 3 -97 3 -98 98 -3 97 -3 0 -99 0 -100 -100 0 -100 0 0 100 0 100 -100 0 -100 0 0 200 0 200 -100 0 -100 0 0 105 0 106 -97 -3 -98 -3 -3 -102 -3 -103 -99 0 -100 0 0 -95 0 -95 200 0 200 0 2 -202 3 -203 98 -3 97 -3 0 -99 0 -99 -97 -3 -98 -3 -3 -97 -3 -98 101 0 100 0 0 -100 0 -100 100 0 100 0 0 200 0 200 100 0 100 0 0 -305 0 -305 -200 0 -200 0 0 -95 0 -95 100 0 100 0 0 -105 0 -104 -97 -3 -98 -3 -3 -97 -3 -98 -99 0 -100 0 0 -100 0 -99 -97 -3 -98 -3 0 -95 0 -95 98 -3 97 -3 0 -299 0 -300 100 0 100 0 0 200 0 200 100 0 100 0 0 100 0 100 100 0 100 0 0 -105 0 -105 -100 0 -100 0 0 -200 0 -200 -100 0 -101 0 3 -97 3 -98 198 -3 197 -2 0 -100 0 -100 -300 0 -300 0 0 -300 0 -300 300 0 300 0 0 -105 0 -105 -100 0 -100 0 0 -95 0 -95 100 0 100 0 0 -105 0 -105 -100 0 -101 0 3 -97 3 -98 98 -3 97 -3 0 -99 0 -100 -100 0 -100 0 0 100 0 100 -100 0 -100 0 0 -200 0 -200 100 0 100 0 0 -105 0 -105 -100 0 -100 0 0 105 0 106 -97 -3 -98 -3 -3 -102 -3 -103 -99 0 -100 0 0 -195 0 -195 100 0 100 0 0 100 0 100 300 0 300 0 0 -105 0 -105 -197 -2 -198 -3 -3 -98 -3 -97 -499 0 -500 0 0 200 0 200 -100 0 -100 0 0 -400 0 -400 -100 0 -100 0 0 100 0 101 -97 -3 -98 -3 -3 -197 -2 -198 200 0 200 0 0 -105 0 -105 -300 0 -300 0 0 -95 0 -95 100 0 100 0 2 -203 3 -202 98 -3 97 -3 0 206 0 205 100 0 100 0 0 -305 0 -305 -300 0 -300 0 0 100 0 100 -300 0 -300 0 0 -100 0 -100 -200 0 -200 0 0 200 0 200 -100 0 -100 0 0 105 0 105 100 0 99 0 3 -102 3 -103 195 0 195 0 3 98 3 97 -101 0 -100 0 0 100 0 100 -300 0 -300 0 0 -100 0 -100 -300 0 -301 0 3 -97 3 -98 98 -3 97 -3 0 -99 0 -100 -100 0 -100 0 0 -100 0 -100 -100 0 -100 0 0 100 0 100 -100 0 -100 0 0 100 0 99 98 3 97 3 3 98 3 97 -101 0 -100 0 0 100 0 100 -100 0 -100 0 0 -100 0 -100 -100 0 -101 0 3 -97 3 -98 98 -3 97 -3 0 -199 0 -200 -100 0 -100 0 0 200 0 200 -200 0 -200 0 0 -200 0 -200 -300 0 -300 0 0 100 0 100 -200 0 -200 0 0 100 0 100 -100 0 -100 0 0 605 0 604 97 3 98 3 3 203 2 202 100 0 100 0 2 -302 3 -303 95 0 95 0 3 97 3 98 99 0 99 0 3 -97 3 -98 95 0 95 0 3 198 2 197 -200 0 -200 0 0 505 0 505 298 2 297 3 3 203 2 202 100 0 100 0 0 200 0 200 100 0 101 0 -3 98 -3 97 -197 3 -198 2 0 200 0 200 -100 0 -100 0 0 -300 0 -300 100 0 100 0 0 -105 0 -105 -400 0 -400 0 0 -95 0 -95 200 0 200 0 0 -105 0 -105 -200 0 -200 0 0 -200 0 -200 -100 0 -100 0 0 -205 0 -205 -200 0 -200 0 0 -95 0 -95 100 0 100 0 0 -105 0 -105 -100 0 -100 0 0 -100 0 -100 -500 0 -500 0 0 200 0 200 -100 0 -100 0 0 -200 0 -200 -100 0 -100 0 0 305 0 305 100 0 100 0 -2 198 -3 197 -97 3 -98 3 0 99 0 99 98 3 97 3 3 98 3 97 99 0 100 0 0 -100 0 -100 198 2 197 3 3 97 3 97 97 3 97 3 3 198 2 197 -100 0 -100 0 0 -100 0 -100 -100 0 -100 0 0 100 0 100 -100 0 -100 0 0 -100 0 -100 -200 0 -200 0 0 205 0 205 100 0 100 0 -2 198 -3 197 -97 3 -98 3 0 99 0 100 298 2 297 3 3 98 3 97 -101 0 -100 0 0 200 0 200 -100 0 -100 0 0 -200 0 -200 -100 0 -100 0 0 305 0 305 100 0 100 0 0 100 0 100 100 0 101 0 -3 98 -3 97 -97 3 -98 3 0 199 0 200 -100 0 -100 0 0 405 0 405 100 0 100 0 0 -300 0 -300 100 0 100 0 0 -305 0 -305 100 0 100 0 0 100 0 99 98 3 97 3 3 97 3 97 97 3 97 3 3 98 3 97 -101 0 -100 0 0 305 0 305 100 0 100 0 0 -300 0 -300 100 0 100 0 0 100 0 100 100 0 100 0 0 -100 0 -100 400 0 400 0 0 95 0 95 -300 0 -300 0 0 100 0 100 -200 0 -200 0 0 105 0 105 200 0 200 0 0 100 0 99 98 3 97 3 3 98 3 97 -101 0 -100 0 0 405 0 405 100 0 100 0 0 -405 0 -406 98 3 97 3 3 203 2 202 100 0 100 0 2 -202 3 -203 95 0 95 0 3 98 3 97 199 0 200 0 0 -100 0 -100 -200 0 -201 0 3 -97 3 -98 98 -3 97 -3 0 -204 0 -205 -100 0 -100 0 0 -300 0 -300 -500 0 -500 0 0 -100 0 -100 -300 0 -300 0 0 -100 0 -100 100 0 100 0 0 -305 0 -305 -100 0 -100 0 0 -95 0 -95 100 0 100 0 0 -105 0 -105 -100 0 -100 0 0 -400 0 -400 100 0 100 0 0 100 0 100 200 0 200 0 0 -100 0 -100 400 0 400 0 0 100 0 100 100 0 101 0 -3 98 -3 97 -97 3 -98 3 0 99 0 100 -100 0 -100 0 0 100 0 100 -200 0 -200 0 0 -100 0 -100 100 0 100 0 0 -100 0 -100 -400 0 -400 0 0 100 0 100 198 2 197 3 3 98 3 97 -101 0 -100 0 0 105 0 105 100 0 100 0 0 -105 0 -106 98 3 97 3 3 198 2 197 -200 0 -200 0 0 105 0 105 100 0 101 0 -3 98 -3 97 -97 3 -98 3 0 99 0 100 300 0 300 0 0 100 0 100 100 0 100 0 0 -100 0 -100 -100 0 -100 0 0 -100 0 -100 100 0 100 0 0 -100 0 -100 100 0 100 0 0 -200 0 -200 100 0 100 0 0 100 0 100 100 0 100 0 0 -100 0 -100 100 0 100 0 0 100 0 100 100 0 100 0 0 100 0 100 100 0 101 0 -3 98 -3 97 -295 0 -295 0 -3 -102 -3 -103 -99 0 -99 0 -3 103 -3 102 -97 3 -98 3 0 99 0 100 100 0 100 0 0 100 0 99 98 3 97 3 3 97 3 97 97 3 97 3 3 98 3 97 -101 0 -100 0 0 105 0 105 200 0 200 0 2 -202 3 -203 95 0 95 0 3 203 2 202 200 0 200 0 0 -100 0 -100 100 0 99 0 3 -102 3 -103 195 0 195 0 3 98 3 97 -101 0 -100 0 0 105 0 105 100 0 100 0 0 95 0 95 -100 0 -99 0 -3 103 -3 102 -197 3 -198 2 0 200 0 200 100 0 99 0 3 -97 3 -98 198 -3 197 -2 0 -100 0 -100 200 0 201 0 -3 98 -3 97 -97 3 -98 3 0 99 0 100 100 0 99 0 3 -97 3 -98 95 0 95 0 3 298 2 297 -100 0 -100 0 0 -100 0 -100 -200 0 -200 0 0 200 0 200 -100 0 -100 0 0 -200 0 -200 -200 0 -200 0 0 105 0 105 100 0 100 0 0 100 0 100 100 0 100 0 0 100 0 100 100 0 100 0 0 100 0 100 100 0 100 0 0 100 0 100 500 0 500 0 0 -100z m-2198 -1007 l3 -98 98 -3 97 -3 0 -99 0 -99 -97 -3 -98 -3 -3 -97 -3 -98 101 0 100 0 0 -105 0 -105 -200 0 -200 0 0 205 0 204 98 3 97 3 3 98 3 97 -101 0 -100 0 0 100 0 100 100 0 99 0 3 -97z m-2602 -808 l0 -105 -100 0 -100 0 0 105 0 105 100 0 100 0 0 -105z m7600 -805 l0 -100 -100 0 -100 0 0 100 0 100 100 0 100 0 0 -100z m-200 -1610 l0 -100 -100 0 -100 0 0 100 0 100 100 0 100 0 0 -100z m-6600 -3225 l0 -705 -700 0 -700 0 0 705 0 705 700 0 700 0 0 -705z m6800 0 l0 -705 -700 0 -700 0 0 705 0 705 700 0 700 0 0 -705z m-3598 -402 l3 -98 98 -3 97 -3 0 -99 0 -100 -100 0 -100 0 0 100 0 100 -100 0 -100 0 0 100 0 100 100 0 99 0 3 -97z"/>
 <path d="M500 7825 l0 -505 498 2 497 3 0 500 0 500 -497 3 -498 2 0 -505z m800 0 l0 -305 -300 0 -300 0 0 305 0 305 300 0 300 0 0 -305z"/>
 <path d="M6107 8324 c-4 -4 -7 -49 -7 -101 l0 -93 100 0 101 0 -3 98 -3 97 -90 3 c-50 1 -94 0 -98 -4z"/>
 <path d="M6507 8323 c-4 -3 -7 -48 -7 -99 l0 -93 -97 -3 -98 -3 0 -300 0 -300 198 -3 197 -2 0 105 0 105 100 0 100 0 0 200 0 200 -100 0 -100 0 0 100 0 100 -93 0 c-52 0 -97 -3 -100 -7z"/>
 <path d="M7307 8323 c-4 -3 -7 -48 -7 -100 l0 -93 100 0 100 0 0 100 0 100 -93 0 c-52 0 -97 -3 -100 -7z"/>
 <path d="M7100 7825 l0 -95 100 0 100 0 0 95 0 95 -100 0 -100 0 0 -95z"/>
 <path d="M5702 7423 l3 -98 98 -3 97 -3 0 -99 0 -99 -97 -3 -98 -3 -3 -97 -3 -98 201 0 200 0 0 -205 0 -205 -100 0 -100 0 0 -100 0 -100 -200 0 -200 0 0 105 0 105 200 0 200 0 0 95 0 95 -100 0 -99 0 -3 103 -3 102 -95 0 -95 0 -3 -102 -3 -103 -99 0 -99 0 -3 103 -3 102 -95 0 -95 0 -3 -197 -2 -198 100 0 100 0 0 -105 0 -105 -200 0 -200 0 0 -100 0 -100 -200 0 -201 0 3 -97 3 -98 98 -3 97 -3 0 -99 0 -100 100 0 100 0 0 -100 0 -100 100 0 100 0 0 -100 0 -100 200 0 201 0 -3 98 -3 97 -97 3 -97 3 -3 97 -3 97 -97 3 -98 3 0 199 0 200 598 2 597 3 3 303 2 302 200 0 200 0 0 100 0 100 -200 0 -200 0 0 100 0 99 98 3 97 3 3 98 3 97 -101 0 -100 0 0 100 0 100 -300 0 -301 0 3 -97z"/>
 <path d="M6900 7220 l0 -300 300 0 300 0 0 300 0 300 -300 0 -300 0 0 -300z m400 0 l0 -100 -100 0 -100 0 0 100 0 100 100 0 100 0 0 -100z"/>
 <path d="M7702 7223 l3 -98 98 -3 97 -3 0 101 0 100 -100 0 -101 0 3 -97z"/>
 <path d="M2100 7020 l0 -100 200 0 201 0 -3 98 -3 97 -197 3 -198 2 0 -100z"/>
 <path d="M2507 6914 c-4 -4 -7 -49 -7 -101 l0 -93 100 0 101 0 -3 98 -3 97 -90 3 c-50 1 -94 0 -98 -4z"/>
 <path d="M7707 6913 c-4 -3 -7 -48 -7 -100 l0 -93 100 0 100 0 0 100 0 100 -93 0 c-52 0 -97 -3 -100 -7z"/>
 <path d="M7500 6610 l0 -100 -100 0 -100 0 0 -200 0 -200 -100 0 -100 0 0 100 0 100 -100 0 -100 0 0 -100 0 -100 -100 0 -101 0 3 -97 3 -98 98 -3 97 -3 0 -99 0 -100 100 0 100 0 0 -100 0 -100 -197 -2 -198 -3 -3 -202 -2 -203 -100 0 -100 0 2 -197 3 -198 98 -3 97 -3 0 106 0 105 100 0 100 0 0 200 0 200 100 0 100 0 0 100 0 100 100 0 100 0 0 -100 0 -100 100 0 100 0 0 200 0 200 -100 0 -100 0 0 100 0 100 198 2 197 3 3 98 3 97 -101 0 -100 0 0 105 0 105 100 0 100 0 0 195 0 195 -100 0 -100 0 0 -100z"/>
 <path d="M7900 6615 l0 -95 100 0 100 0 0 95 0 95 -100 0 -100 0 0 -95z"/>
 <path d="M4700 6415 l0 -95 100 0 100 0 0 95 0 95 -100 0 -100 0 0 -95z"/>
 <path d="M6500 6415 l0 -95 200 0 200 0 0 95 0 95 -200 0 -200 0 0 -95z"/>
 <path d="M1500 6210 l0 -101 98 3 97 3 3 98 3 97 -101 0 -100 0 0 -100z"/>
 <path d="M3702 6213 l3 -98 95 0 95 0 3 98 3 97 -101 0 -101 0 3 -97z"/>
 <path d="M3102 6013 l3 -98 95 0 95 0 3 98 3 97 -101 0 -101 0 3 -97z"/>
 <path d="M3502 6013 l3 -98 95 0 95 0 3 98 3 97 -101 0 -101 0 3 -97z"/>
 <path d="M3902 6013 l3 -98 95 0 95 0 3 98 3 97 -101 0 -101 0 3 -97z"/>
 <path d="M6302 6013 l3 -98 95 0 95 0 3 98 3 97 -101 0 -101 0 3 -97z"/>
 <path d="M3700 5710 l0 -200 300 0 301 0 -3 98 -3 97 -197 3 -198 2 0 100 0 100 -100 0 -100 0 0 -200z"/>
 <path d="M5300 5810 l0 -100 100 0 100 0 0 100 0 100 -100 0 -100 0 0 -100z"/>
 <path d="M6100 5810 l0 -100 100 0 100 0 0 100 0 100 -100 0 -100 0 0 -100z"/>
 <path d="M900 5610 l0 -100 -100 0 -100 0 0 -200 0 -200 100 0 100 0 0 100 0 100 100 0 100 0 -2 198 -3 197 -97 3 -98 3 0 -101z"/>
 <path d="M2707 5704 c-4 -4 -7 -49 -7 -101 l0 -93 100 0 101 0 -3 98 -3 97 -90 3 c-50 1 -94 0 -98 -4z"/>
 <path d="M4507 5704 c-4 -4 -7 -49 -7 -101 l0 -93 100 0 101 0 -3 98 -3 97 -90 3 c-50 1 -94 0 -98 -4z"/>
 <path d="M5507 5704 c-4 -4 -7 -49 -7 -101 l0 -93 100 0 101 0 -3 98 -3 97 -90 3 c-50 1 -94 0 -98 -4z"/>
 <path d="M5907 5704 c-4 -4 -7 -49 -7 -101 l0 -93 100 0 101 0 -3 98 -3 97 -90 3 c-50 1 -94 0 -98 -4z"/>
 <path d="M6507 5703 c-4 -3 -7 -48 -7 -100 l0 -93 100 0 100 0 0 100 0 100 -93 0 c-52 0 -97 -3 -100 -7z"/>
 <path d="M4707 5504 c-4 -4 -7 -49 -7 -101 l0 -93 100 0 101 0 -3 98 -3 97 -90 3 c-50 1 -94 0 -98 -4z"/>
 <path d="M5707 5504 c-4 -4 -7 -49 -7 -101 l0 -93 100 0 101 0 -3 98 -3 97 -90 3 c-50 1 -94 0 -98 -4z"/>
 <path d="M6107 5504 c-4 -4 -7 -49 -7 -101 l0 -93 100 0 101 0 -3 98 -3 97 -90 3 c-50 1 -94 0 -98 -4z"/>
 <path d="M1900 5205 l0 -95 100 0 100 0 0 -100 0 -100 100 0 100 0 0 195 0 195 -200 0 -200 0 0 -95z"/>
 <path d="M3500 5205 l0 -95 100 0 100 0 0 95 0 95 -100 0 -100 0 0 -95z"/>
 <path d="M3900 5200 l0 -100 -100 0 -100 0 0 -200 0 -200 -100 0 -100 0 0 100 0 100 -100 0 -100 0 0 -100 0 -100 -100 0 -101 0 3 -97 3 -98 298 -3 297 -2 0 -100 0 -100 300 0 300 0 0 -100 0 -100 100 0 100 0 0 200 0 200 -300 0 -300 0 0 205 0 205 100 0 99 0 3 -102 3 -103 197 -3 197 -2 3 -98 3 -97 95 0 95 0 3 198 2 197 -200 0 -200 0 0 100 0 100 -100 0 -100 0 0 100 0 100 -100 0 -100 0 0 -100z"/>
 <path d="M4300 5205 l0 -95 200 0 200 0 0 95 0 95 -200 0 -200 0 0 -95z"/>
 <path d="M4900 5200 l0 -100 -100 0 -100 0 0 -95 0 -95 100 0 99 0 3 -102 3 -103 95 0 95 0 3 103 3 102 199 0 200 0 0 95 0 95 -200 0 -200 0 0 100 0 100 -100 0 -100 0 0 -100z"/>
 <path d="M5900 5205 l0 -95 100 0 100 0 0 95 0 95 -100 0 -100 0 0 -95z"/>
 <path d="M7102 5003 l3 -298 98 -3 97 -3 0 301 0 300 -100 0 -100 0 2 -297z"/>
 <path d="M7500 5205 l0 -95 100 0 100 0 0 95 0 95 -100 0 -100 0 0 -95z"/>
 <path d="M6100 5005 l0 -95 100 0 100 0 0 95 0 95 -100 0 -100 0 0 -95z"/>
 <path d="M7702 4703 l3 -198 98 -3 97 -3 0 201 0 200 -100 0 -100 0 2 -197z"/>
 <path d="M2502 4603 l3 -98 195 0 195 0 3 98 3 97 -201 0 -201 0 3 -97z"/>
 <path d="M5102 4603 l3 -98 195 0 195 0 3 98 3 97 -201 0 -201 0 3 -97z"/>
 <path d="M5702 4603 l3 -98 95 0 95 0 3 98 3 97 -101 0 -101 0 3 -97z"/>
 <path d="M6102 4603 l3 -98 98 -3 97 -3 0 -99 0 -99 -97 -3 -98 -3 -3 -97 -3 -97 -97 -3 -97 -3 -3 -97 -3 -98 101 0 100 0 0 -100 0 -100 300 0 300 0 0 300 0 300 300 0 300 0 0 100 0 100 -400 0 -400 0 0 100 0 100 -200 0 -201 0 3 -97z"/>
 <path d="M4700 4400 l0 -100 100 0 100 0 0 -100 0 -99 -97 -3 -98 -3 -3 -97 -3 -98 501 0 501 0 -3 98 -3 97 -97 3 -97 3 -3 97 -3 97 -95 0 -95 0 -3 -97 -3 -98 -99 0 -100 0 0 200 0 200 -200 0 -200 0 0 -100z"/>
 <path d="M5500 4400 l0 -100 100 0 100 0 0 100 0 100 -100 0 -100 0 0 -100z"/>
 <path d="M3507 4294 c-4 -4 -7 -49 -7 -101 l0 -93 100 0 101 0 -3 98 -3 97 -90 3 c-50 1 -94 0 -98 -4z"/>
 <path d="M7307 4293 c-4 -3 -7 -93 -7 -200 l0 -193 100 0 100 0 0 200 0 200 -93 0 c-52 0 -97 -3 -100 -7z"/>
 <path d="M700 4000 l0 -100 100 0 101 0 -3 98 -3 97 -97 3 -98 3 0 -101z"/>
 <path d="M3907 4094 c-4 -4 -7 -97 -7 -206 l0 -198 -100 0 -100 0 0 -400 0 -400 100 0 100 0 0 305 0 305 100 0 100 0 0 200 0 200 100 0 101 0 -3 98 -3 97 -191 3 c-104 1 -193 -1 -197 -4z"/>
 <path d="M1300 3795 l0 -95 200 0 200 0 0 95 0 95 -200 0 -200 0 0 -95z"/>
 <path d="M3500 3795 l0 -95 100 0 100 0 0 95 0 95 -100 0 -100 0 0 -95z"/>
 <path d="M5700 3795 l0 -95 100 0 100 0 0 95 0 95 -100 0 -100 0 0 -95z"/>
 <path d="M6900 3795 l0 -95 100 0 100 0 0 95 0 95 -100 0 -100 0 0 -95z"/>
 <path d="M7700 3790 l0 -100 -100 0 -100 0 2 -297 3 -298 98 -3 97 -3 0 -99 0 -100 -497 -2 -498 -3 0 -95 0 -95 198 -3 197 -2 0 -200 0 -200 100 0 100 0 0 -100 0 -100 100 0 100 0 0 200 0 200 100 0 100 0 0 200 0 200 100 0 100 0 0 100 0 100 -100 0 -100 0 0 205 0 205 100 0 100 0 0 195 0 195 -100 0 -100 0 0 -100z"/>
 <path d="M4300 3595 l0 -95 200 0 200 0 0 95 0 95 -200 0 -200 0 0 -95z"/>
 <path d="M4900 3490 l0 -200 -100 0 -101 0 3 -97 3 -98 98 -3 97 -3 0 -99 0 -100 100 0 100 0 0 100 0 99 98 3 97 3 3 98 3 97 -101 0 -100 0 0 105 0 105 100 0 99 0 3 -102 3 -103 98 -3 97 -3 0 -99 0 -100 -100 0 -100 0 0 -100 0 -100 200 0 200 0 0 200 0 199 98 3 97 3 3 98 3 97 -201 0 -200 0 0 100 0 100 -300 0 -300 0 0 -200z"/>
 <path d="M7100 3595 l0 -95 100 0 100 0 0 95 0 95 -100 0 -100 0 0 -95z"/>
 <path d="M1500 3390 l0 -101 98 3 97 3 3 98 3 97 -101 0 -100 0 0 -100z"/>
 <path d="M3300 3190 l0 -299 -97 -3 -98 -3 -3 -97 -3 -97 -97 -3 -97 -3 -3 -297 -2 -298 100 0 100 0 0 200 0 200 200 0 200 0 0 500 0 500 -100 0 -100 0 0 -300z"/>
 <path d="M6100 3390 l0 -100 -100 0 -101 0 3 -97 3 -98 98 -3 97 -3 0 -99 0 -100 100 0 100 0 0 -100 0 -100 -100 0 -99 0 -3 98 -3 97 -195 0 -195 0 -3 -97 -3 -98 101 0 100 0 0 -100 0 -100 200 0 200 0 0 -105 0 -105 -100 0 -100 0 0 -95 0 -95 100 0 100 0 0 -105 0 -105 -100 0 -100 0 0 100 0 100 -100 0 -100 0 2 -197 3 -198 98 -3 97 -3 0 -99 0 -99 -97 -3 -98 -3 -3 -97 -3 -98 -197 -2 -197 -3 -3 -97 -3 -98 101 0 100 0 0 -100 0 -100 100 0 100 0 0 100 0 100 200 0 200 0 0 300 0 299 98 3 97 3 3 303 2 302 100 0 100 0 0 95 0 95 -100 0 -100 0 0 205 0 205 100 0 100 0 0 100 0 100 100 0 100 0 0 100 0 100 100 0 99 0 3 -97 3 -98 98 -3 97 -3 0 101 0 100 -100 0 -100 0 0 100 0 100 -200 0 -200 0 0 -100 0 -100 -200 0 -200 0 0 100 0 100 -100 0 -100 0 0 -100z"/>
 <path d="M7902 3293 l3 -198 98 -3 97 -3 0 201 0 200 -100 0 -100 0 2 -197z"/>
 <path d="M1900 3190 l0 -100 -400 0 -400 0 0 -100 0 -100 100 0 100 0 0 -100 0 -100 100 0 100 0 0 -100 0 -100 100 0 101 0 -3 98 -3 97 -97 3 -98 3 0 99 0 100 200 0 200 0 0 100 0 99 98 3 97 3 3 98 3 97 -101 0 -100 0 0 -100z"/>
 <path d="M4302 3193 l3 -98 95 0 95 0 3 98 3 97 -101 0 -101 0 3 -97z"/>
 <path d="M4100 2990 l0 -100 100 0 100 0 0 100 0 100 -100 0 -100 0 0 -100z"/>
 <path d="M700 2690 l0 -200 100 0 100 0 0 100 0 100 100 0 100 0 0 -100 0 -100 100 0 101 0 -3 98 -3 97 -97 3 -97 3 -3 97 -3 97 -197 3 -198 2 0 -200z"/>
 <path d="M2707 2884 c-4 -4 -7 -49 -7 -101 l0 -93 100 0 101 0 -3 98 -3 97 -90 3 c-50 1 -94 0 -98 -4z"/>
 <path d="M4307 2884 c-4 -4 -7 -49 -7 -101 l0 -93 200 0 201 0 -3 98 -3 97 -191 3 c-104 1 -193 -1 -197 -4z"/>
 <path d="M5107 2884 c-4 -4 -7 -49 -7 -100 l0 -93 -97 -3 -98 -3 -3 -197 -2 -198 100 0 100 0 0 100 0 100 200 0 201 0 -3 98 -3 97 -97 3 -97 3 -3 97 -3 97 -90 3 c-50 1 -94 0 -98 -4z"/>
 <path d="M3707 2683 c-4 -3 -7 -138 -7 -300 l0 -293 100 0 100 0 0 200 0 200 100 0 100 0 0 -100 0 -100 100 0 100 0 -2 198 -3 197 -291 3 c-160 1 -293 -1 -297 -5z"/>
 <path d="M900 2285 l0 -195 100 0 100 0 0 195 0 195 -100 0 -100 0 0 -195z"/>
 <path d="M1300 2385 l0 -95 100 0 100 0 0 95 0 95 -100 0 -100 0 0 -95z"/>
 <path d="M1500 2185 l0 -95 100 0 100 0 0 95 0 95 -100 0 -100 0 0 -95z"/>
 <path d="M3300 2185 l0 -95 100 0 100 0 0 95 0 95 -100 0 -100 0 0 -95z"/>
 <path d="M4302 1983 l3 -298 95 0 95 0 3 98 3 97 199 0 200 0 0 -200 0 -200 -100 0 -99 0 -3 98 -3 97 -95 0 -95 0 -3 -197 -2 -197 -98 -3 -97 -3 -3 -97 -3 -98 301 0 300 0 0 100 0 100 200 0 201 0 -3 98 -3 97 -97 3 -98 3 0 99 0 100 100 0 100 0 0 -100 0 -100 100 0 100 0 0 100 0 99 98 3 97 3 3 98 3 97 -301 0 -300 0 0 100 0 100 -100 0 -100 0 0 100 0 100 -300 0 -300 0 2 -297z"/>
 <path d="M5100 2185 l0 -95 100 0 100 0 0 95 0 95 -100 0 -100 0 0 -95z"/>
 <path d="M5500 2185 l0 -95 200 0 200 0 0 95 0 95 -200 0 -200 0 0 -95z"/>
 <path d="M3900 1980 l0 -100 -200 0 -201 0 3 -97 3 -98 98 -3 97 -3 0 -99 0 -100 100 0 100 0 0 100 0 99 98 3 97 3 3 198 2 197 -100 0 -100 0 0 -100z"/>
 <path d="M3102 1783 l3 -98 95 0 95 0 3 98 3 97 -101 0 -101 0 3 -97z"/>
 <path d="M2100 1580 l0 -100 100 0 101 0 -3 98 -3 97 -97 3 -98 3 0 -101z"/>
 <path d="M2507 1674 c-4 -4 -7 -49 -7 -101 l0 -93 100 0 101 0 -3 98 -3 97 -90 3 c-50 1 -94 0 -98 -4z"/>
 <path d="M2907 1674 c-4 -4 -7 -49 -7 -100 l0 -93 -97 -3 -98 -3 -3 -97 -3 -98 201 0 200 0 -2 198 -3 197 -90 3 c-50 1 -94 0 -98 -4z"/>
 <path d="M3307 1674 c-4 -4 -7 -49 -7 -101 l0 -93 100 0 101 0 -3 98 -3 97 -90 3 c-50 1 -94 0 -98 -4z"/>
 <path d="M4107 1674 c-4 -4 -7 -49 -7 -100 l0 -93 -97 -3 -98 -3 -3 -197 -2 -198 100 0 100 0 0 100 0 100 100 0 100 0 -2 198 -3 197 -90 3 c-50 1 -94 0 -98 -4z"/>
 <path d="M5707 1674 c-4 -4 -7 -49 -7 -101 l0 -93 100 0 101 0 -3 98 -3 97 -90 3 c-50 1 -94 0 -98 -4z"/>
 <path d="M2100 1080 l0 -200 100 0 99 0 3 -102 3 -103 97 -3 97 -3 3 -97 3 -97 195 0 195 0 3 98 3 97 -101 0 -100 0 0 100 0 100 -100 0 -100 0 0 100 0 100 -100 0 -99 0 -3 103 -3 102 -97 3 -98 3 0 -201z"/>
 <path d="M2507 1274 c-4 -4 -7 -49 -7 -101 l0 -93 100 0 101 0 -3 98 -3 97 -90 3 c-50 1 -94 0 -98 -4z"/>
 <path d="M3107 1274 c-4 -4 -7 -49 -7 -101 l0 -93 100 0 100 0 0 -100 0 -100 100 0 100 0 -2 198 -3 197 -191 3 c-104 1 -193 -1 -197 -4z"/>
 <path d="M2902 873 l3 -198 95 0 95 0 3 198 2 197 -100 0 -100 0 2 -197z"/>
 <path d="M4100 975 l0 -95 100 0 100 0 0 95 0 95 -100 0 -100 0 0 -95z"/>
 <path d="M5902 773 l3 -98 195 0 195 0 3 98 3 97 -201 0 -201 0 3 -97z"/>
 <path d="M4102 573 l3 -98 95 0 95 0 3 98 3 97 -101 0 -101 0 3 -97z"/>
 <path d="M500 975 l0 -505 498 2 497 3 0 500 0 500 -497 3 -498 2 0 -505z m800 0 l0 -305 -300 0 -300 0 0 305 0 305 300 0 300 0 0 -305z"/>
 <path d="M7305 1468 c-3 -7 -4 -233 -3 -503 l3 -490 498 -3 497 -2 0 505 0 505 -495 0 c-387 0 -497 -3 -500 -12z m795 -493 l0 -305 -300 0 -300 0 0 305 0 305 300 0 300 0 0 -305z"/>
 </g>

</svg>
