<?xml version="1.0" encoding="UTF-8"?>
<svg width="20px" height="20px" viewBox="0 0 20 20" version="1.1" xmlns="http://www.w3.org/2000/svg" xmlns:xlink="http://www.w3.org/1999/xlink">
    <!-- Generator: Sketch 51.1 (57501) - http://www.bohemiancoding.com/sketch -->
    <title>钉钉控制台-数据汇总 copy 2</title>
    <desc>Created with Sketch.</desc>
    <defs></defs>
    <g id="钉钉控制台" stroke="none" stroke-width="1" fill="none" fill-rule="evenodd">
        <g id="钉钉控制台-数据汇总-copy" transform="translate(-14.000000, -136.000000)" fill-rule="nonzero">
            <g id="医院" transform="translate(14.000000, 136.000000)">
                <rect id="Rectangle-path" fill="#000000" opacity="0" x="0" y="0" width="20" height="20"></rect>
                <path d="M12.5,7.5 L7.5,7.5 C7.25,7.5 7,7.75 7,8 C7,8.25 7.25,8.5 7.5,8.5 L12.5,8.5 C12.75,8.5 13,8.25 13,8 C13,7.75 12.75,7.5 12.5,7.5 Z M12.5,10 L7.5,10 C7.25,10 7,10.25 7,10.5 C7,10.75 7.25,11 7.5,11 L12.5,11 C12.75,11 13,10.75 13,10.5 C13,10.25 12.75,10 12.5,10 Z M12.5,12.5 L7.5,12.5 C7.25,12.5 7,12.75 7,13 C7,13.25 7.25,13.5 7.5,13.5 L12.5,13.5 C12.75,13.5 13,13.25 13,13 C13,12.75 12.75,12.5 12.5,12.5 Z M18.5,17 L18,17 L18,8 C18,7.75 17.75,7.5 17.5,7.5 L15,7.5 L15,6 C15,5.45 14.55,5 14,5 L10.5,5 L10.5,4 L11,4 C11.25,4 11.5,3.75 11.5,3.5 C11.5,3.2 11.25,3 11,3 L10.5,3 L10.5,2.5 C10.5,2.25 10.25,2 10,2 C9.75,2 9.5,2.25 9.5,2.5 L9.5,3 L9,3 C8.75,3 8.5,3.2 8.5,3.5 C8.5,3.75 8.75,4 9,4 L9.5,4 L9.5,5 L6,5 C5.45,5 5,5.45 5,6 L5,9.5 L2.5,9.5 C2.25,9.5 2,9.75 2,10 L2,17 L1.5,17 C1.25,17 1,17.25 1,17.5 C1,17.75 1.25,18 1.5,18 L18.5,18 C18.75,18 19,17.75 19,17.5 C19,17.25 18.75,17 18.5,17 Z M3,10.5 L5,10.5 L5,17 L3,17 L3,10.5 Z M11,17 L9,17 L9,16 L11,16 L11,17 Z M12,17 L12,15.5 C12,15.25 11.75,15 11.5,15 L8.5,15 C8.25,15 8,15.25 8,15.5 L8,17 L6,17 L6,6 L14,6 L14,17 L12,17 Z M15,17 L15,8.5 L17,8.5 L17,17 L15,17 Z" id="Shape" fill="#777777"></path>
            </g>
        </g>
    </g>
</svg>