<?xml version="1.0" encoding="UTF-8"?>
<svg height="0.929em"
    viewBox="0 0 12 13"
    version="1.1"
    xmlns="http://www.w3.org/2000/svg" xmlns:xlink="http://www.w3.org/1999/xlink">
    <!-- Generator: Sketch 45.2 (43514) - http://www.bohemiancoding.com/sketch -->
    <title>单行文本 copy 2</title>
    <desc>Created with Sketch.</desc>
    <defs></defs>
    <g id="3.护理人员档案" stroke="none" stroke-width="1" fill="none" fill-rule="evenodd">
        <g id="3.13.2-人员档案信息设置-基本-弹窗1" transform="translate(-435.000000, -131.000000)" fill-rule="nonzero" fill="currentColor">
            <g id="单行文本-copy-2" transform="translate(435.000000, 131.000000)">
                <path d="M7.20983607,8.36102921 L4.14098361,8.36102921 L4.14098361,8.0943401 C4.27868852,8.04495323 4.41639344,8.00544373 4.55409836,7.96593423 C4.69180328,7.92642473 4.83934426,7.89679261 4.99672131,7.87703786 L4.99672131,2.48399135 L3.82622951,2.48399135 L3.33442623,3.77792742 L3.10819672,3.77792742 C3.08852459,3.65939893 3.07868852,3.52111568 3.05901639,3.36307769 C3.03934426,3.2050397 3.03934426,3.05687908 3.0295082,2.88896371 C3.01967213,2.73092572 3.00983607,2.57288772 3.00983607,2.41484973 C3.00983607,2.25681174 3,2.11852849 3,2 L8.35081967,2 C8.35081967,2.11852849 8.35081967,2.25681174 8.34098361,2.40497236 C8.33114754,2.55313298 8.33114754,2.71117097 8.32131148,2.86920896 C8.31147541,3.02724695 8.30163934,3.18528495 8.29180328,3.34332294 C8.28196721,3.50136093 8.27213115,3.63964418 8.25245902,3.76805005 L8.00655738,3.76805005 L7.52459016,2.47411398 L6.36393443,2.47411398 L6.36393443,7.86716049 C6.52131148,7.89679261 6.66885246,7.92642473 6.80655738,7.95605686 C6.9442623,7.98568898 7.08196721,8.02519848 7.20983607,8.08446273 L7.20983607,8.36102921 L7.20983607,8.36102921 Z" id="Shape"></path>
                <path d="M10.3278689,12.6430394 L1.56393443,12.6430394 C0.698360656,12.6430394 0,11.9417458 0,11.0725369 L0,1.64952155 C0,0.78031259 0.708196721,0 1.57377049,0 L10.4065574,0 C11.2721311,0 11.9803279,0.711170968 11.9803279,1.58037993 L11.9803279,11.0626595 C11.9803279,11.9318685 11.1934426,12.6430394 10.3278689,12.6430394 L10.3278689,12.6430394 L10.3278689,12.6430394 Z M11.1934426,1.58037993 C11.1934426,1.14577545 10.8393443,0.790189964 10.4065574,0.790189964 L1.57377049,0.790189964 C1.14098361,0.790189964 0.77704918,1.21491707 0.77704918,1.64952155 L0.77704918,11.0725369 C0.77704918,11.5071414 1.13114754,11.8627268 1.56393443,11.8627268 L10.3278689,11.8627268 C10.7606557,11.8627268 11.1836066,11.497264 11.1836066,11.0725369 L11.1836066,1.58037993 L11.1934426,1.58037993 L11.1934426,1.58037993 L11.1934426,1.58037993 Z M9.13770492,10.549036 L2.84262295,10.549036 C2.62622951,10.549036 2.44918033,10.3712433 2.44918033,10.153941 C2.44918033,9.9366388 2.62622951,9.75884606 2.84262295,9.75884606 L9.13770492,9.75884606 C9.35409836,9.75884606 9.53114754,9.9366388 9.53114754,10.153941 C9.53114754,10.3712433 9.35409836,10.549036 9.13770492,10.549036 L9.13770492,10.549036 L9.13770492,10.549036 Z" id="Shape"></path>
            </g>
        </g>
    </g>
</svg>
