<?xml version="1.0" encoding="UTF-8"?>
<svg width="17px" height="15px" viewBox="0 0 21 17" version="1.1" xmlns="http://www.w3.org/2000/svg" xmlns:xlink="http://www.w3.org/1999/xlink">
    <!-- Generator: Sketch 45.2 (43514) - http://www.bohemiancoding.com/sketch -->
    <title>左对齐</title>
    <desc>Created with Sketch.</desc>
    <defs></defs>
    <g id="2.1-2.4科室排班" stroke="none" stroke-width="1" fill="none" fill-rule="evenodd">
        <g id="选择班次弹窗" transform="translate(-647.000000, -292.000000)" fill-rule="nonzero" fill="currentColor">
            <g id="左对齐" transform="translate(647.000000, 291.000000)">
                <path d="M1.15070359,3.17904504 L19.561961,3.17904504 C20.1983001,3.17904504 20.7126646,2.70430765 20.7126646,2.11936336 C20.7126646,1.53441907 20.1983001,1.05968168 19.561961,1.05968168 L1.15070359,1.05968168 C0.515515208,1.05968168 0,1.53441907 0,2.11936336 C0,2.70430765 0.515515208,3.17904504 1.15070359,3.17904504 Z M1.15070359,17.579045 L19.561961,17.579045 C20.1983001,17.579045 20.7126646,17.1043077 20.7126646,16.5193634 C20.7126646,15.9344191 20.1983001,15.4596817 19.561961,15.4596817 L1.15070359,15.4596817 C0.515515208,15.4596817 0,15.9344191 0,16.5193634 C0,17.1043077 0.515515208,17.579045 1.15070359,17.579045 Z M11.3958906,5.85968168 L0.670346508,5.85968168 C0.300315236,5.85968168 0,6.33441907 0,6.91936336 C0,7.50430765 0.300315236,7.97904504 0.670346508,7.97904504 L11.3958906,7.97904504 C11.7665923,7.97904504 12.0662372,7.50430765 12.0662372,6.91936336 C12.0662372,6.33441907 11.7665923,5.85968168 11.3958906,5.85968168 Z M11.4902274,10.6596817 L0.509772581,10.6596817 C0.228378116,10.6596817 0,11.1333594 0,11.7193634 C0,12.3053673 0.228378116,12.779045 0.509772581,12.779045 L11.4902274,12.779045 C11.7721317,12.779045 12,12.3053673 12,11.7193634 C12,11.1333594 11.7721317,10.6596817 11.4902274,10.6596817 Z" id="Shape"></path>
            </g>
        </g>
    </g>
</svg>