<?xml version="1.0" encoding="UTF-8"?>
<svg width="20px" height="20px" viewBox="0 0 20 20" version="1.1" xmlns="http://www.w3.org/2000/svg" xmlns:xlink="http://www.w3.org/1999/xlink">
    <!-- Generator: Sketch 45.2 (43514) - http://www.bohemiancoding.com/sketch -->
    <title>Group</title>
    <desc>Created with Sketch.</desc>
    <defs></defs>
    <g id="钉钉网页版" stroke="none" stroke-width="1" fill="none" fill-rule="evenodd">
        <g id="导航展开" transform="translate(-12.000000, -98.000000)">
            <g id="Group" transform="translate(12.000000, 98.000000)">
                <rect id="Rectangle-5" fill="#385367" opacity="0.01" x="0" y="0" width="20" height="20"></rect>
                <path d="M12.4158208,6.36996042 C12.7840213,6.36996042 13.103885,6.07113622 13.103885,5.70228358 L13.103885,2.66800291 C13.103885,2.29915027 12.7840057,2 12.4158208,2 C12.0473097,2 11.7488116,2.29915027 11.7488116,2.66800291 L11.7488116,5.70228359 C11.7488116,6.07113622 12.0473097,6.36996042 12.4158208,6.36996042 Z M11.084085,3.68183136 L7.70694447,3.68183136 L7.70694447,4.69041157 L11.084085,4.69041157 L11.084085,3.68183136 Z M15.0352567,3.68183136 L13.7801175,3.68183136 L13.7801175,4.68482172 L15.0832674,4.68482172 C15.466576,4.68482172 15.7900577,5.00895554 15.7900577,5.39260574 L15.7900577,7.72667975 L3.00132893,7.72667975 L3.00132893,5.39260574 C3.00132893,5.00897106 3.32481059,4.68482172 3.70811921,4.68482172 L5.01980917,4.68482172 L5.01980917,3.68183136 L3.76665738,3.68183136 C2.79489256,3.68183136 2,4.47804375 2,5.45145448 L2,15.7140978 C2,16.6871979 2.76562348,17.4833793 3.73738829,17.4833793 L15.0352567,17.4833793 C16.0066644,17.4833793 16.8018986,16.6871979 16.8018986,15.7140978 L16.8018986,5.45145448 C16.8018986,4.47804375 16.0066489,3.68183136 15.0352567,3.68183136 Z M15.7900421,15.7660523 C15.7900421,16.149687 15.4665605,16.4738208 15.0832518,16.4738208 L3.70811921,16.4738208 C3.32481059,16.4738208 3.00132893,16.149687 3.00132893,15.7660523 L3.00132893,8.73164209 L15.7900421,8.73164209 L15.7900421,15.7660523 Z M5.68025025,11.7603329 C6.23943736,11.7603329 6.69244833,11.3063437 6.69244833,10.7461784 C6.69244833,10.1863081 6.23943736,9.7323344 5.68025025,9.7323344 C5.12140474,9.7323344 4.66805217,10.1863236 4.66805217,10.7461784 C4.66805217,11.3063437 5.12138921,11.7603329 5.68025025,11.7603329 Z M9.38680387,11.7603329 C9.94566491,11.7603329 10.3990019,11.3063437 10.3990019,10.7461784 C10.3990019,10.1863081 9.94568044,9.7323344 9.38680387,9.7323344 C8.82761676,9.7323344 8.37460579,10.1863236 8.37460579,10.7461784 C8.37460578,11.3063437 8.82761676,11.7603329 9.38680387,11.7603329 Z M5.6621764,15.4682063 C6.22136351,15.4682063 6.67435896,15.0142171 6.67435896,14.4543624 C6.67435896,13.8941815 6.22136351,13.4401923 5.6621764,13.4401923 C5.10331536,13.4401923 4.64997832,13.8941815 4.64997832,14.4543624 C4.64997831,15.0142172 5.10329983,15.4682063 5.6621764,15.4682063 Z M9.38680387,15.4682063 C9.94566491,15.4682063 10.3990019,15.0142171 10.3990019,14.4543624 C10.3990019,13.8941815 9.94568044,13.4401923 9.38680387,13.4401923 C8.82761676,13.4401923 8.37460579,13.8941815 8.37460579,14.4543624 C8.37460578,15.0142172 8.82761676,15.4682063 9.38680387,15.4682063 Z M13.0880937,11.7603329 C13.6469703,11.7603329 14.1003073,11.3063437 14.1003073,10.7461784 C14.1003073,10.1863081 13.6469703,9.7323344 13.0880937,9.7323344 C12.5289066,9.7323344 12.0758956,10.1863236 12.0758956,10.7461784 C12.0759112,11.3063437 12.5289066,11.7603329 13.0880937,11.7603329 Z M6.35646714,6.36996042 C6.72465211,6.36996042 7.04453142,6.07113622 7.04453142,5.70228358 L7.04453142,2.66800291 C7.04453142,2.29915027 6.72466763,2 6.35646714,2 C5.98797163,2 5.68944245,2.29915027 5.68944245,2.66800291 L5.68944245,5.70228359 C5.68944245,6.07113622 5.98797163,6.36996042 6.35646714,6.36996042 Z" id="Shape" fill="#777777" fill-rule="nonzero"></path>
            </g>
        </g>
    </g>
</svg>