<?xml version="1.0" encoding="UTF-8"?>
<svg width="20px" height="20px" viewBox="0 0 20 20" version="1.1" xmlns="http://www.w3.org/2000/svg" xmlns:xlink="http://www.w3.org/1999/xlink">
    <!-- Generator: Sketch 45.2 (43514) - http://www.bohemiancoding.com/sketch -->
    <desc>Created with Sketch.</desc>
    <defs></defs>
    <g id="钉钉网页版" stroke="none" stroke-width="1" fill="none" fill-rule="evenodd">
        <g id="导航展开" transform="translate(-12.000000, -457.000000)">
            <g id="Group-4" transform="translate(12.000000, 457.000000)">
                <rect id="Rectangle-5-Copy" fill="#385367" opacity="0.01" x="0" y="0" width="20" height="20"></rect>
                <path d="M17.8002868,9.6008301 C17.8002868,9.00133933 17.7252956,8.38329102 17.5774206,7.76392551 C17.5770401,7.76237417 17.5764547,7.76091065 17.5761034,7.75935931 C17.5756937,7.75777869 17.575518,7.75619808 17.5751375,7.7545882 C17.5730593,7.74645097 17.5701615,7.73875281 17.5677613,7.73079121 C17.5648343,7.72107337 17.5621414,7.71123848 17.558746,7.70178407 C17.5555262,7.69273947 17.5516333,7.68410463 17.5480037,7.67532347 C17.54414,7.66601543 17.5404811,7.65656102 17.5361784,7.64751642 C17.5320805,7.63894014 17.5274265,7.63077364 17.5229481,7.62249007 C17.5182648,7.61379671 17.5138156,7.60498626 17.5087226,7.59661488 C17.5038051,7.58847765 17.4983315,7.58077949 17.4930335,7.57293499 C17.4876477,7.56497339 17.4824961,7.55686545 17.4767591,7.54922583 C17.4710221,7.54155694 17.4647874,7.53438564 17.4586991,7.52703872 C17.4526987,7.51980888 17.4469031,7.5124327 17.4406099,7.50555413 C17.4341411,7.49847065 17.427204,7.49191403 17.4204425,7.4851818 C17.4138566,7.47865445 17.4074463,7.47198078 17.400597,7.46577541 C17.3935136,7.45939442 17.3860496,7.45354031 17.3786734,7.44751057 C17.3715021,7.44165646 17.3645064,7.43562672 17.3570717,7.43009457 C17.3495199,7.42450388 17.3416168,7.41944009 17.3338016,7.41422991 C17.3260449,7.40901976 17.3184053,7.40363397 17.3103851,7.39880432 C17.3024528,7.39400395 17.2941692,7.38978899 17.2860027,7.3853984 C17.2776606,7.38089074 17.2694648,7.3762367 17.2609178,7.37210955 C17.2526342,7.36812874 17.2441165,7.36479191 17.2356573,7.36119163 C17.2268176,7.35744499 17.2180657,7.35352274 17.2090503,7.35021517 C17.200474,7.34708322 17.1916343,7.34453668 17.1829117,7.34178526 C17.1736915,7.33888747 17.164559,7.33578479 17.1551925,7.33335534 C17.1462357,7.3310137 17.1371032,7.32934526 17.1280001,7.32744268 C17.118575,7.32548155 17.1092084,7.32325699 17.0996662,7.32176418 C17.0902996,7.32027137 17.0808159,7.31948108 17.0713615,7.31845661 C17.0618486,7.31743215 17.0524235,7.31617351 17.0428227,7.3155881 C17.0330756,7.31500268 17.0232407,7.31514905 17.013435,7.31506122 C17.0039514,7.31497341 16.9945263,7.31465144 16.9850133,7.31503195 C16.9749735,7.31544173 16.9648752,7.31661256 16.9547768,7.31754922 C16.9453517,7.31842734 16.9359558,7.31904203 16.9265014,7.3203592 C16.9164323,7.32179347 16.906334,7.32401801 16.8962356,7.32597916 C16.8881862,7.32755977 16.8801661,7.3285257 16.8720874,7.33045756 C16.8705361,7.33083807 16.8690725,7.33142349 16.8675212,7.33177473 C16.8659406,7.33218451 16.86436,7.33236015 16.8627501,7.33274066 C16.4601625,7.43589019 16.041242,7.37881256 15.6828237,7.17184028 C15.3188148,6.96205803 15.0583944,6.62287054 14.9494786,6.21679976 C14.8403871,5.80993868 14.896411,5.38490058 15.1068372,5.02071601 C15.1703251,4.91118549 15.251229,4.8056065 15.3472658,4.70693537 C15.3482024,4.70596944 15.3489635,4.70491571 15.3498709,4.70394978 C15.3506904,4.70307166 15.3516271,4.70236917 15.3524467,4.70149104 C15.3582422,4.6953735 15.3632182,4.68878761 15.3687211,4.6825237 C15.3755997,4.67462064 15.3827417,4.66686394 15.389152,4.65869744 C15.3949183,4.65135053 15.3999528,4.64365237 15.4053093,4.63610055 C15.4112805,4.62764134 15.4175152,4.6193285 15.4229888,4.61066442 C15.4279648,4.60276135 15.4322383,4.59459488 15.4368045,4.58654545 C15.4417512,4.57782283 15.4469321,4.56921728 15.4513812,4.56031902 C15.4556255,4.55185981 15.4591379,4.54316646 15.4629431,4.53453164 C15.4668361,4.52569192 15.4709925,4.51696929 15.4744172,4.50798323 C15.4778126,4.49908497 15.4805054,4.48998181 15.4834618,4.48096648 C15.4863888,4.47200968 15.4895793,4.4631407 15.4920673,4.45406683 C15.4945846,4.44484659 15.4963994,4.43550929 15.4984483,4.42620122 C15.500468,4.41712733 15.5027511,4.408112 15.504361,4.3989503 C15.5059709,4.38958373 15.5068782,4.38012932 15.5080198,4.37070419 C15.5091613,4.36151322 15.5105663,4.35235152 15.5112688,4.34313129 C15.5119713,4.33373542 15.5119713,4.32433958 15.5122347,4.31494371 C15.5124982,4.3056064 15.513025,4.29626907 15.5128494,4.28693176 C15.5126738,4.27768226 15.5117664,4.26843276 15.5111517,4.25918326 C15.5105078,4.24972885 15.5101273,4.24027447 15.5090442,4.2308786 C15.5079905,4.22174617 15.5062343,4.21273084 15.5047415,4.20365695 C15.5031901,4.19420254 15.5019022,4.18474816 15.4998826,4.1753523 C15.4979507,4.1663955 15.4953456,4.15761432 15.493004,4.14871606 C15.4905452,4.13937875 15.4883207,4.12998288 15.4853936,4.12076265 C15.4825836,4.11198147 15.4791004,4.10340518 15.4758807,4.0947411 C15.4725145,4.08566721 15.4694119,4.0765348 15.4655774,4.06760727 C15.4618601,4.05894319 15.4574402,4.05054252 15.4532838,4.04202479 C15.4490688,4.03338998 15.4451173,4.02466733 15.4404633,4.01620814 C15.43578,4.0076904 15.4303649,3.99952392 15.4252133,3.99121106 C15.420208,3.98313238 15.4154662,3.97490735 15.4100511,3.96703356 C15.4044019,3.95883779 15.3980209,3.95102255 15.3919034,3.94303169 C15.3860785,3.9354506 15.3805464,3.92772318 15.3742825,3.92037626 C15.3677844,3.91270737 15.3605546,3.90547753 15.3535882,3.89810135 C15.3476755,3.89180817 15.3422312,3.8852223 15.3359673,3.879134 C15.3350599,3.87825588 15.3340647,3.87752412 15.333128,3.876646 C15.3322207,3.87576788 15.3314596,3.87480195 15.3305522,3.87392382 C14.42855,3.01843256 13.3286201,2.38144617 12.1496597,2.03177981 C12.1478741,2.03125293 12.1460887,2.03098952 12.1443031,2.03049191 C12.1425176,2.0299943 12.1408492,2.02926254 12.1390637,2.02876495 C12.1312778,2.02659893 12.1234625,2.02536956 12.1156765,2.0235548 C12.1056953,2.02121316 12.095714,2.01866662 12.0857327,2.01688111 C12.0763954,2.01521269 12.0670874,2.01421749 12.0577501,2.01301739 C12.0476224,2.01170022 12.0375241,2.01017814 12.0274257,2.00941712 C12.0180592,2.00871463 12.0087804,2.00865609 11.9994723,2.00839265 C11.9894911,2.00809995 11.9795098,2.00763163 11.9696163,2.00786577 C11.9602205,2.00807068 11.9509417,2.00894878 11.9416044,2.00962202 C11.9319158,2.01032451 11.922198,2.01082212 11.9125972,2.01199293 C11.9032014,2.01313449 11.8939812,2.01491998 11.8847024,2.01650059 C11.8753358,2.01811047 11.8659399,2.01951545 11.8566612,2.02156441 C11.8474702,2.02361334 11.8384549,2.02627697 11.829381,2.02876498 C11.8202778,2.03125298 11.8111454,2.03356535 11.8021886,2.03646314 C11.7932903,2.03936092 11.7846555,2.04284412 11.7759622,2.04615169 C11.7671225,2.04951782 11.7582535,2.05270831 11.7495894,2.05648419 C11.7411302,2.0601723 11.7329637,2.06441652 11.7246801,2.06851441 C11.7161331,2.07272936 11.7075568,2.07676871 11.6992147,2.08139345 C11.6912531,2.08581331 11.6835842,2.09076003 11.6758275,2.0955604 C11.6676318,2.10062421 11.6593775,2.10551239 11.6514451,2.11095672 C11.6439811,2.11607907 11.6368684,2.1217283 11.6296386,2.12720189 C11.6219111,2.133056 11.6140959,2.13876376 11.6066612,2.14499841 C11.5996655,2.15085251 11.5931089,2.15720423 11.5864059,2.16338034 C11.5792639,2.16993696 11.5720633,2.17634721 11.5652433,2.18328434 C11.5587452,2.1898995 11.5527155,2.19698297 11.5465101,2.20392011 C11.5401291,2.21109141 11.5336311,2.21808706 11.527572,2.2256096 C11.5215716,2.23301506 11.516098,2.24088885 11.510478,2.24864554 C11.5048873,2.25631443 11.4991796,2.26383698 11.4939401,2.27179858 C11.4885251,2.28005289 11.4836662,2.28871697 11.4786609,2.29729325 C11.4739191,2.30534266 11.4690309,2.31327499 11.4646696,2.3216171 C11.459957,2.33063243 11.4558884,2.3400283 11.4516149,2.3493656 C11.4477219,2.35788335 11.4436533,2.36625473 11.4401408,2.37500664 C11.4363356,2.38451959 11.4331744,2.39441304 11.4298376,2.40421869 C11.427291,2.41174124 11.4242176,2.41894179 11.4219345,2.42661068 C11.4214076,2.42836692 11.4211442,2.43015241 11.4206466,2.43190866 C11.4201197,2.43372344 11.4194172,2.43539186 11.4188904,2.43717738 C11.3083647,2.83721839 11.04932,3.17195677 10.6893212,3.37980717 C10.3249024,3.59035045 9.90044972,3.64625727 9.49405698,3.53725364 C9.08772278,3.42827927 8.74815476,3.1674784 8.53737731,2.80188882 C8.47467973,2.69361695 8.42354401,2.57003656 8.385463,2.43454303 C8.38508249,2.43319659 8.38452634,2.43193795 8.38411656,2.43056222 C8.38376531,2.42930358 8.38356041,2.42801568 8.38320917,2.42675704 C8.38083826,2.41879544 8.3777063,2.41133146 8.37504267,2.40354547 C8.37164727,2.39359348 8.36845678,2.38346585 8.36459307,2.37380657 C8.36110986,2.36517175 8.35701198,2.35697598 8.35314827,2.34857533 C8.34881621,2.3391502 8.34471835,2.32957872 8.33991795,2.32047558 C8.33561517,2.31225054 8.33072699,2.30452312 8.32604369,2.29659079 C8.32092134,2.28789743 8.31603316,2.27902844 8.31050101,2.27065706 C8.30537866,2.2628711 8.29967089,2.25555345 8.2941973,2.24808944 C8.288431,2.24018638 8.2828403,2.23210771 8.27672276,2.22455589 C8.27078082,2.21723825 8.26437057,2.21047675 8.25813595,2.20348108 C8.25175496,2.19633907 8.24557888,2.18905069 8.23887592,2.1822599 C8.23229003,2.17558621 8.22526509,2.16946866 8.21838652,2.16314621 C8.21139085,2.15670669 8.20457081,2.15009153 8.19728244,2.14403252 C8.19016969,2.13809059 8.18267641,2.13273409 8.17530023,2.12717267 C8.16768988,2.12140637 8.16025516,2.11546443 8.15238137,2.11007864 C8.14485882,2.10492702 8.13698505,2.10039009 8.12922833,2.09558969 C8.12100329,2.09052588 8.11295389,2.08525719 8.10449468,2.08060316 C8.09665016,2.07630037 8.08851295,2.07258302 8.08049281,2.06860221 C8.07171163,2.06427016 8.06301828,2.05973322 8.05403221,2.05581097 C8.04592427,2.0522985 8.03755287,2.04942999 8.02929856,2.04626876 C8.02001979,2.04272702 8.01082883,2.03900965 8.00134515,2.03593626 C7.99297377,2.03321408 7.98439749,2.03116515 7.97587975,2.02885278 C7.96622046,2.02618917 7.95664899,2.02334992 7.94684334,2.02118389 C7.93814998,2.0192813 7.92931026,2.01805194 7.92052908,2.01652986 C7.91066489,2.01483218 7.90088851,2.01290032 7.89090725,2.01170022 C7.88189192,2.01061722 7.87275949,2.01026595 7.86365633,2.009622 C7.85373361,2.00891951 7.84386942,2.00795358 7.83385887,2.00774868 C7.82449229,2.00757304 7.81503789,2.00812919 7.80558348,2.00839263 C7.79574857,2.00865607 7.78594292,2.00868534 7.77607873,2.00947563 C7.76641945,2.01023666 7.75673087,2.011788 7.74704232,2.01304664 C7.73729521,2.01430527 7.72757738,2.01530047 7.71783027,2.01705672 C7.70814172,2.01881296 7.69848241,2.02138877 7.68882313,2.02367187 C7.68033465,2.02566227 7.67181693,2.02709654 7.66332845,2.02946744 C7.66198201,2.02984796 7.66072338,2.0304041 7.65937694,2.03078462 C7.6581183,2.03116513 7.6568304,2.03134076 7.65554249,2.03172128 C6.47666984,2.38100712 5.37644726,3.01787641 4.47388889,3.87348477 C4.47274733,3.87456778 4.47181067,3.87573861 4.4706984,3.87682161 C4.46958613,3.87790461 4.46835676,3.87875347 4.46727373,3.87986576 C4.46127326,3.88571987 4.45612164,3.89207158 4.45041388,3.89810133 C4.44338894,3.90556531 4.4361591,3.91288296 4.4296025,3.92063968 C4.42345569,3.92792805 4.4179528,3.93553841 4.41221577,3.94303166 C4.40603969,3.95111034 4.39962941,3.95904267 4.39392167,3.96735551 C4.38856515,3.97514147 4.38388185,3.98322017 4.3789644,3.99121103 C4.37375425,3.99964095 4.36830992,4.00798308 4.36356808,4.0166179 C4.35900188,4.02490148 4.35510888,4.03344849 4.35098172,4.04190767 C4.3467375,4.05060103 4.34228837,4.05917731 4.33851246,4.06801703 C4.33476582,4.07676892 4.33172169,4.08569647 4.3284141,4.09459471 C4.3251358,4.1034637 4.32162333,4.11224486 4.31875482,4.12120168 C4.3158863,4.13027557 4.31369101,4.13946651 4.31129083,4.14862821 C4.30889063,4.15767281 4.30628555,4.16665889 4.3043537,4.1757913 C4.30239257,4.18501153 4.30110467,4.19434884 4.29955332,4.2036569 C4.29806052,4.21287714 4.29630429,4.22203883 4.29525054,4.23131761 C4.2941968,4.24059638 4.293787,4.24990442 4.29317232,4.25924175 C4.29255763,4.26863761 4.29170878,4.27800419 4.2915039,4.28740003 C4.29132826,4.29664954 4.29182587,4.30586977 4.29208931,4.31511927 C4.29235275,4.32460295 4.29241129,4.33408662 4.29314305,4.34357027 C4.29384554,4.3527027 4.29522127,4.36177657 4.29633354,4.37085046 C4.29753364,4.38039267 4.2984703,4.38996415 4.30013872,4.39944782 C4.30171933,4.40843388 4.30394389,4.41730287 4.30593429,4.42625967 C4.30804178,4.4356848 4.3099151,4.44516845 4.31252017,4.45450578 C4.31497891,4.46346258 4.31811087,4.47221449 4.32100865,4.48105419 C4.32402351,4.49021589 4.32677495,4.49937759 4.33022888,4.50839292 C4.33362428,4.51729118 4.33772216,4.52595526 4.34158588,4.53467791 C4.34542032,4.54337127 4.34899133,4.55212318 4.35329412,4.56064093 C4.35768471,4.56942211 4.36280706,4.57793983 4.36769524,4.58654538 C4.37232,4.59471188 4.37671057,4.60299546 4.38174511,4.61095705 C4.38716017,4.61950407 4.39327772,4.62769984 4.39916111,4.63601268 C4.40460544,4.64368157 4.40975706,4.65146756 4.41564046,4.65893154 C4.42196291,4.66701021 4.42901711,4.6747084 4.43583715,4.68252363 C4.44122294,4.68869971 4.44611112,4.69513926 4.45176034,4.70113971 C4.45278481,4.70222271 4.45392637,4.70310083 4.45495084,4.70418386 C4.45606311,4.70535469 4.45699977,4.70661332 4.45811206,4.70778413 C4.74806644,5.00417804 4.90773745,5.39520372 4.90773745,5.80911901 C4.90797162,6.22956164 4.74426127,6.62494863 4.4467258,6.92242556 C4.14904399,7.22001956 3.75310083,7.38396409 3.33189717,7.38396409 C3.20819969,7.38396409 3.07651136,7.36646028 2.94043241,7.33189171 C2.93911524,7.33154047 2.9377688,7.33142339 2.93642233,7.33110142 C2.93501736,7.33075017 2.93372945,7.33022329 2.93232445,7.32990132 C2.92380671,7.32788166 2.91528896,7.32679863 2.90677124,7.32515948 C2.89699486,7.32325689 2.8872185,7.3210616 2.87744212,7.31968589 C2.86775357,7.31831018 2.8581528,7.31772476 2.84849351,7.31684664 C2.83860006,7.31593925 2.8287066,7.31476842 2.81884242,7.3143879 C2.80932948,7.31400739 2.79993363,7.3143879 2.79044996,7.31447571 C2.78058577,7.31456351 2.77069232,7.3143879 2.76088667,7.31497332 C2.75157863,7.31552947 2.74241693,7.31681737 2.73316743,7.31781257 C2.72342032,7.3188663 2.71361469,7.31968589 2.70392612,7.32123723 C2.69491078,7.3226715 2.6861296,7.32480824 2.67720207,7.32665229 C2.66751352,7.32867195 2.65779568,7.33045746 2.64825347,7.33297474 C2.63970645,7.3351993 2.63139361,7.33809709 2.62299296,7.34070216 C2.61339222,7.34368775 2.60373293,7.34646847 2.59433707,7.3499224 C2.58628766,7.35287872 2.57853094,7.35644975 2.57065717,7.35975732 C2.56120277,7.36370883 2.55168983,7.36748474 2.54246959,7.37193387 C2.53500561,7.37553415 2.5278343,7.37969057 2.52051666,7.38361284 C2.51129642,7.38855958 2.50195912,7.39333068 2.49300232,7.39877501 C2.48609446,7.4029607 2.47956713,7.40767327 2.4728349,7.4121224 C2.46393664,7.41803506 2.45495058,7.4237721 2.4463743,7.43015308 C2.43996404,7.43492419 2.4339343,7.4401929 2.42772893,7.44522742 C2.41935755,7.45198892 2.41092761,7.45863335 2.40293674,7.46589246 C2.39693627,7.47133678 2.39137487,7.47722018 2.38560857,7.48292795 C2.37796895,7.49042123 2.37027079,7.49779741 2.36304095,7.50572974 C2.35742099,7.51190582 2.35226937,7.51855025 2.34688358,7.52501906 C2.34018062,7.53306846 2.33330202,7.54097152 2.32700887,7.54943073 C2.32174015,7.55648494 2.31702761,7.56397822 2.31208087,7.57129586 C2.3063731,7.57975507 2.30048973,7.58800935 2.29516247,7.59681981 C2.29033283,7.6047814 2.28614714,7.61321132 2.28169801,7.62143636 C2.27701471,7.63012971 2.27209727,7.63867673 2.26782375,7.64766279 C2.26360879,7.65650251 2.26009632,7.66575201 2.25632041,7.67485515 C2.25260304,7.68381194 2.24865152,7.6926224 2.24534396,7.70184263 C2.24194856,7.7113263 2.23928495,7.72116122 2.23638716,7.73090831 C2.23395769,7.73904554 2.23100137,7.74691931 2.22889388,7.75526142 C2.22854264,7.75660786 2.22839627,7.7579836 2.2280743,7.75933004 C2.22772305,7.76070575 2.22722544,7.76196438 2.22690346,7.76334012 C2.07896994,8.3826178 2.00397872,9.00087101 2.00397872,9.60091793 C2.00397872,10.1991501 2.07870652,10.8169349 2.22602534,11.43712 C2.22646439,11.4389641 2.22710834,11.4406617 2.22754742,11.4424765 C2.22792793,11.4439401 2.2280743,11.4454328 2.22845481,11.4468964 C2.22965491,11.4514919 2.23135259,11.4558239 2.2326405,11.4603608 C2.23606516,11.4725667 2.2396947,11.484714 2.24385113,11.49651 C2.24613423,11.5030081 2.2486515,11.5093598 2.25116877,11.5157701 C2.25544227,11.5267172 2.26000849,11.5374888 2.26489667,11.5480848 C2.26779446,11.5543779 2.27078005,11.5606126 2.27388273,11.5667887 C2.27918072,11.577209 2.28482992,11.5873952 2.29071332,11.5974057 C2.29399162,11.6030549 2.29718211,11.6087334 2.30066531,11.6142363 C2.30757318,11.6251542 2.31494936,11.6356623 2.32250118,11.6460534 C2.3254575,11.6500927 2.3281504,11.654337 2.33119453,11.6582592 C2.34199538,11.6723091 2.3533231,11.6858614 2.36529476,11.698799 C2.36763639,11.7013162 2.3702122,11.7036286 2.3726124,11.7061166 C2.38241805,11.7163613 2.39245785,11.7263426 2.40296599,11.7358263 C2.40756146,11.7399827 2.41239112,11.7438171 2.41713294,11.7478272 C2.42585556,11.7552326 2.43469528,11.7624625 2.44382771,11.7693411 C2.44924277,11.7734097 2.4547749,11.7772734 2.46030705,11.7811371 C2.46932238,11.7874303 2.47845481,11.79346 2.48779212,11.7992556 C2.49355842,11.8028266 2.49932472,11.8063391 2.50520812,11.809676 C2.51501377,11.8152959 2.5250243,11.8205061 2.53515193,11.8255406 C2.54080115,11.8283506 2.54636255,11.8312776 2.55209959,11.833912 C2.56395417,11.839327 2.57604292,11.844186 2.58824876,11.84884 C2.59249299,11.8504499 2.59662014,11.8523232 2.60089366,11.8538453 C2.61746081,11.8596994 2.63432067,11.864851 2.65144396,11.8692123 C2.6551906,11.8701782 2.65902505,11.8707637 2.66277169,11.8716418 C2.67617761,11.8747737 2.68967134,11.877613 2.70336999,11.8798083 C2.70972171,11.8808327 2.71616123,11.8814474 2.72257149,11.8822377 C2.73386992,11.883672 2.74516838,11.8849014 2.75661317,11.8856624 C2.76378448,11.88616 2.77098503,11.8863649 2.7781856,11.8865991 C2.78386409,11.8867454 2.78945476,11.8873016 2.79516253,11.8873016 C2.80286069,11.8873016 2.81058811,11.886921 2.81831556,11.8866283 C2.8207743,11.8865405 2.82323301,11.8865405 2.82569175,11.8864234 C2.8424638,11.8855453 2.85929438,11.8837598 2.87621278,11.8814182 C2.87975451,11.8809206 2.88326698,11.880423 2.88680872,11.8798668 C2.90150255,11.8775252 2.91622564,11.8748615 2.93094876,11.8713491 C2.93258791,11.8709686 2.93410999,11.8703539 2.93574914,11.8699441 C2.93741755,11.8695343 2.9390567,11.8693587 2.94069588,11.8689489 C3.34389812,11.7658286 3.76278941,11.8227892 4.12056373,12.0296444 C4.48498247,12.2399242 4.74557844,12.5795508 4.85434793,12.9859143 C4.96314668,13.3924827 4.90700569,13.8172866 4.69561356,14.1833152 C4.63320868,14.2919383 4.55309509,14.3965221 4.45752665,14.4941688 C4.45638508,14.4953396 4.45547771,14.4965982 4.45433615,14.497769 C4.45322388,14.4989399 4.45196525,14.4999058 4.45085295,14.5010766 C4.44514519,14.5071356 4.44022774,14.5136044 4.43481268,14.5198391 C4.42810972,14.5275665 4.42114332,14.5351183 4.41490868,14.5431092 C4.40899601,14.5506317 4.40378585,14.5584762 4.39831226,14.5662037 C4.39245815,14.574458 4.38639914,14.5826245 4.38101335,14.5911129 C4.37592027,14.5991331 4.37152968,14.6074166 4.36687567,14.6156124 C4.36201676,14.6241887 4.35695295,14.6326772 4.35253309,14.6414291 C4.34825959,14.6499761 4.34463003,14.658728 4.34082485,14.6674213 C4.33696114,14.6761732 4.33289252,14.6848373 4.32946786,14.6937063 C4.32601393,14.7026924 4.32326251,14.7118248 4.32027689,14.720928 C4.31737911,14.729797 4.31421788,14.7386074 4.31175915,14.7475935 C4.30921261,14.7568723 4.30733929,14.7662681 4.3052318,14.7756347 C4.3032414,14.78465 4.30098757,14.7936068 4.29940696,14.8026807 C4.29776781,14.8121059 4.29680188,14.8215602 4.29563105,14.8310439 C4.29448949,14.8402056 4.29314305,14.849338 4.29241129,14.858529 C4.2917088,14.8679248 4.29165026,14.87735 4.29135756,14.8867458 C4.29109412,14.8960831 4.2906258,14.9053912 4.29077214,14.9146992 C4.29091848,14.9240073 4.29179661,14.9332568 4.29241129,14.9425648 C4.29302597,14.95199 4.29346502,14.9614151 4.29451878,14.9707817 C4.29557251,14.9799434 4.29727022,14.9890173 4.29876301,14.9981497 C4.30028508,15.0075455 4.30163152,15.0169999 4.30362192,15.0263373 C4.30555377,15.0353526 4.30812958,15.0442216 4.31047124,15.0531784 C4.31290071,15.0624279 4.31515454,15.0717359 4.31805233,15.0808976 C4.32086231,15.0897959 4.32434551,15.0984892 4.32759454,15.1072411 C4.33090211,15.1162272 4.33403406,15.1252133 4.33780997,15.134053 C4.34155661,15.1428049 4.3459472,15.1513226 4.35013289,15.1599282 C4.35428931,15.1684752 4.35824083,15.1770807 4.36283633,15.1854521 C4.36754889,15.1940284 4.37293468,15.202312 4.37811557,15.2106834 C4.38306231,15.2187035 4.38780412,15.2268407 4.39318991,15.234656 C4.39886841,15.2429395 4.40524939,15.2508426 4.41139621,15.2588627 C4.41716251,15.2663853 4.42269464,15.2740542 4.42890002,15.2813718 C4.43545663,15.2890992 4.44265718,15.2963876 4.44962358,15.3038224 C4.45527281,15.3098521 4.4604537,15.3161453 4.46639563,15.3219994 C4.46756647,15.3231409 4.46885437,15.3240776 4.47002518,15.3252191 C4.47119601,15.3263314 4.47213267,15.3275608 4.47330348,15.3286731 C5.37597892,16.1836375 6.47608445,16.8202141 7.65469364,17.1695585 C7.65674257,17.1701731 7.65879152,17.1705536 7.66084045,17.1711391 C7.66224543,17.1715488 7.66353333,17.172105 7.66493834,17.1724855 C7.66789466,17.1733051 7.67082171,17.1736856 7.67377806,17.1744466 C7.68756449,17.1780469 7.70138022,17.1811203 7.71519593,17.1836669 C7.71976213,17.1845157 7.72432836,17.1854231 7.72889456,17.1861549 C7.74633983,17.1889648 7.7637851,17.1911894 7.78117181,17.1923895 C7.78237191,17.1924773 7.78354272,17.1924188 7.78474282,17.1925066 C7.79694864,17.1932676 7.80915449,17.1937945 7.82130178,17.1937945 C7.82496059,17.1937945 7.82853162,17.193414 7.83216116,17.1933554 C7.83833724,17.1932384 7.84445481,17.1929164 7.85060163,17.1926237 C7.86248548,17.192009 7.87428152,17.1910723 7.88604829,17.1897552 C7.8921073,17.1890819 7.89816631,17.1884087 7.90416678,17.1875306 C7.91681168,17.1856865 7.92931021,17.1833449 7.94175021,17.1807398 C7.94646278,17.1797446 7.95117535,17.1789543 7.95582935,17.1778713 C7.97286484,17.1738027 7.98969541,17.1691194 8.00623329,17.1635873 C8.00807734,17.1629726 8.00983356,17.1621823 8.01164834,17.1615383 C8.02625437,17.1565038 8.04062622,17.1508839 8.05479319,17.1447078 C8.05968137,17.1426003 8.06439394,17.1402294 8.06922358,17.1379755 C8.08031713,17.1327654 8.09123505,17.1272918 8.10197736,17.1214376 C8.10704118,17.1186569 8.11207572,17.1158177 8.1170517,17.1128906 C8.12761838,17.1067145 8.13795091,17.1001287 8.14813707,17.0932793 C8.15249839,17.090323 8.15691825,17.087513 8.16122102,17.0844396 C8.17345611,17.075717 8.18533998,17.0664968 8.19687259,17.0568374 C8.19868737,17.0553446 8.20056069,17.0539982 8.20234618,17.0524761 C8.2157521,17.0409728 8.22863117,17.0288255 8.24101261,17.0161221 C8.24367622,17.0133706 8.24613496,17.0104143 8.2487693,17.0076336 C8.25807734,16.9976523 8.26712196,16.9874369 8.27578605,16.9767531 C8.27944486,16.9722455 8.28289879,16.9675914 8.28641126,16.962996 C8.29369964,16.9534537 8.30069531,16.9436774 8.30739827,16.9336668 C8.3108522,16.9285152 8.31427687,16.9233343 8.31758443,16.9180363 C8.32411179,16.9075575 8.33022933,16.8967274 8.33614198,16.8857509 C8.33880559,16.8807749 8.34164484,16.8759453 8.34416211,16.8708814 C8.35209444,16.8550168 8.35949989,16.8388302 8.36605651,16.8220581 C8.36629068,16.821502 8.36649556,16.8209166 8.36670046,16.8203604 C8.37246677,16.805491 8.37767692,16.7902996 8.38230168,16.7747276 C8.38282856,16.7730007 8.38306271,16.7712737 8.38353105,16.769576 C8.38402866,16.767849 8.38476042,16.7662099 8.38522874,16.7644829 C8.49575445,16.364998 8.75476983,16.0303182 9.11444671,15.8222044 C9.47839711,15.6117196 9.90264492,15.555725 10.3090377,15.6645237 C10.7159573,15.7734688 11.0559058,16.0343283 11.2668589,16.3999764 C11.3294394,16.5080141 11.3792872,16.6288138 11.4192415,16.769254 C11.4195635,16.7704541 11.4200318,16.7715371 11.4203831,16.7727372 C11.4206465,16.7736739 11.4207929,16.7746105 11.4210563,16.7755472 C11.4231345,16.7825429 11.4257689,16.7891873 11.4280812,16.7960659 C11.4307156,16.8038811 11.4331451,16.8117842 11.4360721,16.8194238 C11.4389699,16.8269756 11.442336,16.8342054 11.4455265,16.8415816 C11.4487755,16.8491042 11.451849,16.8567731 11.4553907,16.8640907 C11.4589032,16.8713791 11.4628547,16.8783162 11.4666306,16.8853997 C11.4703772,16.8924246 11.4739775,16.8995959 11.4779876,16.906416 C11.482144,16.9134702 11.4866809,16.9201439 11.4911008,16.9269639 C11.4952865,16.9334327 11.4992966,16.9400479 11.5037164,16.9463118 C11.5085168,16.9531025 11.5136977,16.9595128 11.5187322,16.9660694 C11.5232692,16.9719528 11.5276012,16.9779825 11.5323431,16.983661 C11.5377874,16.9901884 11.5436122,16.9963059 11.5492907,17.0025698 C11.5540911,17.0078385 11.5587159,17.0132829 11.5636918,17.0183759 C11.5697216,17.0245228 11.5761318,17.0302598 11.582425,17.0361139 C11.5874888,17.0408558 11.5923477,17.0457732 11.5975872,17.0503102 C11.6041731,17.0560179 11.6110516,17.0612866 11.6178717,17.0667017 C11.623199,17.0709459 11.6283213,17.0753658 11.6337949,17.0794051 C11.6407613,17.0845567 11.6480497,17.08924 11.655221,17.0940697 C11.6608702,17.0978748 11.6663731,17.1019142 11.6721394,17.1055145 C11.679457,17.1100807 11.6870381,17.11412 11.6945313,17.1183642 C11.7005025,17.1217304 11.7062981,17.1253306 11.7123864,17.1284919 C11.7199675,17.1324434 11.727812,17.1358388 11.7355687,17.1394683 C11.7418326,17.1423954 11.7479502,17.1455566 11.7543311,17.1482495 C11.7621171,17.1515571 11.7701373,17.1543085 11.7780989,17.1572941 C11.7846555,17.1597236 11.791095,17.162475 11.7977687,17.1646703 C11.8059352,17.1673925 11.8143066,17.1695292 11.8225902,17.1719001 C11.8292053,17.1737735 11.8357326,17.1759688 11.8424356,17.1776079 C11.8514217,17.1798325 11.8605834,17.1814423 11.8697158,17.1832279 C11.8758626,17.1844572 11.8819509,17.1859793 11.8881855,17.1870038 C11.8998352,17.1889064 11.9116313,17.1901357 11.9234273,17.1913358 C11.9272032,17.1917163 11.9309499,17.1923896 11.934755,17.1927115 C11.9504733,17.1939994 11.9662794,17.1946727 11.9822026,17.1946727 C11.9861542,17.1946727 11.990135,17.1943214 11.9940865,17.1942336 C12.0035994,17.194058 12.0130831,17.1938824 12.0226253,17.1932091 C12.0287429,17.1927701 12.0348897,17.1919212 12.0410365,17.1913066 C12.0485298,17.1905455 12.0560231,17.1899601 12.0635456,17.1888771 C12.0699559,17.1879697 12.0763661,17.1866233 12.0828056,17.185511 C12.0900647,17.1842523 12.0973238,17.1831108 12.1045829,17.1815594 C12.1109639,17.1801837 12.1173742,17.1784275 12.1237552,17.1768176 C12.1300483,17.1752663 12.1363708,17.1739491 12.1426347,17.1721636 C12.1434543,17.1719294 12.144186,17.1715782 12.1450056,17.171344 C12.1462935,17.1709635 12.1476107,17.1707293 12.1489278,17.1703488 C13.3271565,16.8208873 14.4272328,16.1840766 15.3302302,15.3287609 C15.331401,15.3276487 15.3323962,15.32639 15.3335378,15.3252777 C15.3347379,15.3241362 15.3360258,15.3231995 15.3371966,15.3220287 C15.3431385,15.3162039 15.3482901,15.3099107 15.3539101,15.3039102 C15.3609057,15.2964755 15.3681356,15.2891578 15.3746629,15.2814304 C15.380839,15.2741127 15.3863711,15.2664731 15.3921374,15.2589213 C15.3982843,15.2509012 15.4046652,15.2429981 15.4103437,15.2347145 C15.4157295,15.22687 15.4204421,15.2187621 15.4254181,15.2107127 C15.430599,15.2023413 15.4359555,15.1940577 15.440668,15.1854814 C15.4452928,15.1770808 15.4492151,15.1684752 15.4534008,15.159899 C15.4575864,15.1513227 15.4619478,15.1428342 15.4656944,15.1341116 C15.4694703,15.1252426 15.4726023,15.1161687 15.4759684,15.1071534 C15.4791881,15.0984307 15.4826421,15.0897666 15.485452,15.0809269 C15.4883791,15.071736 15.4906037,15.0623694 15.4930624,15.0530613 C15.495404,15.0441631 15.4979506,15.0353233 15.4998824,15.0263373 C15.5018728,15.0169707 15.5032193,15.007487 15.5047413,14.9980619 C15.5062342,14.988988 15.5079318,14.9799434 15.5089856,14.9707817 C15.5100686,14.9613858 15.5104784,14.9519315 15.5111223,14.9424771 C15.511737,14.9332276 15.5125566,14.9239781 15.5127322,14.9146993 C15.5129078,14.9053327 15.5124102,14.8959954 15.5121468,14.8866581 C15.5118834,14.8772622 15.5118248,14.8678956 15.5110931,14.858529 C15.5103906,14.8492795 15.5090148,14.8400886 15.5078733,14.8308683 C15.5067025,14.8214725 15.5057365,14.8120474 15.5040974,14.8026808 C15.5025168,14.7935191 15.5002629,14.7845037 15.498214,14.7754298 C15.4961358,14.7661511 15.4942625,14.7568138 15.4917452,14.7475935 C15.4892572,14.7385196 15.486096,14.7296507 15.4831397,14.7206939 C15.4801834,14.7116785 15.4774319,14.7026339 15.4740072,14.6937357 C15.4705533,14.6847496 15.4664262,14.6759977 15.4625332,14.6671287 C15.458728,14.6585524 15.4551863,14.6498883 15.450942,14.6414584 C15.4464929,14.6325601 15.4413413,14.6239838 15.4364238,14.6152905 C15.4318284,14.6072118 15.4274963,14.5990453 15.422491,14.5911423 C15.4170174,14.5825074 15.4108706,14.5741946 15.4048994,14.5657939 C15.3995136,14.5582128 15.3944205,14.550544 15.388625,14.5431678 C15.382244,14.5350305 15.3751605,14.5272738 15.3682819,14.5194001 C15.3629839,14.5133118 15.3582128,14.5069893 15.3526222,14.5011059 C15.3515099,14.4999351 15.3503098,14.4989985 15.3491975,14.4978569 C15.3480267,14.4966568 15.34709,14.4953396 15.3459192,14.4941395 C15.0556721,14.1976871 14.8958255,13.8068663 14.8958255,13.3933315 C14.8955913,12.9728011 15.0593895,12.5773263 15.3570713,12.2797323 C15.6548409,11.9820797 16.050667,11.8181352 16.4716657,11.8181352 C16.5975585,11.8181352 16.7282224,11.8354927 16.8599693,11.8697392 C16.8617841,11.8702076 16.8635988,11.8704125 16.8654136,11.8708808 C16.8672284,11.8713199 16.8689261,11.8720224 16.8707409,11.8724321 C16.8852591,11.8759153 16.8997773,11.8786082 16.9142662,11.8809792 C16.9176909,11.8815353 16.9210862,11.8820036 16.9245109,11.8825012 C16.9416342,11.88496 16.9587282,11.8868333 16.9757344,11.8877992 C16.9775492,11.887887 16.9793347,11.8878578 16.9811495,11.8879456 C16.9900185,11.8883553 16.9988875,11.8887066 17.0077272,11.8887066 C17.0129959,11.8887066 17.0181768,11.8881797 17.0234455,11.8880334 C17.0305875,11.8878577 17.0377002,11.8875943 17.044813,11.887126 C17.0561407,11.8863942 17.0673806,11.8852234 17.078562,11.8838477 C17.0851186,11.8830281 17.0916752,11.8823841 17.098144,11.8813597 C17.1108182,11.8793693 17.1233167,11.8767642 17.1357567,11.8739542 C17.1405571,11.8728712 17.1454452,11.8720809 17.1501871,11.8708808 C17.1672226,11.866578 17.1840239,11.8615728 17.2005325,11.8557479 C17.2042206,11.85446 17.2077623,11.8528208 17.2114211,11.8514451 C17.2241831,11.846674 17.236828,11.8416395 17.2492094,11.8360195 C17.2550636,11.8333559 17.260742,11.8303703 17.2665084,11.8275018 C17.2764603,11.8225843 17.2862953,11.8175205 17.2959253,11.8120469 C17.3020721,11.8085344 17.3081018,11.8048463 17.3141316,11.801129 C17.3231176,11.7955969 17.3319281,11.7898598 17.3405922,11.7838593 C17.3465341,11.7797615 17.3523882,11.775605 17.3581545,11.7713023 C17.3667308,11.7648628 17.3750729,11.7581013 17.3832979,11.7511934 C17.3885667,11.7467735 17.3938939,11.7425 17.398987,11.7379045 C17.4082072,11.729621 17.4170177,11.7208398 17.425711,11.7119708 C17.4293406,11.7082827 17.4331165,11.7048288 17.4366582,11.7010529 C17.4484835,11.6882909 17.459782,11.6750021 17.4704657,11.6611571 C17.4735099,11.6572056 17.476232,11.6529613 17.4791883,11.6489513 C17.4867694,11.6385895 17.4942041,11.6281399 17.501112,11.6172512 C17.5046538,11.6116898 17.5079028,11.605865 17.5112689,11.6001572 C17.5170937,11.5902637 17.522743,11.5802532 17.5280117,11.56995 C17.5312022,11.5637153 17.534217,11.5573636 17.5371734,11.5509826 C17.5420323,11.5405623 17.5465693,11.5299371 17.5508427,11.5191655 C17.5534186,11.5126674 17.5559651,11.5061986 17.558336,11.4995542 C17.5624339,11.4879923 17.5660342,11.4761963 17.5694296,11.4642539 C17.5707468,11.4595998 17.572503,11.4552093 17.5737324,11.4504967 C17.5741714,11.4488283 17.5743471,11.4471891 17.5747568,11.4455207 C17.5752544,11.4435596 17.5759569,11.4416863 17.5764253,11.4397251 C17.7250322,10.8205059 17.8002868,10.2018429 17.8002868,9.6008301 Z M14.5294165,11.4516382 C14.010332,11.9705471 13.7246804,12.6603376 13.7250902,13.3935949 C13.7250902,13.9057715 13.8662037,14.3976636 14.1287315,14.8249556 C13.5809326,15.2683756 12.9667187,15.6246571 12.3156532,15.8765597 C12.3042377,15.8555142 12.2926758,15.8345564 12.2807041,15.8138914 C11.9139145,15.1780466 11.3213023,14.7232988 10.6120761,14.5334206 C9.90340606,14.3436887 9.16344578,14.4413939 8.52839125,14.8086226 C8.08353697,15.066028 7.72766524,15.435013 7.48919781,15.8763841 C6.83786884,15.6246864 6.22356717,15.2686975 5.67579751,14.8255117 C5.68750574,14.8063102 5.69915542,14.7870794 5.71030751,14.7677023 C6.07744841,14.1320916 6.17521214,13.3917801 5.98553877,12.6831393 C5.7958654,11.97444 5.34141037,11.3822084 4.70632657,11.0157114 C4.26243822,10.759067 3.76483834,10.6352231 3.26205758,10.649273 C3.20413109,10.2948648 3.17497759,9.94821333 3.17497759,9.60080081 C3.17497759,9.25851063 3.20477505,8.90787835 3.26240882,8.55355797 C3.28564966,8.55420192 3.3088905,8.5547288 3.331985,8.5547288 C4.06588627,8.5547288 4.75582314,8.2690772 5.27464419,7.75037324 C5.79355306,7.23158148 6.07911685,6.54190803 6.07867777,5.80876781 C6.07867777,5.29641556 5.93768138,4.80440636 5.6753877,4.37705588 C6.22306954,3.93343096 6.83742977,3.57709089 7.48890508,3.32524682 C7.50029134,3.34623382 7.51176541,3.36713303 7.52364926,3.38762243 C7.8901462,4.02329164 8.48220225,4.47803938 9.19078446,4.66806399 C9.42746637,4.73152261 9.6676315,4.76292995 9.90627453,4.76292995 C10.3821264,4.76292995 10.8517728,4.63803239 11.2748791,4.39362303 C11.7204066,4.13642243 12.0767759,3.76714478 12.315419,3.32507121 C12.9667479,3.57694455 13.5808447,3.93316752 14.1282046,4.37652902 C14.1164378,4.39567198 14.1047589,4.41481494 14.093519,4.4341628 C13.7260561,5.0701247 13.6284094,5.8108753 13.8185804,6.52004295 C14.0085465,7.22842028 14.4629429,7.82015435 15.0977048,8.18600734 C15.5194646,8.42953857 15.9891696,8.55414343 16.4655483,8.55414343 C16.4909552,8.55414343 16.516362,8.55364582 16.5417981,8.55294333 C16.5995783,8.90761496 16.6294342,9.25845214 16.6294342,9.60080085 C16.6294342,9.94347154 16.599549,10.2941916 16.5417689,10.6483657 C16.5183817,10.647751 16.4950237,10.6471948 16.4717244,10.6471948 C15.7381158,10.6472534 15.0482961,10.932905 14.5294165,11.4516382 Z" id="Shape" fill="#03A9F4" fill-rule="nonzero"></path>
                <path d="M9.90226452,6.472888 C8.17752482,6.472888 6.77432242,7.8760611 6.77432242,9.6008301 C6.77432242,11.3255991 8.17749553,12.7287722 9.90226452,12.7287722 C11.6270335,12.7287722 13.0302066,11.3255991 13.0302066,9.6008301 C13.0302066,7.8760611 11.6270042,6.472888 9.90226452,6.472888 Z M9.90226452,11.5579489 C8.82311676,11.5579489 7.94514567,10.6799779 7.94514567,9.6008301 C7.94514567,8.52168233 8.82311676,7.64371125 9.90226452,7.64371125 C10.9814123,7.64371125 11.8593834,8.52168233 11.8593834,9.6008301 C11.8593834,10.6799779 10.9814123,11.5579489 9.90226452,11.5579489 Z" id="Shape" fill="#03A9F4" fill-rule="nonzero"></path>
            </g>
        </g>
    </g>
</svg>
