<?xml version="1.0" encoding="UTF-8"?>
<svg width="20px" height="20px" viewBox="0 0 20 20" version="1.1" xmlns="http://www.w3.org/2000/svg" xmlns:xlink="http://www.w3.org/1999/xlink">
    <!-- Generator: Sketch 45.2 (43514) - http://www.bohemiancoding.com/sketch -->
    <title>Group 2</title>
    <desc>Created with Sketch.</desc>
    <defs></defs>
    <g id="钉钉网页版" stroke="none" stroke-width="1" fill="none" fill-rule="evenodd" opacity="0.6">
        <g id="导航展开-copy" transform="translate(-12.000000, -58.000000)">
            <g id="Group-2" transform="translate(12.000000, 58.000000)">
                <rect id="Rectangle-5" fill="#385367" opacity="0.01" x="0" y="0" width="20" height="20"></rect>
                <path d="M6.38333352,9.57134227 L6.38333352,7.71428859 L16.8666668,7.71428859 L16.8666668,9.57134227 L6.38333352,9.57134227 L6.38333352,9.57134227 Z M6.38333352,13.2857114 L6.38333352,11.4285369 L16.8666668,11.4285369 L16.8666668,13.2857114 L6.38333352,13.2857114 L6.38333352,13.2857114 Z M4.71956657,17 L4.71956657,15.1427651 L17,15.1427651 L17,17 L4.71956657,17 L4.71956657,17 Z M4.71956657,5.85705368 L4.71956657,4 L17,4 L17,5.85705368 L4.71956657,5.85705368 L4.71956657,5.85705368 Z M2,10.3263321 L4.63175517,7.25 L4.63175517,13.4026143 L2,10.3263321 L2,10.3263321 Z" id="Shape" fill="#666666" fill-rule="nonzero"></path>
            </g>
        </g>
    </g>
</svg>