<?xml version="1.0" encoding="UTF-8"?>
<svg width="20px" height="20px" viewBox="0 0 20 20" version="1.1" xmlns="http://www.w3.org/2000/svg" xmlns:xlink="http://www.w3.org/1999/xlink">
    <!-- Generator: Sketch 45.2 (43514) - http://www.bohemiancoding.com/sketch -->
    <title>帮助中心</title>
    <desc>Created with Sketch.</desc>
    <defs></defs>
    <g id="钉钉网页版" stroke="none" stroke-width="1" fill="none" fill-rule="evenodd">
        <g id="护士长" transform="translate(-12.000000, -223.000000)">
            <g id="帮助中心" transform="translate(12.000000, 223.000000)">
                <rect id="Rectangle-5-Copy" fill="#385367" opacity="0.01" x="0" y="0" width="20" height="20"></rect>
                <g id="帮助中心-(1)" transform="translate(2.000000, 2.000000)" fill-rule="nonzero" fill="#777777">
                    <path d="M7.63657672,15.2731534 L7.63657672,15.2731534 C3.41827719,15.2731534 0,11.8548763 0,7.63657672 C0,3.41827719 3.41827719,0 7.63657672,0 C11.8548763,0 15.2731534,3.41827719 15.2731534,7.63657672 C15.2731534,9.09116277 14.8367776,10.5093842 14.07312,11.7457823 L14.7276837,13.8912967 C14.8367776,14.2549432 14.7276837,14.6549544 14.4731311,14.9458716 C14.2913079,15.1276948 14.0003907,15.2731534 13.7094734,15.2731534 C13.7094734,15.2731534 13.7094734,15.2731534 13.7094734,15.2731534 C13.6003795,15.2731534 13.4912855,15.2731534 13.4185562,15.2367888 L11.0184893,14.5094958 C9.92754974,15.0186009 8.80024556,15.2731534 7.63657672,15.2731534 Z M7.63657672,1.05457488 C4.00011161,1.05457488 1.05457488,4.00011161 1.05457488,7.63657672 C1.05457488,11.2730418 4.00011161,14.2185786 7.63657672,14.2185786 C8.69115161,14.2185786 9.74572649,13.964026 10.6912074,13.4549209 L10.8730307,13.3458269 L13.7094735,14.1822139 L12.9094511,11.563959 L13.0549097,11.3457711 C13.8185674,10.2548316 14.2185786,8.94570415 14.2185786,7.60021206 C14.2185786,4.00011161 11.2730418,1.05457488 7.63657672,1.05457488 Z" id="Shape"></path>
                    <path d="M9.14557022,8.65776287 C9.54558139,8.40321031 10.6001563,7.8941052 10.6001563,6.5486131 C10.6001563,5.20312101 9.47285209,4.25764009 8.52737115,4.07581683 C7.58189023,3.89399358 6.52731534,4.00308754 5.80002232,4.80310986 C5.1454586,5.53040288 5,6.07587264 5,7.34863544 L6.45458605,7.34863544 L6.45458603,7.05771823 C6.45458603,6.40315451 6.52731533,5.67586149 7.47279627,5.49403824 C7.98190138,5.38494428 8.4910065,5.56676753 8.78192371,5.82132009 C9.10920557,6.14860195 9.10920557,6.87589498 8.60010046,7.23954148 L7.76371348,7.78501125 C7.29097302,8.11229311 7.10914976,8.43957497 7.10914976,8.94868009 L7.10914976,10.6578187 L8.56373581,10.6578187 L8.56373581,9.49414985 C8.60010045,9.20323264 8.74555905,8.91231543 9.14557022,8.65776287 L9.14557022,8.65776287 L9.14557022,8.65776287 Z" id="Shape"></path>
                    <path d="M7.76365767,11 C7.3636465,11 7,11.3272819 7,11.7636577 C7,12.1636688 7.32728186,12.5273153 7.76365767,12.5273153 C8.16366884,12.5273153 8.52731534,12.2000335 8.52731534,11.7636577 C8.52731534,11.3272819 8.16366884,11 7.76365767,11 L7.76365767,11 L7.76365767,11 Z" id="Shape"></path>
                </g>
            </g>
        </g>
    </g>
</svg>