<?xml version="1.0" encoding="UTF-8"?>
<svg width="18px" height="38px" viewBox="0 0 18 38" version="1.1" xmlns="http://www.w3.org/2000/svg" xmlns:xlink="http://www.w3.org/1999/xlink">
    <!-- Generator: Sketch 51.1 (57501) - http://www.bohemiancoding.com/sketch -->
    <title>Group 2</title>
    <desc>Created with Sketch.</desc>
    <defs></defs>
    <g id="2.基本" stroke="none" stroke-width="1" fill="none" fill-rule="evenodd">
        <g id="图标" transform="translate(-613.000000, -253.000000)">
            <g id="Group-2" transform="translate(622.000000, 272.000000) scale(-1, 1) translate(-622.000000, -272.000000) translate(613.000000, 253.000000)">
                <polygon id="Rectangle-13-Copy" fill="#EBF1F3" transform="translate(9.000000, 19.000000) scale(-1, 1) translate(-9.000000, -19.000000) " points="0 7 18 0 18 38 0 31"></polygon>
                <path d="M6.38333352,18.5713423 L6.38333352,16.7142886 L16.8666668,16.7142886 L16.8666668,18.5713423 L6.38333352,18.5713423 L6.38333352,18.5713423 Z M6.38333352,22.2857114 L6.38333352,20.4285369 L16.8666668,20.4285369 L16.8666668,22.2857114 L6.38333352,22.2857114 L6.38333352,22.2857114 Z M4.71956657,26 L4.71956657,24.1427651 L17,24.1427651 L17,26 L4.71956657,26 L4.71956657,26 Z M4.71956657,14.8570537 L4.71956657,13 L17,13 L17,14.8570537 L4.71956657,14.8570537 L4.71956657,14.8570537 Z M2,19.3263321 L4.63175517,16.25 L4.63175517,22.4026143 L2,19.3263321 L2,19.3263321 Z" id="Shape-Copy-9" fill="#666666" fill-rule="nonzero" opacity="0.6" transform="translate(9.500000, 19.500000) scale(-1, 1) translate(-9.500000, -19.500000) "></path>
            </g>
        </g>
    </g>
</svg>