<?xml version="1.0" encoding="UTF-8"?>
<svg width="20px" height="20px" viewBox="0 0 20 20" version="1.1" xmlns="http://www.w3.org/2000/svg" xmlns:xlink="http://www.w3.org/1999/xlink">
    <!-- Generator: Sketch 45.2 (43514) - http://www.bohemiancoding.com/sketch -->
    <title>Group 3</title>
    <desc>Created with Sketch.</desc>
    <defs></defs>
    <g id="钉钉网页版" stroke="none" stroke-width="1" fill="none" fill-rule="evenodd">
        <g id="导航展开" transform="translate(-12.000000, -417.000000)">
            <g id="Group-3" transform="translate(12.000000, 417.000000)">
                <rect id="Rectangle-5" fill-opacity="0.01" fill="#385367" opacity="0.651587409" x="0" y="0" width="20" height="20"></rect>
                <path d="M9.1261532,15.8729676 C7.53508735,15.8729676 6.00918741,15.2409192 4.88413396,14.1158657 C3.7590805,12.9908123 3.12703206,11.4649123 3.12703206,9.87384648 C3.12703206,7.07975582 5.04000181,4.7378489 7.62637291,4.07119657 L7.62637291,2.91111652 C4.1585785,3.65687629 1.76770587,6.84020013 2.01795321,10.3784387 C2.26820056,13.9166772 5.08332246,16.7317991 8.621561,16.9820465 C12.1597995,17.2322938 15.3431234,14.8414212 16.0888832,11.3736268 L14.9288031,11.3736268 C14.2614009,13.9599979 11.9202439,15.8729676 9.1261532,15.8729676 L9.1261532,15.8729676 Z M9.50109827,2 C9.37436683,2 9.25138484,2.01274814 9.1261532,2.01874726 L9.1261532,9.31142888 C9.1261532,9.62188339 9.37811628,9.87384648 9.6885708,9.87384648 L16.9812524,9.87384648 C16.9872515,9.74861482 16.9999997,9.62563284 16.9999997,9.49890141 C16.9999997,5.35725816 13.6427415,2 9.50109827,2 Z M10.2509884,8.74901127 L10.2509884,3.17282817 C13.1746525,3.52001222 15.4796308,5.82530048 15.8264216,8.74901127 L10.2509884,8.74901127 Z" id="Shape" fill="#808081" fill-rule="nonzero"></path>
            </g>
        </g>
    </g>
</svg>