<?xml version="1.0" encoding="UTF-8"?>
<svg width="17px" height="15px" viewBox="0 0 21 17" version="1.1" xmlns="http://www.w3.org/2000/svg" xmlns:xlink="http://www.w3.org/1999/xlink">
    <!-- Generator: Sketch 45.2 (43514) - http://www.bohemiancoding.com/sketch -->
    <title>中对齐</title>
    <desc>Created with Sketch.</desc>
    <defs></defs>
    <g id="2.1-2.4科室排班" stroke="none" stroke-width="1" fill="none" fill-rule="evenodd">
        <g id="选择班次弹窗" transform="translate(-678.000000, -292.000000)" fill-rule="nonzero" fill="currentColor">
            <g id="中对齐" transform="translate(678.000000, 291.000000)">
                <path d="M1.15070359,3.17904504 L19.561961,3.17904504 C20.1983001,3.17904504 20.7126646,2.70430765 20.7126646,2.11936336 C20.7126646,1.53441907 20.1983001,1.05968168 19.561961,1.05968168 L1.15070359,1.05968168 C0.515515208,1.05968168 0,1.53441907 0,2.11936336 C0,2.70430765 0.515515208,3.17904504 1.15070359,3.17904504 Z M1.15070359,17.579045 L19.561961,17.579045 C20.1983001,17.579045 20.7126646,17.1043077 20.7126646,16.5193634 C20.7126646,15.9344191 20.1983001,15.4596817 19.561961,15.4596817 L1.15070359,15.4596817 C0.515515208,15.4596817 0,15.9344191 0,16.5193634 C0,17.1043077 0.515515208,17.579045 1.15070359,17.579045 Z M16.1958906,5.85968168 L5.47034651,5.85968168 C5.10031524,5.85968168 4.8,6.33441907 4.8,6.91936336 C4.8,7.50430765 5.10031524,7.97904504 5.47034651,7.97904504 L16.1958906,7.97904504 C16.5665923,7.97904504 16.8662372,7.50430765 16.8662372,6.91936336 C16.8662372,6.33441907 16.5665923,5.85968168 16.1958906,5.85968168 Z M16.2902274,10.6596817 L5.30977258,10.6596817 C5.02837812,10.6596817 4.8,11.1333594 4.8,11.7193634 C4.8,12.3053673 5.02837812,12.779045 5.30977258,12.779045 L16.2902274,12.779045 C16.5721317,12.779045 16.8,12.3053673 16.8,11.7193634 C16.8,11.1333594 16.5721317,10.6596817 16.2902274,10.6596817 Z" id="Shape"></path>
            </g>
        </g>
    </g>
</svg>