<?xml version="1.0" encoding="UTF-8"?>
<svg width="18px" height="15px" viewBox="0 0 21 18" version="1.1" xmlns="http://www.w3.org/2000/svg" xmlns:xlink="http://www.w3.org/1999/xlink">
    <!-- Generator: Sketch 45.2 (43514) - http://www.bohemiancoding.com/sketch -->
    <title>123</title>
    <desc>Created with Sketch.</desc>
    <defs></defs>
    <g id="2.1-2.4科室排班" stroke="none" stroke-width="1" fill="none" fill-rule="evenodd">
        <g id="选择班次弹窗" transform="translate(-596.000000, -291.000000)">
            <g id="123" transform="translate(596.000000, 291.000000)">
                <g id="排序-(4)" fill-rule="nonzero" fill="currentColor">
                    <path d="M0.0072827958,14.6140263 L1.87355936,14.6140263 L1.87355936,15.1754474 L0.940421079,15.1754474 L0.940421079,16.2982368 L1.87355936,16.2982368 L1.87355936,16.8596579 L0.0072827958,16.8596579 L0.0072827958,17.9824474 L2.80667578,17.9824474 L2.80667578,13.4912368 L0.0072827958,13.4912368 L0.0072827958,14.6140263 L0.0072827958,14.6140263 Z M0.940421079,4.50876316 L1.87355936,4.50876316 L1.87355936,0.0175526316 L0.0072827958,0.0175526316 L0.0072827958,1.14034211 L0.940421079,1.14034211 L0.940421079,4.50876316 Z M0.0072827958,7.87718421 L1.68691858,7.87718421 L0.0072827958,10.2350789 L0.0072827958,11.2456053 L2.80667578,11.2456053 L2.80667578,10.1228158 L1.12703999,10.1228158 L2.80667578,7.76492105 L2.80667578,6.75439474 L0.0072827958,6.75439474 L0.0072827958,7.87718421 L0.0072827958,7.87718421 Z" id="Shape"></path>
                </g>
                <path d="M6.43728776,3.11190315 L19.4338919,3.11190315 C19.8830871,3.11190315 20.2461797,2.66683685 20.2461797,2.11845158 C20.2461797,1.57006631 19.8830871,1.125 19.4338919,1.125 L6.43728776,1.125 C5.98890492,1.125 5.625,1.57006631 5.625,2.11845158 C5.625,2.66683685 5.98890492,3.11190315 6.43728776,3.11190315 Z" id="Path" fill="currentColor"></path>
                <path d="M19.4338919,7.875 L6.43728776,7.875 C5.98890492,7.875 5.625,8.32006631 5.625,8.86845158 C5.625,9.41683685 5.98890492,9.86190315 6.43728776,9.86190315 L19.4338919,9.86190315 C19.8830871,9.86190315 20.2461797,9.41683685 20.2461797,8.86845158 C20.2461797,8.32006631 19.8830871,7.875 19.4338919,7.875 Z" id="Path" fill="currentColor"></path>
                <path d="M19.4338919,14.625 L6.43728776,14.625 C5.98890492,14.625 5.625,15.0690729 5.625,15.6184516 C5.625,16.1678303 5.98890492,16.6119032 6.43728776,16.6119032 L19.4338919,16.6119032 C19.8830871,16.6119032 20.2461797,16.1678303 20.2461797,15.6184516 C20.2461797,15.0690729 19.8830871,14.625 19.4338919,14.625 Z" id="Path" fill="currentColor"></path>
            </g>
        </g>
    </g>
</svg>