<?xml version="1.0" encoding="UTF-8"?>

<!--切图中 按钮 width:16px;height:16px, fontSize:14px-->
<!--取 svg line-height:1;-->
<!--则 height = line-height = (16/14) em-->

<svg height="1.143em"
     viewBox="0 0 16 16"
     version="1.1"
     xmlns="http://www.w3.org/2000/svg"
     xmlns:xlink="http://www.w3.org/1999/xlink">
    <g stroke="none" stroke-width="1" fill="none" fill-rule="evenodd">
        <g transform="translate(-1158.000000, -96.000000)" fill-rule="nonzero" fill="currentColor">
            <path d="M1166,96 C1161.58171,96 1158,99.5828571 1158,104 C1158,108.418286 1161.58171,112 1166,112 C1170.41943,112 1174,108.418286 1174,104 C1174.00114,99.5828571 1170.41943,96 1166,96 Z M1162.48,101.986286 C1162.48,101.986286 1162.21829,98.4148571 1165.984,98.4148571 C1169.74971,98.4148571 1169.52114,101.952 1169.52114,101.952 C1169.52114,101.952 1169.552,103.066286 1168.27657,104.048 C1167,105.030857 1166.73714,104.963429 1166.73714,106.438857 L1165.00114,106.438857 C1165.00114,106.438857 1164.464,104.283429 1166.96457,103.034286 C1167.49029,102.771429 1167.688,102.476571 1167.688,101.494857 C1167.688,100.513143 1167.064,99.9211429 1166.14743,99.9211429 C1165.23086,99.9211429 1164.28114,100.085714 1164.28114,101.952 L1162.48,101.986286 Z M1164.96914,107.814857 L1166.73714,107.814857 L1166.73714,109.584 L1164.96914,109.584 L1164.96914,107.814857 Z"></path>
        </g>
    </g>
</svg>