<?xml version="1.0" encoding="UTF-8"?>
<svg height="0.929em"
     viewBox="0 0 12 12"
     version="1.1"
     xmlns="http://www.w3.org/2000/svg" xmlns:xlink="http://www.w3.org/1999/xlink">
    <!-- Generator: Sketch 45.2 (43514) - http://www.bohemiancoding.com/sketch -->
    <title>单选 copy</title>
    <desc>Created with Sketch.</desc>
    <defs></defs>
    <g id="3.护理人员档案" stroke="none" stroke-width="1" fill="none" fill-rule="evenodd">
        <g id="3.13.2-人员档案信息设置-基本-弹窗1" transform="translate(-657.000000, -131.000000)" fill-rule="nonzero" fill="currentColor">
            <g id="单选-copy" transform="translate(657.000000, 131.000000)">
                <path d="M5.83746534,0 C2.61886722,0 0,2.61885413 0,5.83746534 C0,9.05648227 2.61844841,11.6749307 5.83746534,11.6749307 C9.05648227,11.6749307 11.6749307,9.05648227 11.6749307,5.83746534 C11.6749307,2.61886722 9.05648227,0 5.83746534,0 Z M5.83746534,10.8372994 C3.08040205,10.8372994 0.83763126,8.5941229 0.83763126,5.83746534 C0.83763126,3.08040205 3.08038896,0.83763126 5.83746534,0.83763126 C8.5941229,0.83763126 10.8372994,3.08038896 10.8372994,5.83746534 C10.8372994,8.5941229 8.5941229,10.8372994 5.83746534,10.8372994 Z" id="Shape"></path>
                <path d="M6.09407815,4 C4.93940346,4 4,4.93940346 4,6.09407815 C4,7.24875284 4.93937728,8.1881563 6.09407815,8.1881563 C7.24877902,8.1881563 8.1881563,7.24877902 8.1881563,6.09407815 C8.1881563,4.93937728 7.24875284,4 6.09407815,4 Z" id="Shape"></path>
            </g>
        </g>
    </g>
</svg>
