<?xml version="1.0" encoding="UTF-8"?>

<!--12px / 14px = 0.857em-->

<svg height="0.857em" viewBox="0 0 12 12" version="1.1" xmlns="http://www.w3.org/2000/svg"
     xmlns:xlink="http://www.w3.org/1999/xlink">
    <g transform="translate(-114.000000, -70.000000)" fill-rule="nonzero" fill="currentColor">
        <path
            d="M118.423593,72.5316005 L118.423593,70 L114.262277,72.6579626 C113.912574,72.8816382 113.912574,73.2418429 114.262277,73.4669709 L118.425056,76.1220286 L118.425056,73.984039 L123.692545,73.984039 C124.159303,73.984039 124.539733,74.3587682 124.539733,74.8177388 L124.539733,78.8437665 C124.539733,79.3027371 124.260487,80.4036856 123.395919,80.4036856 L115.763954,80.5475614 C115.359905,80.5475614 115.032359,80.8727009 115.032359,81.2737807 C115.032359,81.6748605 115.359905,82 115.763954,82 L123.395919,81.9627871 C125.157793,82 126.001461,80.1044832 125.999998,78.8437665 L125.999998,74.8191912 C125.999998,73.5584745 124.964059,72.5316005 123.689619,72.5316005 L118.423593,72.5316005 Z"
            transform="translate(120.000000, 76.000000) scale(-1, 1) translate(-120.000000, -76.000000)">
        </path>
    </g>
</svg>
