<?xml version="1.0" encoding="UTF-8"?>

<!--切图中 按钮 width:13px;height:13px, fontSize:14px-->
<!--取 svg line-height:1;-->
<!--则 height = line-height = (13/14) em-->


<svg height="0.929em"
     viewBox="0 0 13 13"
     version="1.1"
     xmlns="http://www.w3.org/2000/svg"
     xmlns:xlink="http://www.w3.org/1999/xlink">

    <g stroke="none" stroke-width="1" fill="none" fill-rule="evenodd">
        <g transform="translate(-492.000000, -98.000000)" fill-rule="nonzero" fill="currentColor">
            <g transform="translate(492.000000, 98.000000)">
                <g>
                    <path d="M9.63793103,0.896551724 L9.63793103,2.24137931 L3.36206897,2.24137931 L3.36206897,-8.8817842e-16 L0,-8.8817842e-16 L0,3.36206897 L0.896551724,3.36206897 L2.24137931,3.36206897 L2.24137931,9.63793103 L0.896551724,9.63793103 L0,9.63793103 L0,13 L3.36206897,13 L3.36206897,10.7586207 L9.63793103,10.7586207 L9.63793103,12.1034483 L9.63793103,13 L13,13 L13,9.63793103 L12.1034483,9.63793103 L10.7586207,9.63793103 L10.7586207,3.36206897 L12.1034483,3.36206897 L13,3.36206897 L13,-8.8817842e-16 L9.63793103,-8.8817842e-16 L9.63793103,0.896551724 Z M2.24137931,11.8793103 L1.12068966,11.8793103 L1.12068966,10.7586207 L2.24137931,10.7586207 L2.24137931,11.8793103 Z M2.24137931,2.24137931 L1.12068966,2.24137931 L1.12068966,1.12068966 L2.24137931,1.12068966 L2.24137931,2.24137931 Z M9.63793103,9.63793103 L3.36206897,9.63793103 L3.36206897,3.36206897 L9.63793103,3.36206897 L9.63793103,9.63793103 Z M10.7586207,1.12068966 L11.8793103,1.12068966 L11.8793103,2.24137931 L10.7586207,2.24137931 L10.7586207,1.12068966 Z M10.7586207,10.7586207 L11.8793103,10.7586207 L11.8793103,11.8793103 L10.7586207,11.8793103 L10.7586207,10.7586207 Z"
                    ></path>
                </g>
            </g>
        </g>
    </g>
</svg>