<?xml version="1.0" encoding="UTF-8"?>

<!--切图中 remark 按钮 width:16px;height:16px, fontSize:14px-->
<!--取 svg line-height:1;-->
<!--则 height = line-height = (16/14) em-->


<svg height="16px"
     viewBox="0 0 16 16"
     version="1.1"
     xmlns="http://www.w3.org/2000/svg"
     xmlns:xlink="http://www.w3.org/1999/xlink">
    <path
        d="M7.98572659,15.9714532 C3.57507177,15.9714532 0,12.395251 0,7.98572659 C0,3.5739778 3.57509,0 7.98572659,0 C12.3963632,0 15.9714532,3.5739778 15.9714532,7.98572659 C15.9714714,12.3952692 12.3963814,15.9714532 7.98572659,15.9714532 Z"
        fill="currentColor"/>
    <path
        d="M12.3906884,6.63071616 C12.2975829,6.73728792 12.2110496,6.83183188 12.1302669,6.9149075 L11.921601,7.12805102 C11.8520457,7.19881915 11.7879673,7.25811891 11.7301871,7.3053909 L9.38447638,4.89144272 C9.47758188,4.79689875 9.59314221,4.68445296 9.73225278,4.55410535 C9.87136334,4.42375773 9.98747135,4.32333973 10.0800292,4.25257161 C10.3116975,4.06292423 10.5608917,3.98040803 10.8273377,4.00390417 C11.0937837,4.0274003 11.3082001,4.08082603 11.4703132,4.16362195 C11.6442014,4.25844564 11.8378061,4.42403746 12.0522225,4.6606771 C12.266639,4.89731675 12.4320382,5.14570447 12.5475985,5.40611997 C12.6053787,5.5719915 12.6434424,5.76695348 12.6604205,5.99184506 C12.6773985,6.21673663 12.5875791,6.42960042 12.3906884,6.63071616 L12.3906884,6.63071616 Z M6.1378297,8.12600585 L8.69290525,5.59348853 L11.0379848,7.98981461 C10.0535223,8.99539327 8.99053174,9.95780269 8.40353625,10.552199 C7.81654075,11.1465953 7.90856733,11.0405829 7.73499968,11.2176431 L7.42235891,11.5373584 C7.34132418,11.620434 7.24851751,11.7035096 7.14448642,11.7860258 C7.04018158,11.8691014 6.92437856,11.9401493 6.7968036,11.9991693 C6.66950241,12.0581894 6.49292334,12.1292372 6.26706639,12.2123128 C6.04120944,12.2953884 5.80686574,12.3751075 5.56348778,12.4520293 C5.32038357,12.5283918 5.08850377,12.5994396 4.86866967,12.6651729 C4.64856181,12.7295075 4.48074325,12.768388 4.36494023,12.7798564 C4.14483237,12.8039119 4.02629169,12.783213 4.00877067,12.7180392 C3.99124966,12.6528654 4.00001017,12.5082522 4.03477844,12.2830809 C4.04627661,12.1644814 4.07529581,11.9902184 4.12156225,11.7597325 C4.16810247,11.5286872 4.21436893,11.2948447 4.26063539,11.058205 C4.30690184,10.8215654 4.35617972,10.5997507 4.40846902,10.3927609 C4.46048457,10.1857712 4.50401336,10.0408783 4.53878163,9.95780269 C4.59654627,9.82773479 4.65759607,9.715289 4.72110979,9.62074504 C4.78462351,9.52564163 4.87469252,9.41962931 4.99022176,9.30102977 L6.1378297,8.12600585 Z"
        fill="#FFFFFF"/>
</svg>
