<?xml version="1.0" encoding="UTF-8"?>
<!--切图中 按钮 width:16px;height:16px, fontSize:14px-->
<!--取 svg line-height:1;-->
<!--则 height = line-height = (16/14) em-->


<svg height="1.143em"
     viewBox="0 0 16 16"
     version="1.1"
     xmlns="http://www.w3.org/2000/svg"
     xmlns:xlink="http://www.w3.org/1999/xlink">

    <path d="M7.99997233,16 C3.58173627,16 0,12.4182761 0,8 C0,3.58177923 3.58173627,0 7.99997233,0 C12.4183006,0 16,3.58176078 16,8 C16,12.4182761 12.4183006,16 7.99997233,16 Z"
          fill="currentColor">
    </path>
    <path d="M6.31769505,4.91275695 L6.31769505,3 L3.19670779,5.00823019 C2.93443074,5.1772288 2.93443074,5.4493824 3.19670779,5.6194784 L6.31879244,7.62551381 L6.31879244,6.0101505 L10.2694092,6.0101505 C10.6194778,6.0101505 10.9048001,6.29327804 10.9048001,6.6400544 L10.9048001,9.68192955 C10.9048001,10.0287059 10.6953654,10.8605302 10.0469394,10.8605302 L5.07296585,10.969236 C4.76992899,10.969236 4.52426908,11.2148959 4.52426908,11.5179327 C4.52426908,11.8209696 4.76992899,12.0666295 5.07296585,12.0666295 L10.0469394,12.0385132 C11.3683452,12.0666295 12.0010962,10.6344672 11.9999988,9.68192955 L11.9999988,6.64115179 C11.9999988,5.68861419 11.2230442,4.91275695 10.2672144,4.91275695 L6.31769505,4.91275695 Z"
          fill="#FFFFFF"
          fill-rule="nonzero">
    </path>
</svg>