<?xml version="1.0" encoding="UTF-8"?>

<!--切图中 按钮 width:15px;height:11px, fontSize:14px-->
<!--取 svg line-height:1;-->
<!--则 height = line-height = (11/14) em-->

<svg height="0.786em"
     viewBox="0 0 15 11"
     version="1.1"
     xmlns="http://www.w3.org/2000/svg"
     xmlns:xlink="http://www.w3.org/1999/xlink">

    <g stroke="none" stroke-width="1" fill="none" fill-rule="evenodd">
        <g transform="translate(-252.000000, -98.000000)" fill-rule="nonzero" fill="currentColor">
            <g transform="translate(252.000000, 98.000000)">
                <g>
                    <path d="M7.12774116,9.64320714 C7.01915779,9.64200241 6.91122092,9.63606191 6.80449621,9.62650724 C6.7610871,9.62215918 6.7177184,9.61468162 6.67366282,9.60915652 C6.5898481,9.5973309 6.50606031,9.5855745 6.42465645,9.56911 C6.37402821,9.55918145 6.32451786,9.54583261 6.27508832,9.53384082 C6.19489664,9.51426067 6.11532451,9.49441743 6.03691067,9.47028152 C5.99957587,9.45815125 5.96276635,9.44420697 5.92536422,9.43121816 C5.83551558,9.39985393 5.74564002,9.36736807 5.65826961,9.32921865 C5.6383631,9.32085485 5.61906269,9.31127249 5.59974881,9.30196707 C5.49726669,9.25514921 5.39656242,9.20619885 5.29888857,9.15101719 C4.95517143,8.95516038 4.6531125,8.71928474 4.38776879,8.44369493 C4.29251928,8.3435371 4.21417278,8.25339091 4.13936851,8.15982441 C4.1237046,8.13963499 4.1086333,8.11825469 4.09296939,8.09778832 C3.55325806,7.39513263 3.22764264,6.50588398 3.22764264,5.53848094 L4.14300501,5.53848094 C4.16649414,5.53848094 4.66579984,5.56143984 4.67782725,5.53848095 C4.68993547,5.51586824 2.43727886,3.03097651 2.43727886,3.03097651 C2.42525146,3.01236567 2.40486008,3 2.38164032,3 C2.3587034,3 2.33820428,3.01237953 2.32616341,3.03097651 L0.00935217571,5.4324657 C-0.0035641586,5.45293208 -0.00275605111,5.47962975 0.00935217571,5.50251941 C0.0213930536,5.52547831 -0.0141100285,5.53848095 0.00935217571,5.53848095 L1.9817623,5.53848095 C1.9817623,6.67569396 2.32243554,7.72986444 2.90089586,8.60144387 C2.90807459,8.61351875 2.91292326,8.6265491 2.92080237,8.63862398 C2.98107408,8.7278978 3.04737971,8.81002638 3.111894,8.89438439 C3.13545049,8.92623327 3.1583874,8.95917611 3.1830483,8.9904157 C3.27769174,9.11008443 3.37846335,9.22231715 3.48157849,9.33233429 C3.49178764,9.3431906 3.50086543,9.35404692 3.51049544,9.36367082 C3.85783562,9.72569574 4.25032232,10.0306558 4.67782725,10.2742859 C4.68873677,10.2813758 4.69956547,10.2882579 4.71159289,10.2947523 C4.83460107,10.3635597 4.96125921,10.4258728 5.08966826,10.484724 C5.12161564,10.4989314 5.15235085,10.5148143 5.18491777,10.5291186 C5.2946729,10.5762134 5.40741804,10.6176723 5.52080968,10.6574142 C5.57448181,10.6763574 5.62748051,10.6955082 5.68178567,10.7128451 C5.78131818,10.7435724 5.88262854,10.7690238 5.98446416,10.794406 C6.0526015,10.8108705 6.11958056,10.828512 6.18884926,10.8421793 C6.21724093,10.8483414 6.24435311,10.8573421 6.27266398,10.8619671 C6.36919301,10.8796225 6.46564121,10.8895649 6.56217024,10.9020275 C6.59706722,10.9060294 6.63145241,10.9121776 6.66581065,10.9162626 C6.83948747,10.9338903 7.0119656,10.9456466 7.18438984,10.9456466 C8.24021562,10.9456466 9.2700471,10.6096963 10.1534621,9.96532404 C10.4350084,9.75953869 10.5037653,9.35557017 10.3065455,9.06207575 C10.1087735,8.76824896 9.43830956,8.90302514 9.43830956,8.90302514 C8.7521144,9.40359273 7.9489315,9.65465888 7.12774116,9.64320714 Z"
                    ></path>
                    <path d="M11.5218018,2.34792767 C11.5133974,2.33300023 11.5073366,2.31785124 11.4983396,2.30417006 C11.4265658,2.19787787 11.3487984,2.0987032 11.2709907,1.99919619 C11.2619802,1.98710746 11.253495,1.97438175 11.243865,1.96262535 C10.716868,1.29716362 10.0553607,0.782928708 9.30531116,0.446992185 C9.28479857,0.437645225 9.26428598,0.427135098 9.2437734,0.417801994 C9.12378218,0.366691455 9.00136662,0.321410649 8.87841232,0.278317718 C8.83375065,0.263182568 8.7897624,0.246441134 8.7445081,0.232469165 C8.63721772,0.198653951 8.5280552,0.171070044 8.41828661,0.144718561 C8.35739534,0.130206545 8.2971371,0.114102087 8.23559934,0.10165333 C8.20486413,0.095491266 8.17653979,0.0861581488 8.14632986,0.0806192183 C8.06441421,0.0656779411 7.9817443,0.0591835322 7.8997613,0.0483272165 C7.84304529,0.0409188858 7.78701616,0.0315996253 7.72970752,0.0254375615 C7.59162805,0.0120887257 7.45474728,0.00649439539 7.31787997,0.00400187531 C7.29319214,0.00400187531 7.26843697,0 7.24368179,0 C6.17644816,0.00246482014 5.14835412,0.33379019 4.26623211,0.977262336 C3.98405274,1.18245225 3.91532278,1.58691928 4.11246179,1.88046909 C4.30966815,2.17394967 4.69919179,2.24526347 4.98073815,2.03946428 C5.6620981,1.5425801 6.45749619,1.29122314 7.27269303,1.29868686 C7.39025991,1.29957309 7.50540245,1.30552744 7.61933284,1.3166607 C7.65493019,1.32100876 7.68930191,1.32627076 7.72426624,1.33089577 C7.81837092,1.34272139 7.91119611,1.35662413 8.00287645,1.37558114 C8.04329554,1.38359875 8.08364728,1.39445507 8.12286767,1.4037328 C8.21272977,1.42480845 8.30252452,1.44749041 8.39056837,1.47501891 C8.41830009,1.48435202 8.44546614,1.49458521 8.47317092,1.50419526 C8.57387519,1.53830126 8.67211473,1.57516289 8.76924983,1.61699571 C8.77887984,1.62134377 8.7891698,1.62660577 8.79877287,1.63062149 C9.37944202,1.89070227 9.88895689,2.29116741 10.2863327,2.7917073 C10.8530754,3.5104813 11.1901929,4.4168314 11.1901929,5.40337147 L9.27481709,5.40337147 C9.2513549,5.40337147 9.22841797,5.41644336 9.21637709,5.43933301 C9.20432275,5.46226421 9.20607366,5.48898958 9.21940751,5.50940056 L11.7581478,7.91097286 C11.7696499,7.92956984 11.7901625,7.94160318 11.8136516,7.94160318 C11.8365751,7.94160318 11.8570203,7.92956984 11.8691285,7.91097286 L14.4067374,5.50938673 C14.4199905,5.48887882 14.4218222,5.46225038 14.409714,5.43931918 C14.3976596,5.41642953 14.37479,5.40335764 14.3512605,5.40335764 L12.4365716,5.40335764 C12.435952,4.26964801 12.0977031,3.21761001 11.5218018,2.34792767 Z"
                    ></path>
                </g>
            </g>
        </g>
    </g>
</svg>