<?xml version="1.0" encoding="UTF-8"?>
<svg width="1em" height="0.857em" viewBox="0 0 14 12" version="1.1" xmlns="http://www.w3.org/2000/svg" xmlns:xlink="http://www.w3.org/1999/xlink">
    <!-- Generator: Sketch 42 (36781) - http://www.bohemiancoding.com/sketch -->
    <title>排序</title>
    <desc>Created with Sketch.</desc>
    <defs></defs>
    <g id="Symbols" stroke="none" stroke-width="1" fill="currentColor" fill-rule="evenodd">
        <g id="排序"  fill-rule="nonzero">
            <path d="M13.1330211,7.6312985 L10.5001434,10.2608875 L10.5001436,0.515411496 C10.5001436,0.237284502 10.2696654,0 9.99231051,0 C9.71495571,0 9.50010346,0.237284502 9.50010346,0.515411496 L9.50010351,10.2883085 L6.85550655,7.6156295 C6.66018626,7.417807 6.34376741,7.41584799 6.14844711,7.6117125 C5.95117361,7.80757651 5.95117361,8.1268345 6.1445407,8.3246575 L9.6348745,11.847386 C9.73253466,11.9472765 9.86339926,11.9982015 9.99231065,11.9982015 C10.1192689,11.9982015 10.2481803,11.9492355 10.3458404,11.853262 C10.3477936,11.8513035 13.853753,8.348161 13.853753,8.348161 C14.0490733,8.1503385 14.0490733,7.83108 13.8517998,7.63325751 C13.6564795,7.4354345 13.3302946,7.4354345 13.1330211,7.6312985 L13.1330211,7.6312985 Z M0,0.500000004 C0,0.223857502 0.224974403,0 0.503422745,0 L6.49657725,0 C6.77460996,0 7.00000001,0.221932496 7.00000001,0.500000004 C7.00000001,0.776142495 6.7750256,0.999999997 6.49657725,0.999999997 L0.503422745,0.999999997 C0.225390048,0.999999997 0,0.778067501 0,0.500000004 L0,0.500000004 Z M0,6.00000001 C0,5.7238575 0.227832205,5.5 0.497698795,5.5 L4.50230121,5.5 C4.77717265,5.5 5,5.7219325 5,6.00000001 C5,6.2761425 4.77216781,6.5 4.50230121,6.5 L0.497698795,6.5 C0.22282735,6.5 0,6.2780675 0,6.00000001 L0,6.00000001 Z M0,11.5 C0,11.2238575 0.227880497,11 0.501236649,11 L5.49876335,11 C5.7755887,11 6.00000001,11.2219325 6.00000001,11.5 C6.00000001,11.7761425 5.7721195,12 5.49876335,12 L0.501236649,12 C0.224411305,12 0,11.7780675 0,11.5 L0,11.5 Z"></path>
        </g>
    </g>
</svg>