<?xml version="1.0" encoding="UTF-8"?>
<!--切图中 sub按钮 width:16px;height:16px, fontSize:14px-->
<!--取 svg line-height:1;-->
<!--则 height = line-height = (16/14) em-->

<svg height="1.143em"
     viewBox="0 0 16 16"
     version="1.1"
     xmlns="http://www.w3.org/2000/svg" xmlns:xlink="http://www.w3.org/1999/xlink">
    <g stroke="none" stroke-width="1" fill="none" fill-rule="evenodd">
        <g>
            <path d="M8,16 C3.58146173,16 0,12.4174058 0,8 C0,3.5803658 3.58147999,0 8,0 C12.41852,0 16,3.5803658 16,8 C16.0000183,12.4174241 12.4185383,16 8,16 Z"
                  id="Path" fill="currentColor">
            </path>
            <path d="M11.9868388,7.61496829 C11.9868388,7.27518505 11.7116538,7 11.3718705,7 L8.91531572,7 L7.07261703,7.00000002 L4.61498651,7 C4.27629723,7 4,7.27518503 4,7.61496829 L4,8.22771218 C4,8.56860761 4.27629723,8.84266222 4.61498651,8.84266222 L7.07263526,8.84266222 L8.91533395,8.84268046 L11.3718705,8.84268046 C11.711672,8.84268046 11.9868388,8.56862585 11.9868388,8.22773042 L11.9868388,7.61496829 Z"
                  id="Path" fill="#FFFFFF">
            </path>
        </g>
    </g>
</svg>