<?xml version="1.0" encoding="UTF-8"?>
<svg height="0.929em"
     viewBox="0 0 12 13"
     version="1.1"
     xmlns="http://www.w3.org/2000/svg" xmlns:xlink="http://www.w3.org/1999/xlink">
    <!-- Generator: Sketch 45.2 (43514) - http://www.bohemiancoding.com/sketch -->
    <title>多行文本 (1) copy</title>
    <desc>Created with Sketch.</desc>
    <defs></defs>
    <g id="3.护理人员档案" stroke="none" stroke-width="1" fill="none" fill-rule="evenodd">
        <g id="3.13.2-人员档案信息设置-基本-弹窗1" transform="translate(-547.000000, -131.000000)" fill-rule="nonzero" fill="currentColor">
            <g id="多行文本-(1)-copy" transform="translate(547.000000, 131.000000)">
                <path d="M5.70819672,7.58071662 L3.00327869,7.58071662 L3.00327869,7.35353701 C3.12131148,7.31402751 3.23934426,7.27451801 3.36721311,7.24488589 C3.4852459,7.21525377 3.62295082,7.18562164 3.76065574,7.16586689 L3.76065574,2.42472711 L2.73770492,2.42472711 L2.30491803,3.56062518 L2.09836066,3.56062518 C2.07868852,3.45197406 2.06885246,3.33344556 2.05901639,3.19516232 C2.04918033,3.05687908 2.03934426,2.91859583 2.0295082,2.78031259 C2.01967213,2.64202935 2.00983607,2.5037461 2.00983607,2.36546286 C2,2.22717961 2,2.10865112 2,2 L6.70163934,2 C6.70163934,2.10865112 6.70163934,2.22717961 6.69180328,2.35558548 C6.68196721,2.48399135 6.68196721,2.6222746 6.67213115,2.77043522 C6.66229508,2.91859583 6.65245902,3.0470017 6.64262295,3.18528495 C6.63278689,3.32356819 6.62295082,3.44209669 6.60327869,3.56062518 L6.38688525,3.56062518 L5.96393443,2.42472711 L4.94098361,2.42472711 L4.94098361,7.16586689 C5.07868852,7.19549902 5.21639344,7.21525377 5.33442623,7.24488589 C5.45245902,7.27451801 5.5704918,7.30415014 5.68852459,7.35353701 L5.68852459,7.58071662 L5.70819672,7.58071662 Z" id="Shape"></path>
                <path d="M10.3278689,12.6430394 L1.56393443,12.6430394 C0.698360656,12.6430394 0,11.9417458 0,11.0725369 L0,1.64952155 C0,0.78031259 0.708196721,0 1.57377049,0 L10.4065574,0 C11.2721311,0 11.9803279,0.711170968 11.9803279,1.58037993 L11.9803279,11.0626595 C11.9803279,11.9318685 11.1934426,12.6430394 10.3278689,12.6430394 L10.3278689,12.6430394 L10.3278689,12.6430394 Z M11.1934426,1.58037993 C11.1934426,1.14577545 10.8393443,0.790189964 10.4065574,0.790189964 L1.57377049,0.790189964 C1.14098361,0.790189964 0.77704918,1.21491707 0.77704918,1.64952155 L0.77704918,11.0725369 C0.77704918,11.5071414 1.13114754,11.8627268 1.56393443,11.8627268 L10.3278689,11.8627268 C10.7606557,11.8627268 11.1836066,11.497264 11.1836066,11.0725369 L11.1836066,1.58037993 L11.1934426,1.58037993 L11.1934426,1.58037993 L11.1934426,1.58037993 Z" id="Shape"></path>
                <path d="M9.88196721,2.79018996 L7.39344262,2.79018996 C7.17704918,2.79018996 7,2.61239722 7,2.39509498 C7,2.17779274 7.17704918,2 7.39344262,2 L9.88196721,2 C10.0983607,2 10.2754098,2.17779274 10.2754098,2.39509498 C10.2754098,2.61239722 10.0983607,2.79018996 9.88196721,2.79018996 L9.88196721,2.79018996 L9.88196721,2.79018996 Z" id="Shape"></path>
                <path d="M9.88196721,4.79018996 L7.39344262,4.79018996 C7.17704918,4.79018996 7,4.61239722 7,4.39509498 C7,4.17779274 7.17704918,4 7.39344262,4 L9.88196721,4 C10.0983607,4 10.2754098,4.17779274 10.2754098,4.39509498 C10.2754098,4.6222746 10.0983607,4.79018996 9.88196721,4.79018996 L9.88196721,4.79018996 L9.88196721,4.79018996 Z" id="Shape"></path>
                <path d="M9.61967213,5.79018996 L6.39344262,5.79018996 C6.17704918,5.79018996 6,5.61239722 6,5.39509498 C6,5.17779274 6.17704918,5 6.39344262,5 L9.61967213,5 C9.83606557,5 10.0131148,5.17779274 10.0131148,5.39509498 C10.0131148,5.61239722 9.83606557,5.79018996 9.61967213,5.79018996 L9.61967213,5.79018996 L9.61967213,5.79018996 Z" id="Shape"></path>
                <path d="M9.61967213,7.79018996 L6.39344262,7.79018996 C6.17704918,7.79018996 6,7.61239722 6,7.39509498 C6,7.17779274 6.17704918,7 6.39344262,7 L9.61967213,7 C9.83606557,7 10.0131148,7.17779274 10.0131148,7.39509498 C10.0131148,7.61239722 9.83606557,7.79018996 9.61967213,7.79018996 L9.61967213,7.79018996 L9.61967213,7.79018996 Z" id="Shape"></path>
                <path d="M10.3213115,8.79018996 L2.39344262,8.79018996 C2.17704918,8.79018996 2,8.61239722 2,8.39509498 C2,8.17779274 2.17704918,8 2.39344262,8 L10.3213115,8 C10.5377049,8 10.7147541,8.17779274 10.7147541,8.39509498 C10.7147541,8.61239722 10.5377049,8.79018996 10.3213115,8.79018996 L10.3213115,8.79018996 L10.3213115,8.79018996 Z" id="Shape"></path>
                <path d="M10.3213115,10.79019 L2.39344262,10.79019 C2.17704918,10.79019 2,10.6123972 2,10.395095 C2,10.1777927 2.17704918,10 2.39344262,10 L10.3213115,10 C10.5377049,10 10.7147541,10.1777927 10.7147541,10.395095 C10.7147541,10.6123972 10.5377049,10.79019 10.3213115,10.79019 L10.3213115,10.79019 L10.3213115,10.79019 Z" id="Shape"></path>
            </g>
        </g>
    </g>
</svg>
