<?xml version="1.0" encoding="UTF-8"?>


<!--切图中 按钮 width:14px;height:12px, fontSize:14px-->
<!--取 svg line-height:1;-->
<!--则 height = line-height = (11/14) em-->



<svg height="0.857em"
     viewBox="0 0 14 12"
     version="1.1"
     xmlns="http://www.w3.org/2000/svg"
     xmlns:xlink="http://www.w3.org/1999/xlink">
    <g stroke="none" stroke-width="1" fill="none" fill-rule="evenodd">
        <g transform="translate(-1323.000000, -97.000000)" fill="currentColor">
            <g transform="translate(1314.000000, 88.000000)">
                <path d="M9,10 C9,9.44771525 9.44994876,9 10.0068455,9 L21.9931545,9 C22.5492199,9 23,9.44386482 23,10 C23,10.5522847 22.5500512,11 21.9931545,11 L10.0068455,11 C9.45078007,11 9,10.5561352 9,10 Z M9,15 C9,14.4477153 9.44994876,14 10.0068455,14 L21.9931545,14 C22.5492199,14 23,14.4438648 23,15 C23,15.5522847 22.5500512,16 21.9931545,16 L10.0068455,16 C9.45078007,16 9,15.5561352 9,15 Z M9,20 C9,19.4477153 9.44994876,19 10.0068455,19 L21.9931545,19 C22.5492199,19 23,19.4438648 23,20 C23,20.5522847 22.5500512,21 21.9931545,21 L10.0068455,21 C9.45078007,21 9,20.5561352 9,20 Z"></path>
            </g>
        </g>
    </g>
</svg>