<?xml version="1.0" encoding="UTF-8"?>
<svg width="16px" height="16px" viewBox="0 0 16 16" version="1.1" xmlns="http://www.w3.org/2000/svg" xmlns:xlink="http://www.w3.org/1999/xlink">
    <!-- Generator: Sketch 50 (54983) - http://www.bohemiancoding.com/sketch -->
    <title>info-circle</title>
    <desc>Created with Sketch.</desc>
    <defs></defs>
    <g id="8-质量检查" stroke="none" stroke-width="1" fill="none" fill-rule="evenodd">
        <g id="info-circle" fill="#ABABAB" fill-rule="nonzero">
            <path d="M8,0 C3.58214286,0 0,3.58214286 0,8 C0,12.4178571 3.58214286,16 8,16 C12.4178571,16 16,12.4178571 16,8 C16,3.58214286 12.4178571,0 8,0 Z M8,14.6428571 C4.33214286,14.6428571 1.35714286,11.6678571 1.35714286,8 C1.35714286,4.33214286 4.33214286,1.35714286 8,1.35714286 C11.6678571,1.35714286 14.6428571,4.33214286 14.6428571,8 C14.6428571,11.6678571 11.6678571,14.6428571 8,14.6428571 Z" id="Shape"></path>
            <path d="M7.14285714,4.85714286 C7.14285714,5.33052979 7.52661307,5.71428571 8,5.71428571 C8.47338693,5.71428571 8.85714286,5.33052979 8.85714286,4.85714286 C8.85714286,4.38375593 8.47338693,4 8,4 C7.52661307,4 7.14285714,4.38375593 7.14285714,4.85714286 Z" id="Shape"></path>
            <path d="M8.42857143,6.85714286 L7.57142857,6.85714286 C7.49285714,6.85714286 7.42857143,6.92142857 7.42857143,7 L7.42857143,11.8571429 C7.42857143,11.9357143 7.49285714,12 7.57142857,12 L8.42857143,12 C8.50714286,12 8.57142857,11.9357143 8.57142857,11.8571429 L8.57142857,7 C8.57142857,6.92142857 8.50714286,6.85714286 8.42857143,6.85714286 Z" id="Shape"></path>
        </g>
    </g>
</svg>
