<?xml version="1.0" encoding="UTF-8"?>

<!--12px / 14px = 0.857em-->

<svg height="0.857em" viewBox="0 0 12 12" version="1.1" xmlns="http://www.w3.org/2000/svg"
     xmlns:xlink="http://www.w3.org/1999/xlink">
    <g transform="translate(-32.000000, -70.000000)" fill-rule="nonzero" fill="currentColor">
        <path
            d="M36.4235933,72.5316005 L36.4235933,70 L32.2622771,72.6579626 C31.9125743,72.8816382 31.9125743,73.2418429 32.2622771,73.4669709 L36.4250565,76.1220286 L36.4250565,73.984039 L41.6925453,73.984039 C42.1593034,73.984039 42.5397331,74.3587682 42.5397331,74.8177388 L42.5397331,78.8437665 C42.5397331,79.3027371 42.260487,80.4036856 41.3959189,80.4036856 L33.7639544,80.5475614 C33.3599053,80.5475614 33.0323587,80.8727009 33.0323587,81.2737807 C33.0323587,81.6748605 33.3599053,82 33.7639544,82 L41.3959189,81.9627871 C43.1577932,82 44.0014613,80.1044832 43.9999981,78.8437665 L43.9999981,74.8191912 C43.9999981,73.5584745 42.9640586,72.5316005 41.689619,72.5316005 L36.4235933,72.5316005 Z">
        </path>
    </g>
</svg>
