<?xml version="1.0" encoding="UTF-8"?>

<!--16px / 14px = 1.143em-->

<svg height="1.143em"
     viewBox="0 0 16 16"
     version="1.1"
     xmlns="http://www.w3.org/2000/svg"
     xmlns:xlink="http://www.w3.org/1999/xlink">

    <path fill="currentColor"
          d="M2.18184298,0 L13.818157,0 C14.4203457,0 14.9345333,0.213093331 15.36072,0.639279992 C15.7869067,1.06546665 16,1.57965431 16,2.18184298 L16,13.818157 C16,14.4203457 15.7869067,14.9345333 15.36072,15.36072 C14.9345333,15.7869067 14.4203457,16 13.818157,16 L2.18184298,16 C1.57965431,16 1.06546665,15.7869067 0.639279992,15.36072 C0.213093331,14.9345333 -1.21116615e-16,14.4203457 0,13.818157 L0,2.18184298 C0,1.57965431 0.213093331,1.06546665 0.639279992,0.639279992 C1.06546665,0.213093331 1.57965431,0 2.18184298,0 Z M13.8187025,1.4547438 L2.18238844,1.4547438 C1.98165888,1.4547438 1.81020239,1.52583552 1.66801895,1.66801895 C1.52583552,1.81020239 1.4547438,1.98165888 1.4547438,2.18238844 L1.4547438,13.8187025 C1.4547438,14.019432 1.52583552,14.1908885 1.66801895,14.333072 C1.81020239,14.4752554 1.98165888,14.5463471 2.18238844,14.5463471 L13.8187025,14.5463471 C14.019432,14.5463471 14.1908885,14.4752554 14.333072,14.333072 C14.4752554,14.1908885 14.5463471,14.019432 14.5463471,13.8187025 L14.5463471,2.18238844 C14.5463471,1.98165888 14.4752554,1.81020239 14.333072,1.66801895 C14.1908885,1.52583552 14.019432,1.4547438 13.8187025,1.4547438 Z M8.00027273,4.36368595 C8.20100228,4.36368595 8.37245878,4.43477767 8.51464221,4.5769611 C8.65682565,4.71914454 8.72791736,4.89060103 8.72791736,5.09133058 L8.72791736,7.27317356 L10.9097603,7.27317356 C11.1104899,7.27317356 11.2819464,7.34426528 11.4241298,7.48644871 C11.5663133,7.62863214 11.637405,7.80008864 11.637405,8.00081819 C11.637405,8.20154774 11.5663133,8.37300424 11.4241298,8.51518767 C11.2819464,8.65737111 11.1104899,8.72846282 10.9097603,8.72846282 L8.72791736,8.72846282 L8.72791736,10.9103058 C8.72791736,11.1110354 8.65682565,11.2824918 8.51464221,11.4246753 C8.37245878,11.5668587 8.20100228,11.6379504 8.00027273,11.6379504 C7.79954318,11.6379504 7.62808668,11.5668587 7.48590325,11.4246753 C7.34371981,11.2824918 7.2726281,11.1110354 7.2726281,10.9103058 L7.2726281,8.72846282 L5.09078512,8.72846282 C4.89005557,8.72846282 4.71859907,8.65737111 4.57641564,8.51518767 C4.43423221,8.37300424 4.36314049,8.20154774 4.36314049,8.00081819 C4.36314049,7.80008864 4.43423221,7.62863214 4.57641564,7.48644871 C4.71859907,7.34426528 4.89005557,7.27317356 5.09078512,7.27317356 L7.2726281,7.27317356 L7.2726281,5.09133058 C7.2726281,4.89060103 7.34371981,4.71914454 7.48590325,4.5769611 C7.62808668,4.43477767 7.79954318,4.36368595 8.00027273,4.36368595 Z">
    </path>
</svg>
