<?xml version="1.0" encoding="UTF-8"?>


<!--切图中 按钮 width:14px;height:15px, fontSize:14px-->
<!--取 svg line-height:1;-->
<!--则 height = line-height = (15/14) em-->


<svg height="1.071em"
     viewBox="0 0 14 15"
     version="1.1"
     xmlns="http://www.w3.org/2000/svg"
     xmlns:xlink="http://www.w3.org/1999/xlink">
    <g stroke="none" stroke-width="1" fill="none" fill-rule="evenodd">
        <g transform="translate(-372.000000, -97.000000)" fill-rule="nonzero" fill="currentColor">
            <path d="M385.36289,108.717541 L384.09064,108.722288 L384.085922,107.401822 C384.085922,107.043841 383.820646,106.753543 383.468825,106.753543 C383.117005,106.753543 382.831765,107.043824 382.831765,107.401822 L382.829812,108.726984 L381.54109,108.731783 C381.189221,108.731783 380.90403,109.001824 380.90403,109.359804 C380.90403,109.717904 381.189221,110.008134 381.54109,110.008134 L382.827908,110.010122 L382.825922,111.351721 C382.825922,111.709701 383.111112,112 383.462982,112 C383.814802,112 384.100042,111.709718 384.100042,111.351721 L384.095258,110.012076 L385.36289,110.01403 C385.71476,110.01403 386,109.7238 386,109.365802 C386,109.007839 385.71476,108.717541 385.36289,108.717541 Z M381.51232,107.189865 C381.515564,107.19247 381.518858,107.194989 381.522103,107.197611 L381.522103,107.19379 C381.59393,107.22236 381.671999,107.238196 381.753758,107.238196 C382.105628,107.238196 382.390819,106.947915 382.390819,106.589815 L382.385025,106.529726 C382.385025,106.385039 382.338426,106.251476 382.259728,106.143603 L382.266499,106.13524 C382.25506,106.126207 382.243489,106.117364 382.231984,106.108417 C382.167656,106.031943 382.086243,105.970826 381.993624,105.93139 C381.644983,105.684778 381.271195,105.472444 380.87665,105.299667 C382.051513,104.48053 382.822445,103.105219 382.822445,101.546539 C382.822445,99.0355529 380.822072,97 378.35453,97 C375.886923,97 373.886566,99.0355529 373.886566,101.546539 C373.886566,103.105785 374.65806,104.481524 375.833652,105.300558 C373.823114,106.181875 372.346953,108.084635 372.035707,110.366611 C372.012664,110.433642 372,110.505625 372,110.580659 L372.00485,110.63103 C372.004784,110.631682 372.004718,110.632333 372.004652,110.632984 L372.005049,110.632984 L372.00581,110.640919 C372.00581,110.9989 372.291051,111.289147 372.64292,111.289147 C372.994741,111.289147 373.279981,110.998917 373.279981,110.640919 L373.279219,110.632984 L373.290658,110.632984 C373.587536,108.157373 375.596716,106.21994 378.076425,106.084114 C378.168431,106.089873 378.261117,106.093146 378.354547,106.093146 C378.448159,106.093146 378.54101,106.089856 378.633182,106.08408 C379.606701,106.137296 380.507531,106.468437 381.260899,107.000583 C381.327446,107.083209 381.413708,107.148714 381.51232,107.189865 Z M378.353388,104.795338 C376.590828,104.795338 375.161978,103.341325 375.161978,101.547807 C375.161978,99.7542899 376.590828,98.300277 378.353388,98.300277 C380.115899,98.300277 381.544699,99.7542899 381.544699,101.547807 C381.544699,103.341325 380.115899,104.795338 378.353388,104.795338 Z"></path>
        </g>
    </g>
</svg>