<?xml version="1.0" encoding="UTF-8"?>
<svg height="16px"
     viewBox="0 0 16 16"
     version="1.1"
     xmlns="http://www.w3.org/2000/svg"
     xmlns:xlink="http://www.w3.org/1999/xlink">

    <g stroke="none"
       stroke-width="1"
       fill="none"
       fill-rule="evenodd"
       transform="translate(-937.000000, -417.000000)">
        <g transform="translate(925.000000, 298.000000)">
            <g transform="translate(12.000000, 67.000000)">
                <g transform="translate(0.000000, 52.000000)">
                    <path fill="currentColor"
                          d="M7.98572659,15.9714532 C3.57507177,15.9714532 0,12.395251 0,7.98572659 C0,3.5739778 3.57509,0 7.98572659,0 C12.3963632,0 15.9714532,3.5739778 15.9714532,7.98572659 C15.9714714,12.3952692 12.3963814,15.9714532 7.98572659,15.9714532 Z"
                          fill-rule="nonzero"/>
                    <path fill="#FFFFFF"
                          d="M5.16796875,3.25292969 L6.41796875,3.67285156 C6.18359258,4.418298 5.91015781,5.13606426 5.59765625,5.82617188 L5.59765625,12.7158203 L4.328125,12.7158203 L4.328125,8.12109375 C4.06445181,8.51823115 3.78450669,8.90396948 3.48828125,9.27832031 C3.40364541,8.70540078 3.29296943,8.10319326 3.15625,7.47167969 C3.9765666,6.31933018 4.64713281,4.91309424 5.16796875,3.25292969 Z M8.59570312,12.7646484 L8.59570312,7.97949219 C8.12044033,9.42155669 7.41732236,10.6715442 6.48632812,11.7294922 C6.27799375,11.3909488 6.01106934,10.9807967 5.68554688,10.4990234 C6.77604712,9.38899185 7.57844795,8.08366636 8.09277344,6.58300781 L6.11523438,6.58300781 L6.11523438,5.33300781 L8.59570312,5.33300781 L8.59570312,3.27246094 L9.92382812,3.27246094 L9.92382812,5.33300781 L12.6875,5.33300781 L12.6875,6.58300781 L10.3388672,6.58300781 C10.8238957,7.96322305 11.6621034,9.19042432 12.8535156,10.2646484 L12.0039062,11.6123047 C11.1477822,10.7496702 10.4544297,9.55339307 9.92382812,8.0234375 L9.92382812,12.7646484 L8.59570312,12.7646484 Z"
                    />
                </g>
            </g>
        </g>
    </g>
</svg>
