<?xml version="1.0" encoding="UTF-8"?>
<svg height="16px"
     viewBox="0 0 16 16"
     version="1.1"
     xmlns="http://www.w3.org/2000/svg"
     xmlns:xlink="http://www.w3.org/1999/xlink">

    <g stroke="none" stroke-width="1" fill="none" fill-rule="evenodd"
       transform="translate(-937.000000, -391.000000)">
        <g transform="translate(925.000000, 298.000000)">
            <g transform="translate(12.000000, 67.000000)">
                <g transform="translate(0.000000, 26.000000)">
                    <path fill="currentColor"
                          d="M7.98572659,15.9714532 C3.57507177,15.9714532 0,12.395251 0,7.98572659 C0,3.5739778 3.57509,0 7.98572659,0 C12.3963632,0 15.9714532,3.5739778 15.9714532,7.98572659 C15.9714714,12.3952692 12.3963814,15.9714532 7.98572659,15.9714532 Z"
                          fill-rule="nonzero"/>
                    <path fill="#FFFFFF"
                          d="M7.97070312,3.38964844 L9.14257812,3.38964844 L9.14257812,8.19433594 C9.14257812,10.1800229 8.54688096,11.7490177 7.35546875,12.9013672 C7.02343584,12.5953761 6.67838721,12.3056654 6.3203125,12.0322266 C7.42057842,11.0947219 7.97070312,9.74382393 7.97070312,7.97949219 L7.97070312,3.38964844 Z M8.9765625,11.1728516 L10.3242188,11.1728516 L10.3242188,8.52636719 L9.40625,8.52636719 L9.40625,7.33496094 L10.3242188,7.33496094 L10.3242188,5.04980469 L9.30859375,5.04980469 L9.30859375,3.83886719 L12.6777344,3.83886719 L12.6777344,5.04980469 L11.6132812,5.04980469 L11.6132812,7.33496094 L12.5703125,7.33496094 L12.5703125,8.52636719 L11.6132812,8.52636719 L11.6132812,11.1728516 L12.8632812,11.1728516 L12.8632812,12.3837891 L8.9765625,12.3837891 L8.9765625,11.1728516 Z M3.3125,12.1298828 L3.16601562,10.8408203 C3.53711123,10.8017576 3.9179668,10.7545576 4.30859375,10.6992188 L4.30859375,8.28222656 L3.3515625,8.28222656 L3.3515625,7.09082031 L4.30859375,7.09082031 L4.30859375,5.08886719 L3.30273438,5.08886719 L3.30273438,3.87792969 L6.45703125,3.87792969 L6.45703125,5.08886719 L5.51953125,5.08886719 L5.51953125,7.09082031 L6.37890625,7.09082031 L6.37890625,8.28222656 L5.51953125,8.28222656 L5.51953125,10.5234375 C5.85481938,10.4713539 6.19661284,10.4143883 6.54492188,10.3525391 C6.49934873,10.8212914 6.47005215,11.2412091 6.45703125,11.6123047 L3.3125,12.1298828 Z M6.4765625,9.01464844 C6.55468789,7.81672578 6.58723965,6.52767617 6.57421875,5.14746094 L7.61914062,5.14746094 C7.61263018,6.44955078 7.58333359,7.77115215 7.53125,9.11230469 C7.17317529,9.06022109 6.82161631,9.02766934 6.4765625,9.01464844 Z"/>
                </g>
            </g>
        </g>
    </g>
</svg>
