<?xml version="1.0" encoding="UTF-8"?>
<svg width="280px" height="42px" viewBox="0 0 280 42" version="1.1" xmlns="http://www.w3.org/2000/svg" xmlns:xlink="http://www.w3.org/1999/xlink">
    <!-- Generator: Sketch 52.5 (67469) - http://www.bohemiancoding.com/sketch -->
    <title>看板1224 copy</title>
    <desc>Created with Sketch.</desc>
    <g id="数据大屏" stroke="none" stroke-width="1" fill="none" fill-rule="evenodd">
        <g id="看板1224-copy" transform="translate(-1100.000000, -170.000000)">
            <rect fill="#0F2468" x="0" y="0" width="1920" height="1080"></rect>
            <path d="M1171,199.375 C1171.08333,200.875008 1170.29167,201.583334 1168.625,201.5 L1165.625,201.5 L1165.625,177.75 L1193.25,177.75 L1193.25,198.5 C1193.08333,199.250004 1193.375,199.541667 1194.125,199.375 L1194.375,199.375 L1194.375,201.5 L1190.5,201.5 C1188.66666,201.666667 1187.875,200.708344 1188.125,198.625 L1188.125,180.125 L1171,180.125 L1171,199.375 Z M1181.75,181.375 L1187.625,181.375 L1182.125,192.125 L1187.625,201.5 L1182.875,201.5 L1179.875,196.625 L1177.25,201.5 L1171.5,201.5 L1176.875,191.125 L1171.375,181.375 L1176.125,181.375 L1179,186.625 L1181.75,181.375 Z M1204.375,180.125 L1204.375,201.5 L1199.625,201.5 L1199.625,177.75 L1209.875,177.75 L1209.875,180.125 L1209.25,183.75 L1209.875,183.75 L1209.875,198.125 C1210.04167,199.875009 1209.25001,200.708334 1207.5,200.625 L1205.875,200.625 L1205.875,183.75 L1205.25,183.75 L1205.875,180.125 L1204.375,180.125 Z M1223.625,186.125 L1228.375,186.125 L1227.75,199.375 L1228.375,199.375 L1228.375,201.5 L1211,201.5 L1211,199.375 L1222.875,199.375 L1223.625,186.125 Z M1227.75,177.75 L1228.375,182.5 L1223,182.5 L1222.625,180.125 L1216.25,180.125 L1215.875,182.5 L1210.5,182.5 L1211.125,177.75 L1227.75,177.75 Z M1216.125,198.125 L1211.375,198.125 L1210.75,186.125 L1215.5,186.125 L1216.125,198.125 Z M1221.625,186.125 L1222.25,198.125 L1217.5,198.125 L1216.875,186.125 L1221.625,186.125 Z M1228.375,183.125 L1228.375,185.5 L1210.625,185.5 L1210.625,183.125 L1228.375,183.125 Z M1244.375,180.125 L1244.375,177.75 L1262.375,177.75 L1262.375,180.125 L1252.5,180.125 L1251.375,182.5 L1262.375,182.5 L1262.375,193.375 C1262.54167,195.125009 1261.70834,195.916667 1259.875,195.75 L1257.375,195.75 L1257.375,185 L1248.875,185 L1248.875,192.5 L1250.875,188 L1256.625,188 L1250.125,201.5 L1244.375,201.5 L1247.25,195.75 L1244.375,195.75 L1244.375,182.5 L1246.25,182.5 L1247.25,180.125 L1244.375,180.125 Z M1233.625,199.375 L1235.5,199.125 L1235.5,180.125 L1233.625,180.125 L1233.625,177.75 L1243.75,177.75 L1243.75,180.125 L1240.875,180.125 L1240.875,198.5 L1243.75,198.125 L1243.75,200.625 L1233.625,201.5 L1233.625,199.375 Z M1255,196.25 L1260.125,196.25 L1262.375,201.5 L1257.25,201.5 L1255,196.25 Z M1274.75,191.625 L1274.75,199.375 L1288,199.375 C1289.08334,199.541667 1289.5,199.125005 1289.25,198.125 L1289.25,191.625 L1274.75,191.625 Z M1274.75,184.875 L1274.75,189.25 L1289.25,189.25 L1289.25,184.875 L1274.75,184.875 Z M1274.75,180.125 L1274.75,182.5 L1289.25,182.5 L1289.25,180.125 L1274.75,180.125 Z M1267.625,201.5 L1267.625,177.75 L1296.375,177.75 L1296.375,199.375 C1296.45833,200.875008 1295.66667,201.583334 1294,201.5 L1267.625,201.5 Z M1307,177.75 L1312.5,177.75 L1312.5,186.125 L1307,186.125 L1307,177.75 Z M1313.25,186.125 L1315.125,177.75 L1330.375,177.75 L1330.375,180.125 L1329.25,180.125 L1329.25,186.125 L1323.875,186.125 L1323.875,180.125 L1320.875,180.125 L1319.625,186.125 L1313.25,186.125 Z M1305.875,177.75 L1305.875,186.125 L1301.625,186.125 L1301.625,177.75 L1305.875,177.75 Z M1323.25,199.375 L1323.25,189.75 L1321.375,189.75 L1321.375,199.375 L1323.25,199.375 Z M1317,199.375 L1317,189.75 L1314.875,189.75 L1314.875,199.375 L1317,199.375 Z M1310.625,199.375 L1310.625,189.75 L1308.75,189.75 L1308.75,199.375 L1310.625,199.375 Z M1329.125,187.375 L1329.125,199.375 L1330.375,199.375 L1330.375,201.5 L1301.625,201.5 L1301.625,199.375 L1302.75,199.375 L1302.75,187.375 L1329.125,187.375 Z M1364.375,188.5 L1357.75,188.5 L1357.75,199.25 L1364.375,199.25 L1364.375,201.375 L1345.125,201.375 L1345.125,199.25 L1351.75,199.25 L1351.75,188.5 L1345.125,188.5 L1345.125,186.125 L1364.375,186.125 L1364.375,188.5 Z M1336.875,199.375 C1337.79167,199.541667 1338.16667,199.125005 1338,198.125 L1338,189.25 L1335.625,189.75 L1335.625,187.25 L1338,186.75 L1338,181.375 L1335.625,181.375 L1335.625,179 L1338,179 L1338,177.75 L1343.375,177.75 L1343.375,179 L1344.5,179 L1344.5,181.375 L1343.375,181.375 L1343.375,185.625 L1344.5,185.25 L1344.5,187.875 L1343.375,188.125 L1343.375,199.375 C1343.54167,200.958341 1342.75001,201.666667 1341,201.5 L1335.5,201.5 L1335.5,199.375 L1336.875,199.375 Z M1364.375,182.5 L1359.625,182.5 L1359.625,181.375 L1350,181.375 L1350,182.5 L1345.125,182.5 L1345.125,178.875 L1352.25,178.875 L1352,177.75 L1357.625,177.75 L1358,178.875 L1364.375,178.875 L1364.375,182.5 Z M1364.375,183.125 L1364.375,185.5 L1356,184.875 L1356,182.5 L1364.375,183.125 Z M1345.125,183.125 L1353.625,182.5 L1353.625,184.875 L1345.125,185.5 L1345.125,183.125 Z" id="风险项目监控" fill="#58DCFF"></path>
            <path d="M548,170 L1125.98593,170 C1128.96181,170 1131.69175,171.651815 1133.07258,174.287944 L1150.58045,207.712056 C1151.96128,210.348185 1154.69122,212 1157.6671,212 L1372,212 C1376.41828,212 1380,215.581722 1380,220 L1380,698 C1380,702.418278 1376.41828,706 1372,706 L548,706 C543.581722,706 540,702.418278 540,698 L540,178 C540,173.581722 543.581722,170 548,170 Z" id="Rectangle-Copy-75" fill="#0D3B88"></path>
        </g>
    </g>
</svg>